<svg xmlns="http://www.w3.org/2000/svg" width="99" height="100" viewBox="0 0 99 100">
    <g fill="none" fill-rule="evenodd">
        <g fill="#F5A623">
            <g>
                <g>
                    <path d="M34.627 0c19.124 0 34.627 15.499 34.627 34.618S53.751 69.236 34.627 69.236C15.503 69.236 0 53.737 0 34.618S15.503 0 34.627 0zm.082 2.347c-13.197 0-24.55 7.86-29.6 19.138-1.796 4.012-.621 8.456-.621 13.133 0 17.823 13.228 28.423 31.12 28.423 17.89 0 27.776-10.6 27.776-28.423 0-10.94-3.957-19.562-11.892-25.398-.553-.407.61-1.841 0-2.21-4.895-2.96-10.64-4.663-16.783-4.663z" transform="translate(-467 -468) translate(467 468) translate(14.789 16)"/>
                    <path d="M6.277 7.278l4.656 6.717 7.986.725 7.742-4.437-2.438 5.162s1.186 1.744 1.186 3.386h7.71s1.549 1.014.214 2.586c-1.334 1.572-6.817 5.829-6.817 5.829l-.037 4.513-5.057.11s-.153 6.134 3.909 7.265c4.06 1.132 9.399-1.634 9.399-1.634s4.078-.628 5.627 1.203c1.549 1.831 1.376 2.409-.603 3.067-1.98.658-6.44 4.467-9.858 4.467-3.417 0-4.49-.147-4.49-.147s1.392 2.142 4.23 3.056c2.838.913 15.98 4.177 22.532-7.48 1.336-2.963 1.3-8.578 1.3-8.578l2.8 1.894s1.83-7.24 0-11.696l2.219-.301S54.615 14.693 45.7 12.488l5.16-1.374s-3.482-3.302-9.056-4.358l9.8.255 10.27 9.66 4.371 14.02-1.47 14.164-6.768 11.335-8.704 7.299-11.068 3.126-17.476-2.397L4.932 49.762l-3.156-21.87 2.507-9.446L6.277 7.278z" transform="translate(-467 -468) translate(467 468) translate(14.789 16)"/>
                </g>
            </g>
        </g>
    </g>
</svg>
