<svg xmlns="http://www.w3.org/2000/svg" xmlns:xlink="http://www.w3.org/1999/xlink" width="100" height="100" viewBox="0 0 100 100">
    <defs>
        <path id="qt1gufh9oa" d="M66.507 21.122c1.757 4.147 2.729 8.708 2.729 13.496 0 19.119-15.499 34.618-34.618 34.618-.65 0-1.296-.018-1.938-.053L46.764 44.79c2.307-2.752 3.696-6.3 3.696-10.172 0-5.705-3.016-10.706-7.54-13.495zM5.56 15.794l14.554 25.21c2.456 5.569 8.025 9.456 14.503 9.456 2.57 0 4.997-.612 7.143-1.698L30.107 68.945C13.119 66.735 0 52.208 0 34.618c0-6.941 2.043-13.406 5.56-18.824zm29.057 6.502c6.805 0 12.322 5.517 12.322 12.322 0 6.805-5.517 12.322-12.322 12.322-6.805 0-12.322-5.517-12.322-12.322 0-6.805 5.517-12.322 12.322-12.322zm0-22.296c13.41 0 25.039 7.625 30.788 18.775H34.031v.012c-8.275.3-14.93 6.949-15.244 15.22L7.05 13.677C13.372 5.367 23.37 0 34.618 0z"/>
    </defs>
    <g fill="none" fill-rule="evenodd">
        <g>
            <g>
                <g transform="translate(-171 -468) translate(171 468) translate(14 13)">
                    <mask id="zm9cb3g3lb" fill="#fff">
                        <use xlink:href="#qt1gufh9oa"/>
                    </mask>
                    <use fill="#56AFEF" xlink:href="#qt1gufh9oa"/>
                    <path fill="#FA6758" d="M5.215 10.44L19.077 37.166 20.896 29.38 25.983 22.909 34.783 20.58 43.725 20.069 76.561 19.616 42.493 -4.21 19.028 0.063z" mask="url(#zm9cb3g3lb)"/>
                    <path fill="#F5D923" d="M39.815 19.97L45.129 25.426 48.547 30.882 48.547 35.466 45.992 42.515 31.032 70.699 38.96 71.135 56.174 65.327 68.31 50.292 72.375 35.182 70.631 23.339 68.444 20.205z" mask="url(#zm9cb3g3lb)"/>
                    <path fill="#6CE84E" d="M5.383 13.775L11.342 23.799 19.991 36.957 24.349 44.223 28.128 47.063 33.006 48.447 39.627 48.295 43.424 46.762 29.906 71.468 6.146 62.241 -3.735 40.669 -2.645 24.461z" mask="url(#zm9cb3g3lb)"/>
                </g>
            </g>
        </g>
    </g>
</svg>
