<svg xmlns="http://www.w3.org/2000/svg" width="100" height="100" viewBox="0 0 100 100">
    <g fill="none" fill-rule="evenodd">
        <g fill="#22D9E5">
            <g>
                <path d="M76.263 28.644c-.077-.111-.156-.221-.237-.33C70.136 20.23 60.736 15 50.145 15c-17.128 0-31.143 13.683-32.23 30.978 2.61-4.855 14.528-17.675 30.355-17.675 15.828 0 14.353 15.041 14.353 15.041H37.827c.46-5.924 4.698-10.989 4.698-10.989-17.52 7.18-16.734 25.283-16.734 25.283.427 8.46 3.177 14.308 6.833 18.349 8.659 9.572 22.397 9.007 22.397 9.007 12.37 0 20.71-5.024 20.71-5.024V65.305s-7.166 5.084-18.94 5.283c-19.63-.397-18.682-14.934-18.682-14.934h43.5v-7.789s.388-11.058-5.346-19.221z" transform="translate(-171 -618) translate(171 618)"/>
            </g>
        </g>
    </g>
</svg>
