<?xml version="1.0" encoding="UTF-8"?>
<svg width="242px" height="84px" viewBox="0 0 242 84" version="1.1" xmlns="http://www.w3.org/2000/svg" xmlns:xlink="http://www.w3.org/1999/xlink">
    <title>Branding / Full Color</title>
    <defs>
        <path d="M35.879619,23.7649004 C35.879619,23.7649004 57.4962874,15.4687411 76.4888242,6.53259048 C80.6342303,4.58120173 82.4863619,1.99082424 81.9085316,0.0250649351 C81.9085316,0.0250649351 41.9226078,12.3312797 27.5456952,16.6965887 C13.1701195,21.0618978 2.30965022,27.0437281 0.117972294,34.0929905 C11.1913264,27.8939307 21.3198996,28.9005385 27.5096017,33.7871983 C27.4644848,34.0782857 27.3568727,34.3339481 27.1834234,34.5675532 C27.1834234,34.5675532 29.47369,35.3967013 30.9568658,36.0259983 C35.3418926,37.8881558 35.0010095,42.1512 32.6121541,44.0036658 C32.6121541,41.6238338 30.5501455,40.1069039 26.7432831,40.1069039 L21.7486771,40.1059013 C21.5641991,40.1059013 21.4672814,40.20449 21.4672814,40.3171152 C28.7695325,40.5747827 30.4144606,40.6897472 31.3361818,43.0869576 C31.3361818,43.0869576 26.1764814,43.0869576 23.4958701,43.0869576 C13.2844156,43.0869576 4.93311342,48.4331411 4.93311342,59.0092069 C4.93311342,63.6265022 7.05059913,67.464445 10.3899169,70.2162407 C8.82486234,61.4027411 13.9551532,58.8050113 23.3501593,58.8050113 C26.111981,58.8050113 29.7524121,58.8050113 32.0737593,58.8050113 C32.0737593,57.3422216 29.9044727,56.0381766 27.6406078,54.8320519 C25.1324433,53.496258 21.7460035,52.0485074 21.7460035,52.0485074 C21.7460035,52.0485074 35.9334251,51.5732762 46.533219,50.4767688 C51.2203619,49.9918459 53.7569333,48.8662632 54.1609801,47.3005403 L36.497219,42.8820935 C36.497219,42.8820935 50.1165022,41.1034857 62.7238303,38.0606026 C67.9550494,36.7976641 70.7305732,34.9091048 70.7305732,32.9376641 L38.9432225,32.9373299 C38.9432225,32.9373299 57.7008173,28.1749922 73.737697,22.4598528 C78.5317835,20.7514268 80.8220502,18.3471983 80.4734805,16.2918736 L35.879619,23.7649004 L35.879619,23.7649004 Z" id="path-1"></path>
    </defs>
    <g id="Sprint-1" stroke="none" stroke-width="1" fill="none" fill-rule="evenodd">
        <g id="1.0---Login---Desktop" transform="translate(-599.000000, -112.000000)">
            <g id="Group" transform="translate(599.688312, 106.000000)">
                <g id="United_h_R_4c" transform="translate(0.000000, 6.233766)">
                    <g id="Group-4" transform="translate(0.000000, 24.062338)" fill="#005093">
                        <path d="M67.9186216,3.86534719 C67.8053281,6.01357922 66.0584693,7.63277403 63.8179983,7.63277403 C61.5832087,7.63277403 60.0001074,6.01357922 60.1127325,3.86534719 C60.226026,1.71744935 61.9718823,0.0989229437 64.2130216,0.0989229437 C66.4468087,0.0989229437 68.031581,1.71744935 67.9186216,3.86534719" id="Fill-1"></path>
                        <path d="M23.3297732,2.5482684 L19.6418857,23.4644554 C19.0216121,26.9798961 15.9359515,29.1702372 12.4315394,29.1702372 C8.4148,29.1702372 6.40492641,26.9431342 7.16790303,22.6119134 C7.59233593,20.2053455 9.75493853,7.93923463 9.87525022,7.2561316 C10.2218147,5.2890355 10.3187325,3.94555498 10.1402701,2.5482684 L3.14949264,2.5482684 C3.26779913,4.18517576 3.11607273,5.90830649 2.68228225,8.36600693 C2.29260606,10.5717212 1.45109264,15.3427481 0.24329697,22.1904883 C-1.21982684,30.4886528 4.08157403,35.2392935 11.7567913,35.2392935 C20.8169299,35.2392935 25.2738095,31.170419 27.0360416,21.1771965 L30.3205506,2.5482684 L23.3297732,2.5482684" id="Fill-3"></path>
                    </g>
                    <path d="M44.3846528,34.5053922 C40.6058632,34.5077316 36.1549991,35.5263706 32.6916935,36.7445264 C32.7909506,37.838026 32.7581991,38.994355 32.5419723,40.2148502 L29.2661524,58.8040087 L36.1082113,58.8040087 L39.0708866,42.0111706 C39.1347186,41.6502355 39.1517628,41.3080156 39.1333818,40.9571065 C40.4183775,40.5513887 41.8734805,40.300071 43.2851377,40.300071 C46.1829784,40.2927186 46.7735082,41.7498268 46.3019532,44.4277645 L43.7667186,58.8040087 L50.5362563,58.8040087 L52.9535186,45.098168 C54.186045,38.1114009 51.2962251,34.5137472 44.3846528,34.5053922" id="Fill-5" fill="#005093"></path>
                    <polyline id="Fill-6" fill="#005093" points="55.1669195 58.8040087 61.9033714 58.8040087 66.1089333 34.9542216 59.373484 34.9542216 55.1669195 58.8040087"></polyline>
                    <path d="M75.8762372,49.9096329 C76.0446736,48.951484 77.4690303,40.8879273 77.4690303,40.8879273 L83.7599948,40.8879273 L84.8080433,34.9542216 L78.514071,34.9542216 L79.6095758,28.7424623 L72.9035359,28.7424623 L71.802684,34.9836312 L68.9994216,35.1667723 L68.014871,40.6563273 L70.7706771,40.8391342 C70.7706771,40.8391342 69.0802978,50.4259706 68.9369264,51.2410823 C67.9617333,56.7680675 70.2967827,59.2003688 75.4304156,59.2003688 C77.8647221,59.2003688 80.0323377,58.7007411 82.2674615,57.7222061 L80.6750026,52.5521455 C79.346561,53.1760952 78.3332693,53.5052814 77.3106199,53.5052814 C75.5022684,53.5052814 75.488232,52.115013 75.8762372,49.9096329" id="Fill-7" fill="#005093"></path>
                    <path d="M97.4614909,39.9160762 C99.9569558,39.9160762 101.18213,41.5245766 101.18213,43.550826 C101.18213,43.8716571 101.157399,44.1687602 101.100251,44.4732156 L92.1239965,44.4732156 C92.6727515,42.0198597 94.7484623,39.9160762 97.4614909,39.9160762 Z M97.7087983,34.5040554 C91.4746476,34.5040554 84.8775567,39.0404745 84.8775567,48.3743221 C84.8775567,55.3159723 90.2314268,59.3016312 96.6874857,59.3016312 C99.7424,59.3016312 102.185396,58.583103 104.819553,57.2509853 L102.885877,52.2924727 C100.698544,53.2439377 98.6933489,53.7816641 96.5320831,53.7816641 C93.890239,53.7816641 91.7490251,52.173832 91.5802545,49.3384866 L106.613534,49.3384866 C107.345096,47.4893628 107.636852,46.323342 107.636852,44.250639 C107.636852,39.9484935 104.580601,34.5040554 97.7087983,34.5040554 L97.7087983,34.5040554 Z" id="Fill-8" fill="#005093"></path>
                    <g id="Group-12" transform="translate(109.951515, 2.673593)">
                        <path d="M14.8254078,50.6151273 C14.0945143,50.7899134 13.3746494,50.9092225 12.6026494,50.9092225 C8.98995671,50.9092225 6.73411255,47.9057749 7.48472381,43.6467411 C8.19589957,39.6126234 11.2538216,37.5599723 14.0567498,37.5599723 C15.0553368,37.5599723 15.9944364,37.7551446 16.8422996,38.2564433 C16.8422996,38.2564433 15.3972225,46.5074857 14.96009,48.9267532 C14.8481333,49.5670788 14.7970009,50.0028745 14.8254078,50.6151273 Z M19.7969541,21.6684693 L17.8569281,32.6703048 C16.4165299,32.1105212 14.8651775,31.8317991 13.2887602,31.8317991 C7.70963983,31.8294597 1.60181645,35.1884952 0.290753247,42.6284364 C-1.05172468,50.2398216 3.96594113,56.6280381 12.5675584,56.6280381 C15.2909472,56.6280381 18.4217247,55.9415931 21.4291827,54.9169385 C21.167839,53.0013091 21.2503861,51.6661835 21.545484,49.9915117 L26.538419,21.6684693 L19.7969541,21.6684693 L19.7969541,21.6684693 Z" id="Fill-9" fill="#005093"></path>
                        <path d="M73.3660675,30.7717195 L87.2216294,30.7717195 C88.7108208,30.4665957 89.6402286,30.2727602 89.6402286,30.2727602 C89.6402286,30.2727602 105.708189,27.7000952 120.612802,23.7471879 C126.471981,22.1921593 128.579106,20.0877074 128.338817,18.3281489 L99.8052294,22.5116537 L97.3772727,22.8548762 C84.8324398,26.8154701 73.3877905,29.7333628 73.2404087,29.7697905 L73.3660675,30.7717195 Z M55.9693316,49.8417905 C56.0024173,49.8554926 59.3657974,51.2968935 61.823832,52.6066199 C62.062116,52.7336156 62.3351567,52.8789922 62.6245732,53.0387394 C72.2685576,53.0387394 83.0692052,53.0387394 86.0987203,53.0387394 C91.0411913,53.0387394 93.6913905,52.0578649 93.9894961,50.727084 L80.1158874,47.8904017 L78.3312641,47.5458424 C68.2678597,48.4525247 56.282142,48.8629212 56.1521385,48.8669316 L55.9693316,49.8417905 Z M124.378892,6.27692814 C128.734843,4.54911861 131.167479,2.26419913 130.586975,0.261677922 L100.738982,8.44420952 L96.0618649,9.97751515 C82.2367152,15.9556693 70.2807411,20.5552519 70.1206597,20.615742 L70.3860139,21.5919377 L90.2869039,18.2562961 C92.2379584,17.6407013 93.4333887,17.2643931 93.4333887,17.2643931 C93.4333887,17.2643931 109.856268,12.0391896 124.378892,6.27692814 Z M70.8542268,39.7041939 C70.9658494,39.6898234 80.2061212,38.4713333 90.407884,36.3655446 L92.1761316,36.4243636 L114.734239,36.4230268 C114.734239,38.1194216 112.390166,39.7780519 107.266894,40.4006649 C93.4785056,42.0750026 79.4097247,42.3560641 79.4097247,42.3560641 L77.9425905,42.4877385 L70.7960762,40.7004416 L70.8542268,39.7041939 L70.8542268,39.7041939 Z" id="Fill-11" fill="#80CDE8"></path>
                    </g>
                    <path d="M192.556852,18.3077628 L184.014722,23.6485991 L184.724895,23.5306268 L194.864831,17.358303 C194.074116,17.6851498 193.304455,18.0016364 192.556852,18.3077628" id="Fill-13" fill="#C7E7F1"></path>
                    <path d="M202.267008,14.2582719 L188.431164,22.9086823 L189.302755,22.7629714 L205.673165,12.7971532 C204.522852,13.2947758 203.384904,13.7827065 202.267008,14.2582719" id="Fill-14" fill="#C7E7F1"></path>
                    <polyline id="Fill-15" fill="#C7E7F1" points="210.690497 11.1178026 210.219945 11.2722026 192.772076 22.1807965 193.800073 22.0090182 212.509877 10.6191775 210.690497 11.1178026"></polyline>
                    <polyline id="Fill-16" fill="#C7E7F1" points="215.852537 9.70280346 197.038128 21.4659446 198.219856 21.2684329 218.329621 9.02337662 215.852537 9.70280346"></polyline>
                    <path d="M221.316693,8.20492294 L201.705219,20.4676918 C202.769309,20.1318216 203.384904,19.9379861 203.384904,19.9379861 C203.384904,19.9379861 203.509226,19.8978823 203.7435,19.8223532 L224.050442,7.45531429 L221.316693,8.20492294" id="Fill-17" fill="#C7E7F1"></path>
                    <path d="M226.688944,6.73210736 L207.958753,18.4427792 C208.726409,18.1877853 209.575274,17.9040502 210.492985,17.5952502 L229.67,5.91465628 L226.688944,6.73210736" id="Fill-18" fill="#C7E7F1"></path>
                    <path d="M187.296558,31.3612468 L183.964592,33.4453126 L184.470904,33.4453126 L188.366997,31.0724987 C187.992694,31.1750978 187.636438,31.2696762 187.296558,31.3612468" id="Fill-19" fill="#C7E7F1"></path>
                    <path d="M192.587264,29.9074805 L186.92827,33.4453126 L187.516126,33.4453126 L193.958149,29.5204779 C193.490604,29.6524866 193.032752,29.78249 192.587264,29.9074805" id="Fill-20" fill="#C7E7F1"></path>
                    <path d="M231.967285,5.28502511 L214.412807,16.2611273 C215.388668,15.9245887 216.407642,15.5716745 217.460703,15.2030528 L235.191972,4.402071 L231.967285,5.28502511" id="Fill-21" fill="#C7E7F1"></path>
                    <path d="M197.959181,28.3698303 L189.842152,33.4453126 L190.50888,33.4453126 L199.659252,27.8698684 C199.084429,28.0399758 198.517628,28.2060727 197.959181,28.3698303" id="Fill-22" fill="#C7E7F1"></path>
                    <path d="M240.53849,2.935271 L237.157732,3.86267359 L221.05067,13.9327619 C222.300575,13.4862719 223.579889,13.0230719 224.875579,12.5481749 L240.550521,2.99676364 C240.545508,2.97704589 240.544171,2.95599134 240.53849,2.935271" id="Fill-23" fill="#C7E7F1"></path>
                    <path d="M240.616358,3.5515342 L228.193174,11.3169853 C229.806687,10.7107481 231.428222,10.0901403 233.03338,9.46151169 L240.013129,5.20849351 C240.406481,4.65238615 240.610677,4.09460779 240.616358,3.5515342" id="Fill-24" fill="#C7E7F1"></path>
                    <path d="M203.436705,26.7355965 L192.703565,33.4453126 L193.450835,33.4453126 L205.508739,26.0976104 C204.813271,26.3138372 204.121479,26.5267221 203.436705,26.7355965" id="Fill-25" fill="#C7E7F1"></path>
                    <polyline id="Fill-26" fill="#C7E7F1" points="208.432313 25.3720641 195.519527 33.4453126 196.343328 33.4453126 209.941557 25.1578424 209.756745 25.1852468 208.432313 25.3720641"></polyline>
                    <path d="M169.562949,51.4021662 L167.015015,52.9949593 C167.035735,53.0039827 167.053113,53.0123377 167.073834,53.0220294 L169.74208,51.3944797 C169.681255,51.3974874 169.623773,51.400161 169.562949,51.4021662" id="Fill-27" fill="#C7E7F1"></path>
                    <path d="M199.591744,32.9463532 C199.591744,32.9463532 199.78959,32.9149385 200.158545,32.8534459 L213.682916,24.6097558 L212.034312,24.8507134 L198.835117,33.103761 C199.318369,33.0031671 199.591744,32.9463532 199.591744,32.9463532" id="Fill-28" fill="#C7E7F1"></path>
                    <path d="M184.957832,41.7778996 L181.931659,43.6711377 L182.273879,43.7560242 L185.706104,41.6629351 C185.449105,41.7027048 185.197787,41.7414719 184.957832,41.7778996" id="Fill-29" fill="#C7E7F1"></path>
                    <path d="M188.601271,41.2024087 L183.875695,44.1570632 L184.259356,44.2526442 L189.50929,41.0523532 C189.199822,41.1031515 188.89804,41.152613 188.601271,41.2024087" id="Fill-30" fill="#C7E7F1"></path>
                    <path d="M172.502565,51.2664814 L168.590429,53.7121506 C168.619505,53.7255186 168.647243,53.7392208 168.677655,53.7522545 L172.776608,51.2527792 C172.684035,51.257458 172.593132,51.2621368 172.502565,51.2664814" id="Fill-31" fill="#C7E7F1"></path>
                    <path d="M204.067673,32.1763584 L217.363785,24.06969 L215.590525,24.329697 L202.632287,32.4303498 C203.069754,32.353484 203.550667,32.2692658 204.067673,32.1763584" id="Fill-32" fill="#C7E7F1"></path>
                    <path d="M192.275122,40.5784589 L185.786312,44.6342996 L186.211747,44.7405749 L193.35258,40.3862944 C192.989306,40.4514632 192.628705,40.516632 192.275122,40.5784589" id="Fill-33" fill="#C7E7F1"></path>
                    <path d="M175.418786,51.1160918 L170.10903,54.4353576 C170.147129,54.4524017 170.185228,54.4724537 170.223995,54.4905004 L175.790416,51.0957056 C175.665425,51.1017212 175.541771,51.1087394 175.418786,51.1160918" id="Fill-34" fill="#C7E7F1"></path>
                    <path d="M208.010554,31.4484727 L220.982159,23.5386476 L219.086916,23.8167013 L206.393365,31.7522597 C206.909702,31.6563446 207.450436,31.5550823 208.010554,31.4484727" id="Fill-35" fill="#C7E7F1"></path>
                    <path d="M211.985519,30.6744675 L224.541046,23.0176312 L222.526494,23.3133974 L210.177501,31.0307238 C210.764689,30.9170961 211.366582,30.7981212 211.985519,30.6744675" id="Fill-36" fill="#C7E7F1"></path>
                    <path d="M195.988074,39.9010372 L187.665848,45.1045177 L187.894106,45.1613316 L188.289129,45.1259065 L197.251013,39.6607481 C196.827248,39.7422926 196.406826,39.823503 195.988074,39.9010372" id="Fill-37" fill="#C7E7F1"></path>
                    <path d="M178.314622,50.950329 L171.565136,55.1695931 C171.610253,55.194658 171.656706,55.2173835 171.701823,55.2414459 L178.785508,50.9215879 C178.627432,50.9316139 178.471027,50.9409714 178.314622,50.950329" id="Fill-38" fill="#C7E7F1"></path>
                    <path d="M215.997245,29.8510009 L228.041113,22.5046355 L225.908589,22.8171117 L213.987371,30.2694182 C214.645075,30.1333991 215.315145,29.9947065 215.997245,29.8510009" id="Fill-39" fill="#C7E7F1"></path>
                    <path d="M200.359399,39.0391377 C200.158545,39.07991 199.960365,39.1206823 199.761183,39.1614545 L190.418312,45.0019186 C190.644899,44.9955688 190.904237,44.9875481 191.196661,44.9788589 L200.903141,39.0568502 L200.359399,39.0391377" id="Fill-40" fill="#C7E7F1"></path>
                    <path d="M181.195752,50.7671879 L173.285593,55.7123325 C173.389863,55.7123325 173.494468,55.7123325 173.598069,55.7123325 L181.76857,50.7290892 C181.577074,50.7414545 181.385912,50.7541541 181.195752,50.7671879" id="Fill-41" fill="#C7E7F1"></path>
                    <path d="M220.061106,28.9687152 L231.485035,21.9989922 L229.237212,22.329181 L217.830327,29.4589853 C218.564229,29.3005749 219.30849,29.1368173 220.061106,28.9687152" id="Fill-42" fill="#C7E7F1"></path>
                    <path d="M184.066857,50.564329 L175.831856,55.7123325 C175.962528,55.7123325 176.092197,55.7123325 176.223203,55.7123325 L184.745281,50.5131965 C184.519029,50.5305749 184.29311,50.547619 184.066857,50.564329" id="Fill-43" fill="#C7E7F1"></path>
                    <path d="M202.410045,39.0979567 L193.111288,44.9113506 C193.390345,44.8996537 193.682435,44.8876225 193.986222,44.8755913 L203.458094,39.0979567 L202.410045,39.0979567" id="Fill-44" fill="#C7E7F1"></path>
                    <path d="M186.938296,50.336071 L178.337347,55.7123325 C178.493418,55.7123325 178.649489,55.7123325 178.805894,55.7123325 L187.729011,50.2675602 C187.465997,50.2906199 187.201645,50.3130113 186.938296,50.336071" id="Fill-45" fill="#C7E7F1"></path>
                    <path d="M204.916873,39.0972883 L195.801591,44.7957177 C196.115739,44.7820156 196.441917,44.7656398 196.774779,44.7482615 L206.03644,39.0972883 L204.916873,39.0972883" id="Fill-46" fill="#C7E7F1"></path>
                    <path d="M224.198826,28.0159134 L234.875152,21.5020381 L232.511361,21.8489368 L221.720739,28.5934095 C222.54053,28.406258 223.367673,28.2134251 224.198826,28.0159134" id="Fill-47" fill="#C7E7F1"></path>
                    <path d="M228.448502,26.9705385 L238.210793,21.0127706 L235.734377,21.3763792 L225.683004,27.6593229 C226.603723,27.4347411 227.526781,27.2054805 228.448502,26.9705385" id="Fill-48" fill="#C7E7F1"></path>
                    <path d="M189.282369,50.4119342 L180.803403,55.7123325 C180.985541,55.7123325 181.166677,55.7123325 181.348816,55.7123325 L189.853181,50.5225541 L189.282369,50.4119342" id="Fill-49" fill="#C7E7F1"></path>
                    <path d="M207.383262,39.0972883 L198.483539,44.6596987 C198.835117,44.6409835 199.19271,44.6212658 199.557321,44.6005455 L208.575016,39.0972883 L207.383262,39.0972883" id="Fill-50" fill="#C7E7F1"></path>
                    <path d="M191.121467,50.7785506 L183.230357,55.7123325 C183.43756,55.7123325 183.644095,55.7123325 183.850965,55.7123325 L191.729041,50.9022043 L191.121467,50.7785506" id="Fill-51" fill="#C7E7F1"></path>
                    <path d="M209.810216,39.0972883 L201.16014,44.5052987 C201.54614,44.4809022 201.939158,44.455503 202.33719,44.4297697 L211.073489,39.0972883 L209.810216,39.0972883" id="Fill-52" fill="#C7E7F1"></path>
                    <path d="M230.564317,26.420781 C231.543186,26.1601056 232.414777,25.8850597 233.190788,25.5986511 L237.683093,22.8568814 C238.105855,22.3238338 238.3037,21.7927913 238.30604,21.2851429 L229.749205,26.634 C230.021577,26.5631498 230.293616,26.4919654 230.564317,26.420781" id="Fill-53" fill="#C7E7F1"></path>
                    <path d="M192.922132,51.1468381 L185.618878,55.7123325 C185.853152,55.7123325 186.085086,55.7123325 186.314681,55.7123325 L193.574823,51.2808519 L192.922132,51.1468381" id="Fill-54" fill="#C7E7F1"></path>
                    <path d="M203.833065,44.327839 C204.255827,44.2987636 204.683268,44.2683515 205.11639,44.2352658 L213.533195,39.0972883 L212.200743,39.0972883 L203.833065,44.327839" id="Fill-55" fill="#C7E7F1"></path>
                    <path d="M207.899266,44.0163654 L215.956807,39.0972883 L214.553505,39.0972883 L206.501645,44.1299931 C206.963508,44.0932312 207.429048,44.0558009 207.899266,44.0163654" id="Fill-56" fill="#C7E7F1"></path>
                    <path d="M194.69439,51.5094442 L187.970971,55.7123325 C188.231647,55.7123325 188.488312,55.7123325 188.7413,55.7123325 L195.391863,51.6524814 L194.69439,51.5094442" id="Fill-57" fill="#C7E7F1"></path>
                    <path d="M196.441917,51.866703 L190.287974,55.7123325 C190.575719,55.7123325 190.85912,55.7123325 191.132495,55.7123325 L197.182502,52.0180952 L196.441917,51.866703" id="Fill-58" fill="#C7E7F1"></path>
                    <path d="M210.689829,43.770729 L218.343323,39.0972883 L216.871176,39.0972883 L209.175572,43.9074165 C209.676871,43.8636364 210.181512,43.8181853 210.689829,43.770729" id="Fill-59" fill="#C7E7F1"></path>
                    <path d="M213.496099,43.4936779 L220.695416,39.0966199 L219.155093,39.0972883 L211.855515,43.6594407 C212.399591,43.6059688 212.947344,43.5504918 213.496099,43.4936779" id="Fill-60" fill="#C7E7F1"></path>
                    <path d="M198.161037,52.2189489 L192.570554,55.7123325 C192.891051,55.7123325 193.197177,55.7123325 193.487597,55.7123325 L198.946071,52.3783619 L198.161037,52.2189489" id="Fill-61" fill="#C7E7F1"></path>
                    <path d="M216.328771,43.1795307 L223.014424,39.0966199 L221.404921,39.0966199 L214.550163,43.3810528 C215.142698,43.315884 215.735901,43.2493784 216.328771,43.1795307" id="Fill-62" fill="#C7E7F1"></path>
                    <path d="M199.856095,52.564845 L194.81938,55.7123325 C195.196357,55.7123325 195.527882,55.7123325 195.80861,55.7123325 L200.684909,52.7346182 L199.856095,52.564845" id="Fill-63" fill="#C7E7F1"></path>
                    <path d="M201.526757,52.9063965 L197.062525,55.6962909 C197.465903,55.6849281 197.849229,55.6638736 198.218854,55.6381403 L202.398348,53.0855273 L201.526757,52.9063965" id="Fill-64" fill="#C7E7F1"></path>
                    <path d="M219.374996,42.7143255 L224.634287,39.5020035 C224.665034,39.3676554 224.685754,39.232639 224.685754,39.0966199 L223.623001,39.0966199 L217.27021,43.0669056 C218.036194,42.9723273 218.732999,42.8523498 219.374996,42.7143255" id="Fill-65" fill="#C7E7F1"></path>
                    <path d="M224.487574,39.9230944 L220.430062,42.4596658 C222.702951,41.8263584 224.023371,40.9103186 224.487574,39.9230944" id="Fill-66" fill="#C7E7F1"></path>
                    <path d="M203.173022,53.2439377 L199.55164,55.5078026 C200.15253,55.4285974 200.696272,55.3293403 201.175848,55.2110338 L203.88921,53.5520693 C203.907591,53.5022736 203.929314,53.4514753 203.941011,53.4006771 L203.173022,53.2439377" id="Fill-67" fill="#C7E7F1"></path>
                    <path d="M165.315946,33.3099619 C164.238154,33.3099619 163.614204,33.7641385 163.199129,34.3834095 L164.535591,34.3840779 C164.420961,34.5678874 164.351782,34.7837801 164.351782,35.0163827 C164.351782,35.6807706 164.890511,36.2198338 165.555233,36.2198338 C166.219621,36.2198338 166.75835,35.6807706 166.75835,35.0163827 C166.75835,34.9863048 166.752,34.958232 166.749661,34.9288225 C167.241268,35.0180537 168.222476,35.1891636 168.767221,35.2326095 C169.422251,35.2850788 169.748764,35.1316814 169.898151,34.8897212 C167.703131,33.9195411 166.393739,33.3099619 165.315946,33.3099619" id="Fill-68" fill="#0079B4"></path>
                    <g id="Group-286" transform="translate(144.374026, 0.000000)">
                        <mask id="mask-2" fill="white">
                            <use xlink:href="#path-1"></use>
                        </mask>
                        <g id="Clip-70"></g>
                        <polygon id="Fill-69" fill="#00A9DC" mask="url(#mask-2)" points="0.117972294 1.39594978 82.4863619 1.39594978 82.4863619 0.0250649351 0.117972294 0.0250649351"></polygon>
                        <polygon id="Fill-71" fill="#00A8DB" mask="url(#mask-2)" points="0.117972294 2.49279134 82.4863619 2.49279134 82.4863619 1.39594978 0.117972294 1.39594978"></polygon>
                        <polygon id="Fill-72" fill="#00A8DB" mask="url(#mask-2)" points="0.117972294 3.04121212 82.4863619 3.04121212 82.4863619 2.49279134 0.117972294 2.49279134"></polygon>
                        <polygon id="Fill-73" fill="#00A7DA" mask="url(#mask-2)" points="0.117972294 3.5896329 82.4863619 3.5896329 82.4863619 3.04121212 0.117972294 3.04121212"></polygon>
                        <polygon id="Fill-74" fill="#00A7DA" mask="url(#mask-2)" points="0.117972294 4.68614026 82.4863619 4.68614026 82.4863619 3.5892987 0.117972294 3.5892987"></polygon>
                        <polygon id="Fill-75" fill="#00A6D9" mask="url(#mask-2)" points="0.117972294 5.23456104 82.4863619 5.23456104 82.4863619 4.68614026 0.117972294 4.68614026"></polygon>
                        <polygon id="Fill-76" fill="#00A5D9" mask="url(#mask-2)" points="0.117972294 5.78298182 82.4863619 5.78298182 82.4863619 5.23456104 0.117972294 5.23456104"></polygon>
                        <polygon id="Fill-77" fill="#00A5D8" mask="url(#mask-2)" points="0.117972294 6.3314026 82.4863619 6.3314026 82.4863619 5.78298182 0.117972294 5.78298182"></polygon>
                        <polygon id="Fill-78" fill="#00A4D8" mask="url(#mask-2)" points="0.117972294 6.87982338 82.4863619 6.87982338 82.4863619 6.3314026 0.117972294 6.3314026"></polygon>
                        <polygon id="Fill-79" fill="#00A4D7" mask="url(#mask-2)" points="0.117972294 7.15386667 82.4863619 7.15386667 82.4863619 6.87982338 0.117972294 6.87982338"></polygon>
                        <polygon id="Fill-80" fill="#00A3D7" mask="url(#mask-2)" points="0.117972294 7.70228745 82.4863619 7.70228745 82.4863619 7.15386667 0.117972294 7.15386667"></polygon>
                        <polygon id="Fill-81" fill="#00A3D6" mask="url(#mask-2)" points="0.117972294 7.97633074 82.4863619 7.97633074 82.4863619 7.70228745 0.117972294 7.70228745"></polygon>
                        <polygon id="Fill-82" fill="#00A2D6" mask="url(#mask-2)" points="0.117972294 8.52475152 82.4863619 8.52475152 82.4863619 7.97633074 0.117972294 7.97633074"></polygon>
                        <polygon id="Fill-83" fill="#00A1D5" mask="url(#mask-2)" points="0.117972294 9.07317229 82.4863619 9.07317229 82.4863619 8.52475152 0.117972294 8.52475152"></polygon>
                        <polygon id="Fill-84" fill="#00A1D5" mask="url(#mask-2)" points="0.117972294 9.62159307 82.4863619 9.62159307 82.4863619 9.07317229 0.117972294 9.07317229"></polygon>
                        <polygon id="Fill-85" fill="#00A0D4" mask="url(#mask-2)" points="0.117972294 10.1700139 82.4863619 10.1700139 82.4863619 9.62159307 0.117972294 9.62159307"></polygon>
                        <polygon id="Fill-86" fill="#00A0D4" mask="url(#mask-2)" points="0.117972294 10.4440571 82.4863619 10.4440571 82.4863619 10.1700139 0.117972294 10.1700139"></polygon>
                        <polygon id="Fill-87" fill="#009FD3" mask="url(#mask-2)" points="0.117972294 10.9924779 82.4863619 10.9924779 82.4863619 10.4440571 0.117972294 10.4440571"></polygon>
                        <polygon id="Fill-88" fill="#009ED3" mask="url(#mask-2)" points="0.117972294 11.2665212 82.4863619 11.2665212 82.4863619 10.9924779 0.117972294 10.9924779"></polygon>
                        <polygon id="Fill-89" fill="#009ED2" mask="url(#mask-2)" points="0.117972294 11.814942 82.4863619 11.814942 82.4863619 11.2665212 0.117972294 11.2665212"></polygon>
                        <polygon id="Fill-90" fill="#009DD2" mask="url(#mask-2)" points="0.117972294 12.3633628 82.4863619 12.3633628 82.4863619 11.814942 0.117972294 11.814942"></polygon>
                        <polygon id="Fill-91" fill="#009DD2" mask="url(#mask-2)" points="0.117972294 12.9117835 82.4863619 12.9117835 82.4863619 12.3633628 0.117972294 12.3633628"></polygon>
                        <polygon id="Fill-92" fill="#009CD1" mask="url(#mask-2)" points="0.117972294 13.1858268 82.4863619 13.1858268 82.4863619 12.9117835 0.117972294 12.9117835"></polygon>
                        <polygon id="Fill-93" fill="#009CD1" mask="url(#mask-2)" points="0.117972294 13.4602043 82.4863619 13.4602043 82.4863619 13.186161 0.117972294 13.186161"></polygon>
                        <polygon id="Fill-94" fill="#009BD0" mask="url(#mask-2)" points="0.117972294 14.0086251 82.4863619 14.0086251 82.4863619 13.4602043 0.117972294 13.4602043"></polygon>
                        <polygon id="Fill-95" fill="#009BD0" mask="url(#mask-2)" points="0.117972294 14.2826684 82.4863619 14.2826684 82.4863619 14.0086251 0.117972294 14.0086251"></polygon>
                        <polygon id="Fill-96" fill="#009ACF" mask="url(#mask-2)" points="0.117972294 14.5570459 82.4863619 14.5570459 82.4863619 14.2830026 0.117972294 14.2830026"></polygon>
                        <polygon id="Fill-97" fill="#0099CF" mask="url(#mask-2)" points="0.117972294 15.1051325 82.4863619 15.1051325 82.4863619 14.5567117 0.117972294 14.5567117"></polygon>
                        <polygon id="Fill-98" fill="#0099CE" mask="url(#mask-2)" points="0.117972294 15.37951 82.4863619 15.37951 82.4863619 15.1054667 0.117972294 15.1054667"></polygon>
                        <polygon id="Fill-99" fill="#0098CE" mask="url(#mask-2)" points="0.117972294 15.6535532 82.4863619 15.6535532 82.4863619 15.37951 0.117972294 15.37951"></polygon>
                        <polygon id="Fill-100" fill="#0098CD" mask="url(#mask-2)" points="0.117972294 16.201974 82.4863619 16.201974 82.4863619 15.6535532 0.117972294 15.6535532"></polygon>
                        <polygon id="Fill-101" fill="#0097CD" mask="url(#mask-2)" points="0.117972294 16.4763515 82.4863619 16.4763515 82.4863619 16.2023082 0.117972294 16.2023082"></polygon>
                        <polygon id="Fill-102" fill="#0097CC" mask="url(#mask-2)" points="0.117972294 16.7503948 82.4863619 16.7503948 82.4863619 16.4763515 0.117972294 16.4763515"></polygon>
                        <polygon id="Fill-103" fill="#0096CC" mask="url(#mask-2)" points="0.117972294 17.2988156 82.4863619 17.2988156 82.4863619 16.7503948 0.117972294 16.7503948"></polygon>
                        <polygon id="Fill-104" fill="#0096CB" mask="url(#mask-2)" points="0.117972294 17.5728589 82.4863619 17.5728589 82.4863619 17.2988156 0.117972294 17.2988156"></polygon>
                        <polygon id="Fill-105" fill="#0095CB" mask="url(#mask-2)" points="0.117972294 18.1212797 82.4863619 18.1212797 82.4863619 17.5728589 0.117972294 17.5728589"></polygon>
                        <polygon id="Fill-106" fill="#0095CA" mask="url(#mask-2)" points="0.117972294 18.3956571 82.4863619 18.3956571 82.4863619 18.1216139 0.117972294 18.1216139"></polygon>
                        <polygon id="Fill-107" fill="#0094CA" mask="url(#mask-2)" points="0.117972294 18.6697004 82.4863619 18.6697004 82.4863619 18.3956571 0.117972294 18.3956571"></polygon>
                        <polygon id="Fill-108" fill="#0094CA" mask="url(#mask-2)" points="0.117972294 19.2181212 82.4863619 19.2181212 82.4863619 18.6697004 0.117972294 18.6697004"></polygon>
                        <polygon id="Fill-109" fill="#0093C9" mask="url(#mask-2)" points="0.117972294 19.4921645 82.4863619 19.4921645 82.4863619 19.2181212 0.117972294 19.2181212"></polygon>
                        <polygon id="Fill-110" fill="#0093C9" mask="url(#mask-2)" points="0.117972294 19.766542 82.4863619 19.766542 82.4863619 19.4924987 0.117972294 19.4924987"></polygon>
                        <polygon id="Fill-111" fill="#0092C8" mask="url(#mask-2)" points="0.117972294 20.3149628 82.4863619 20.3149628 82.4863619 19.766542 0.117972294 19.766542"></polygon>
                        <polygon id="Fill-112" fill="#0091C8" mask="url(#mask-2)" points="0.117972294 20.5890061 82.4863619 20.5890061 82.4863619 20.3149628 0.117972294 20.3149628"></polygon>
                        <polygon id="Fill-113" fill="#0091C7" mask="url(#mask-2)" points="0.117972294 20.8630494 82.4863619 20.8630494 82.4863619 20.5890061 0.117972294 20.5890061"></polygon>
                        <polygon id="Fill-114" fill="#0090C7" mask="url(#mask-2)" points="0.117972294 21.4114701 82.4863619 21.4114701 82.4863619 20.8630494 0.117972294 20.8630494"></polygon>
                        <polygon id="Fill-115" fill="#0090C7" mask="url(#mask-2)" points="0.117972294 21.6858476 82.4863619 21.6858476 82.4863619 21.4118043 0.117972294 21.4118043"></polygon>
                        <polygon id="Fill-116" fill="#008FC6" mask="url(#mask-2)" points="0.117972294 21.9598909 82.4863619 21.9598909 82.4863619 21.6858476 0.117972294 21.6858476"></polygon>
                        <polygon id="Fill-117" fill="#008FC6" mask="url(#mask-2)" points="0.117972294 22.5083117 82.4863619 22.5083117 82.4863619 21.9598909 0.117972294 21.9598909"></polygon>
                        <polygon id="Fill-118" fill="#008EC5" mask="url(#mask-2)" points="0.117972294 22.782355 82.4863619 22.782355 82.4863619 22.5083117 0.117972294 22.5083117"></polygon>
                        <polygon id="Fill-119" fill="#008EC5" mask="url(#mask-2)" points="0.117972294 23.0567325 82.4863619 23.0567325 82.4863619 22.7826892 0.117972294 22.7826892"></polygon>
                        <polygon id="Fill-120" fill="#008DC5" mask="url(#mask-2)" points="0.117972294 23.3307758 82.4863619 23.3307758 82.4863619 23.0567325 0.117972294 23.0567325"></polygon>
                        <polygon id="Fill-121" fill="#008DC4" mask="url(#mask-2)" points="0.117972294 23.6051532 82.4863619 23.6051532 82.4863619 23.33111 0.117972294 23.33111"></polygon>
                        <polygon id="Fill-122" fill="#008CC4" mask="url(#mask-2)" points="0.117972294 23.8791965 82.4863619 23.8791965 82.4863619 23.6051532 0.117972294 23.6051532"></polygon>
                        <polygon id="Fill-123" fill="#008CC3" mask="url(#mask-2)" points="0.117972294 24.4276173 82.4863619 24.4276173 82.4863619 23.8791965 0.117972294 23.8791965"></polygon>
                        <polygon id="Fill-124" fill="#008BC3" mask="url(#mask-2)" points="0.117972294 24.7016606 82.4863619 24.7016606 82.4863619 24.4276173 0.117972294 24.4276173"></polygon>
                        <polygon id="Fill-125" fill="#008BC2" mask="url(#mask-2)" points="0.117972294 24.9760381 82.4863619 24.9760381 82.4863619 24.7019948 0.117972294 24.7019948"></polygon>
                        <polygon id="Fill-126" fill="#008AC2" mask="url(#mask-2)" points="0.117972294 25.5244589 82.4863619 25.5244589 82.4863619 24.9760381 0.117972294 24.9760381"></polygon>
                        <polygon id="Fill-127" fill="#008AC2" mask="url(#mask-2)" points="0.117972294 25.7985022 82.4863619 25.7985022 82.4863619 25.5244589 0.117972294 25.5244589"></polygon>
                        <polygon id="Fill-128" fill="#008AC1" mask="url(#mask-2)" points="0.117972294 26.0725455 82.4863619 26.0725455 82.4863619 25.7985022 0.117972294 25.7985022"></polygon>
                        <polygon id="Fill-129" fill="#0089C1" mask="url(#mask-2)" points="0.117972294 26.3469229 82.4863619 26.3469229 82.4863619 26.0728797 0.117972294 26.0728797"></polygon>
                        <polygon id="Fill-130" fill="#0089C0" mask="url(#mask-2)" points="0.117972294 26.6209662 82.4863619 26.6209662 82.4863619 26.3469229 0.117972294 26.3469229"></polygon>
                        <polygon id="Fill-131" fill="#0088C0" mask="url(#mask-2)" points="0.117972294 26.8953437 82.4863619 26.8953437 82.4863619 26.6213004 0.117972294 26.6213004"></polygon>
                        <polygon id="Fill-132" fill="#0087C0" mask="url(#mask-2)" points="0.117972294 27.169387 82.4863619 27.169387 82.4863619 26.8953437 0.117972294 26.8953437"></polygon>
                        <polygon id="Fill-133" fill="#0087BF" mask="url(#mask-2)" points="0.117972294 27.7178078 82.4863619 27.7178078 82.4863619 27.169387 0.117972294 27.169387"></polygon>
                        <polygon id="Fill-134" fill="#0086BF" mask="url(#mask-2)" points="0.117972294 27.9918511 82.4863619 27.9918511 82.4863619 27.7178078 0.117972294 27.7178078"></polygon>
                        <polygon id="Fill-135" fill="#0086BE" mask="url(#mask-2)" points="0.117972294 28.2662286 82.4863619 28.2662286 82.4863619 27.9921853 0.117972294 27.9921853"></polygon>
                        <polygon id="Fill-136" fill="#0086BE" mask="url(#mask-2)" points="0.117972294 28.5402719 82.4863619 28.5402719 82.4863619 28.2662286 0.117972294 28.2662286"></polygon>
                        <polygon id="Fill-137" fill="#0085BE" mask="url(#mask-2)" points="0.117972294 28.8146494 82.4863619 28.8146494 82.4863619 28.5406061 0.117972294 28.5406061"></polygon>
                        <polygon id="Fill-138" fill="#0085BD" mask="url(#mask-2)" points="0.117972294 29.0886926 82.4863619 29.0886926 82.4863619 28.8146494 0.117972294 28.8146494"></polygon>
                        <polygon id="Fill-139" fill="#0084BD" mask="url(#mask-2)" points="0.117972294 29.3630701 82.4863619 29.3630701 82.4863619 29.0890268 0.117972294 29.0890268"></polygon>
                        <polygon id="Fill-140" fill="#0084BC" mask="url(#mask-2)" points="0.117972294 29.6371134 82.4863619 29.6371134 82.4863619 29.3630701 0.117972294 29.3630701"></polygon>
                        <polygon id="Fill-141" fill="#0083BC" mask="url(#mask-2)" points="0.117972294 29.9111567 82.4863619 29.9111567 82.4863619 29.6371134 0.117972294 29.6371134"></polygon>
                        <polygon id="Fill-142" fill="#0083BC" mask="url(#mask-2)" points="0.117972294 30.1855342 82.4863619 30.1855342 82.4863619 29.9114909 0.117972294 29.9114909"></polygon>
                        <polygon id="Fill-143" fill="#0082BB" mask="url(#mask-2)" points="0.117972294 30.733955 82.4863619 30.733955 82.4863619 30.1855342 0.117972294 30.1855342"></polygon>
                        <polygon id="Fill-144" fill="#0082BB" mask="url(#mask-2)" points="0.117972294 31.0079983 82.4863619 31.0079983 82.4863619 30.733955 0.117972294 30.733955"></polygon>
                        <polygon id="Fill-145" fill="#0082BB" mask="url(#mask-2)" points="0.117972294 31.2823758 82.4863619 31.2823758 82.4863619 31.0083325 0.117972294 31.0083325"></polygon>
                        <polygon id="Fill-146" fill="#0081BA" mask="url(#mask-2)" points="0.117972294 31.556419 82.4863619 31.556419 82.4863619 31.2823758 0.117972294 31.2823758"></polygon>
                        <polygon id="Fill-147" fill="#0081BA" mask="url(#mask-2)" points="0.117972294 31.8304623 82.4863619 31.8304623 82.4863619 31.556419 0.117972294 31.556419"></polygon>
                        <polygon id="Fill-148" fill="#0080B9" mask="url(#mask-2)" points="0.117972294 32.1048398 82.4863619 32.1048398 82.4863619 31.8307965 0.117972294 31.8307965"></polygon>
                        <polygon id="Fill-149" fill="#0080B9" mask="url(#mask-2)" points="0.117972294 32.3788831 82.4863619 32.3788831 82.4863619 32.1048398 0.117972294 32.1048398"></polygon>
                        <polygon id="Fill-150" fill="#007FB9" mask="url(#mask-2)" points="0.117972294 32.6532606 82.4863619 32.6532606 82.4863619 32.3792173 0.117972294 32.3792173"></polygon>
                        <polygon id="Fill-151" fill="#007FB8" mask="url(#mask-2)" points="0.117972294 32.9273039 82.4863619 32.9273039 82.4863619 32.6532606 0.117972294 32.6532606"></polygon>
                        <polygon id="Fill-152" fill="#007EB8" mask="url(#mask-2)" points="0.117972294 33.2016814 82.4863619 33.2016814 82.4863619 32.9276381 0.117972294 32.9276381"></polygon>
                        <polygon id="Fill-153" fill="#007EB8" mask="url(#mask-2)" points="0.117972294 33.4757247 82.4863619 33.4757247 82.4863619 33.2016814 0.117972294 33.2016814"></polygon>
                        <polygon id="Fill-154" fill="#007EB7" mask="url(#mask-2)" points="0.117972294 33.749768 82.4863619 33.749768 82.4863619 33.4757247 0.117972294 33.4757247"></polygon>
                        <polygon id="Fill-155" fill="#007DB7" mask="url(#mask-2)" points="0.117972294 34.0241455 82.4863619 34.0241455 82.4863619 33.7501022 0.117972294 33.7501022"></polygon>
                        <polygon id="Fill-156" fill="#007DB6" mask="url(#mask-2)" points="0.117972294 34.2981887 82.4863619 34.2981887 82.4863619 34.0241455 0.117972294 34.0241455"></polygon>
                        <polygon id="Fill-157" fill="#007CB6" mask="url(#mask-2)" points="0.117972294 34.5725662 82.4863619 34.5725662 82.4863619 34.2985229 0.117972294 34.2985229"></polygon>
                        <polygon id="Fill-158" fill="#007CB6" mask="url(#mask-2)" points="0.117972294 34.8466095 82.4863619 34.8466095 82.4863619 34.5725662 0.117972294 34.5725662"></polygon>
                        <polygon id="Fill-159" fill="#007BB5" mask="url(#mask-2)" points="0.117972294 35.3950303 82.4863619 35.3950303 82.4863619 34.8466095 0.117972294 34.8466095"></polygon>
                        <polygon id="Fill-160" fill="#007BB5" mask="url(#mask-2)" points="0.117972294 35.6690736 82.4863619 35.6690736 82.4863619 35.3950303 0.117972294 35.3950303"></polygon>
                        <polygon id="Fill-161" fill="#007AB5" mask="url(#mask-2)" points="0.117972294 35.9434511 82.4863619 35.9434511 82.4863619 35.6694078 0.117972294 35.6694078"></polygon>
                        <polygon id="Fill-162" fill="#007AB4" mask="url(#mask-2)" points="0.117972294 36.2174944 82.4863619 36.2174944 82.4863619 35.9434511 0.117972294 35.9434511"></polygon>
                        <polygon id="Fill-163" fill="#007AB4" mask="url(#mask-2)" points="0.117972294 36.4918719 82.4863619 36.4918719 82.4863619 36.2178286 0.117972294 36.2178286"></polygon>
                        <polygon id="Fill-164" fill="#0079B3" mask="url(#mask-2)" points="0.117972294 37.0402926 82.4863619 37.0402926 82.4863619 36.4918719 0.117972294 36.4918719"></polygon>
                        <polygon id="Fill-165" fill="#0079B3" mask="url(#mask-2)" points="0.117972294 37.3143359 82.4863619 37.3143359 82.4863619 37.0402926 0.117972294 37.0402926"></polygon>
                        <polygon id="Fill-166" fill="#0078B3" mask="url(#mask-2)" points="0.117972294 37.5883792 82.4863619 37.5883792 82.4863619 37.3143359 0.117972294 37.3143359"></polygon>
                        <polygon id="Fill-167" fill="#0078B2" mask="url(#mask-2)" points="0.117972294 37.8627567 82.4863619 37.8627567 82.4863619 37.5887134 0.117972294 37.5887134"></polygon>
                        <polygon id="Fill-168" fill="#0077B2" mask="url(#mask-2)" points="0.117972294 38.1368 82.4863619 38.1368 82.4863619 37.8627567 0.117972294 37.8627567"></polygon>
                        <polygon id="Fill-169" fill="#0077B1" mask="url(#mask-2)" points="0.117972294 38.4111775 82.4863619 38.4111775 82.4863619 38.1371342 0.117972294 38.1371342"></polygon>
                        <polygon id="Fill-170" fill="#0076B1" mask="url(#mask-2)" points="0.117972294 38.6852208 82.4863619 38.6852208 82.4863619 38.4111775 0.117972294 38.4111775"></polygon>
                        <polygon id="Fill-171" fill="#0076B0" mask="url(#mask-2)" points="0.117972294 38.9592641 82.4863619 38.9592641 82.4863619 38.6852208 0.117972294 38.6852208"></polygon>
                        <polygon id="Fill-172" fill="#0075B0" mask="url(#mask-2)" points="0.117972294 39.2336416 82.4863619 39.2336416 82.4863619 38.9595983 0.117972294 38.9595983"></polygon>
                        <polygon id="Fill-173" fill="#0075B0" mask="url(#mask-2)" points="0.117972294 39.5076848 82.4863619 39.5076848 82.4863619 39.2336416 0.117972294 39.2336416"></polygon>
                        <polygon id="Fill-174" fill="#0074AF" mask="url(#mask-2)" points="0.117972294 39.7820623 82.4863619 39.7820623 82.4863619 39.508019 0.117972294 39.508019"></polygon>
                        <polygon id="Fill-175" fill="#0074AF" mask="url(#mask-2)" points="0.117972294 40.0561056 82.4863619 40.0561056 82.4863619 39.7820623 0.117972294 39.7820623"></polygon>
                        <polygon id="Fill-176" fill="#0073AE" mask="url(#mask-2)" points="0.117972294 40.3304831 82.4863619 40.3304831 82.4863619 40.0564398 0.117972294 40.0564398"></polygon>
                        <polygon id="Fill-177" fill="#0072AE" mask="url(#mask-2)" points="0.117972294 40.6045264 82.4863619 40.6045264 82.4863619 40.3304831 0.117972294 40.3304831"></polygon>
                        <polygon id="Fill-178" fill="#0072AD" mask="url(#mask-2)" points="0.117972294 40.8785697 82.4863619 40.8785697 82.4863619 40.6045264 0.117972294 40.6045264"></polygon>
                        <polygon id="Fill-179" fill="#0072AD" mask="url(#mask-2)" points="0.117972294 41.1529472 82.4863619 41.1529472 82.4863619 40.8789039 0.117972294 40.8789039"></polygon>
                        <polygon id="Fill-180" fill="#0071AD" mask="url(#mask-2)" points="0.117972294 41.4269905 82.4863619 41.4269905 82.4863619 41.1529472 0.117972294 41.1529472"></polygon>
                        <polygon id="Fill-181" fill="#0071AC" mask="url(#mask-2)" points="0.117972294 41.701368 82.4863619 41.701368 82.4863619 41.4273247 0.117972294 41.4273247"></polygon>
                        <polygon id="Fill-182" fill="#006FAB" mask="url(#mask-2)" points="0.117972294 41.9754113 82.4863619 41.9754113 82.4863619 41.701368 0.117972294 41.701368"></polygon>
                        <polygon id="Fill-183" fill="#006FAB" mask="url(#mask-2)" points="0.117972294 42.2497887 82.4863619 42.2497887 82.4863619 41.9757455 0.117972294 41.9757455"></polygon>
                        <polygon id="Fill-184" fill="#006EAA" mask="url(#mask-2)" points="0.117972294 42.523832 82.4863619 42.523832 82.4863619 42.2497887 0.117972294 42.2497887"></polygon>
                        <polygon id="Fill-185" fill="#006EAA" mask="url(#mask-2)" points="0.117972294 42.7978753 82.4863619 42.7978753 82.4863619 42.523832 0.117972294 42.523832"></polygon>
                        <polygon id="Fill-186" fill="#006DAA" mask="url(#mask-2)" points="0.117972294 43.0722528 82.4863619 43.0722528 82.4863619 42.7982095 0.117972294 42.7982095"></polygon>
                        <polygon id="Fill-187" fill="#006DA9" mask="url(#mask-2)" points="0.117972294 43.3462961 82.4863619 43.3462961 82.4863619 43.0722528 0.117972294 43.0722528"></polygon>
                        <polygon id="Fill-188" fill="#006CA9" mask="url(#mask-2)" points="0.117972294 43.6206736 82.4863619 43.6206736 82.4863619 43.3466303 0.117972294 43.3466303"></polygon>
                        <polygon id="Fill-189" fill="#006CA8" mask="url(#mask-2)" points="0.117972294 43.8947169 82.4863619 43.8947169 82.4863619 43.6206736 0.117972294 43.6206736"></polygon>
                        <polygon id="Fill-190" fill="#006BA8" mask="url(#mask-2)" points="0.117972294 44.1690944 82.4863619 44.1690944 82.4863619 43.8950511 0.117972294 43.8950511"></polygon>
                        <polygon id="Fill-191" fill="#006BA7" mask="url(#mask-2)" points="0.117972294 44.4431377 82.4863619 44.4431377 82.4863619 44.1690944 0.117972294 44.1690944"></polygon>
                        <polygon id="Fill-192" fill="#006AA7" mask="url(#mask-2)" points="0.117972294 44.717181 82.4863619 44.717181 82.4863619 44.4431377 0.117972294 44.4431377"></polygon>
                        <polygon id="Fill-193" fill="#006AA7" mask="url(#mask-2)" points="0.117972294 44.9915584 82.4863619 44.9915584 82.4863619 44.7175152 0.117972294 44.7175152"></polygon>
                        <polygon id="Fill-194" fill="#0069A6" mask="url(#mask-2)" points="0.117972294 45.2656017 82.4863619 45.2656017 82.4863619 44.9915584 0.117972294 44.9915584"></polygon>
                        <polygon id="Fill-195" fill="#0069A6" mask="url(#mask-2)" points="0.117972294 45.5399792 82.4863619 45.5399792 82.4863619 45.2659359 0.117972294 45.2659359"></polygon>
                        <polygon id="Fill-196" fill="#0068A5" mask="url(#mask-2)" points="0.117972294 45.8140225 82.4863619 45.8140225 82.4863619 45.5399792 0.117972294 45.5399792"></polygon>
                        <polygon id="Fill-197" fill="#0068A5" mask="url(#mask-2)" points="0.117972294 46.0884 82.4863619 46.0884 82.4863619 45.8143567 0.117972294 45.8143567"></polygon>
                        <polygon id="Fill-198" fill="#0067A5" mask="url(#mask-2)" points="0.117972294 46.3624433 82.4863619 46.3624433 82.4863619 46.0884 0.117972294 46.0884"></polygon>
                        <polygon id="Fill-199" fill="#0067A4" mask="url(#mask-2)" points="0.117972294 46.6364866 82.4863619 46.6364866 82.4863619 46.3624433 0.117972294 46.3624433"></polygon>
                        <polygon id="Fill-200" fill="#0066A4" mask="url(#mask-2)" points="0.117972294 46.9108641 82.4863619 46.9108641 82.4863619 46.6368208 0.117972294 46.6368208"></polygon>
                        <polygon id="Fill-201" fill="#0066A3" mask="url(#mask-2)" points="0.117972294 47.1849074 82.4863619 47.1849074 82.4863619 46.9108641 0.117972294 46.9108641"></polygon>
                        <polygon id="Fill-202" fill="#0065A3" mask="url(#mask-2)" points="0.117972294 47.4592848 82.4863619 47.4592848 82.4863619 47.1852416 0.117972294 47.1852416"></polygon>
                        <polygon id="Fill-203" fill="#0065A3" mask="url(#mask-2)" points="0.117972294 47.7333281 82.4863619 47.7333281 82.4863619 47.4592848 0.117972294 47.4592848"></polygon>
                        <polygon id="Fill-204" fill="#0064A2" mask="url(#mask-2)" points="0.117972294 48.0077056 82.4863619 48.0077056 82.4863619 47.7336623 0.117972294 47.7336623"></polygon>
                        <polygon id="Fill-205" fill="#0064A2" mask="url(#mask-2)" points="0.117972294 48.2817489 82.4863619 48.2817489 82.4863619 48.0077056 0.117972294 48.0077056"></polygon>
                        <polygon id="Fill-206" fill="#0063A1" mask="url(#mask-2)" points="0.117972294 48.5557922 82.4863619 48.5557922 82.4863619 48.2817489 0.117972294 48.2817489"></polygon>
                        <polygon id="Fill-207" fill="#0063A1" mask="url(#mask-2)" points="0.117972294 48.8301697 82.4863619 48.8301697 82.4863619 48.5561264 0.117972294 48.5561264"></polygon>
                        <polygon id="Fill-208" fill="#0062A1" mask="url(#mask-2)" points="0.117972294 49.104213 82.4863619 49.104213 82.4863619 48.8301697 0.117972294 48.8301697"></polygon>
                        <polygon id="Fill-209" fill="#0062A0" mask="url(#mask-2)" points="0.117972294 49.3785905 82.4863619 49.3785905 82.4863619 49.1045472 0.117972294 49.1045472"></polygon>
                        <polygon id="Fill-210" fill="#0061A0" mask="url(#mask-2)" points="0.117972294 49.6526338 82.4863619 49.6526338 82.4863619 49.3785905 0.117972294 49.3785905"></polygon>
                        <polygon id="Fill-211" fill="#0061A0" mask="url(#mask-2)" points="0.117972294 49.9270113 82.4863619 49.9270113 82.4863619 49.652968 0.117972294 49.652968"></polygon>
                        <polygon id="Fill-212" fill="#00609F" mask="url(#mask-2)" points="0.117972294 50.2010545 82.4863619 50.2010545 82.4863619 49.9270113 0.117972294 49.9270113"></polygon>
                        <polygon id="Fill-213" fill="#00609F" mask="url(#mask-2)" points="0.117972294 50.4750978 82.4863619 50.4750978 82.4863619 50.2010545 0.117972294 50.2010545"></polygon>
                        <polygon id="Fill-214" fill="#005F9F" mask="url(#mask-2)" points="0.117972294 50.7494753 82.4863619 50.7494753 82.4863619 50.475432 0.117972294 50.475432"></polygon>
                        <polygon id="Fill-215" fill="#005F9E" mask="url(#mask-2)" points="0.117972294 51.0235186 82.4863619 51.0235186 82.4863619 50.7494753 0.117972294 50.7494753"></polygon>
                        <polygon id="Fill-216" fill="#005F9E" mask="url(#mask-2)" points="0.117972294 51.2978961 82.4863619 51.2978961 82.4863619 51.0238528 0.117972294 51.0238528"></polygon>
                        <polygon id="Fill-217" fill="#005E9D" mask="url(#mask-2)" points="0.117972294 51.5719394 82.4863619 51.5719394 82.4863619 51.2978961 0.117972294 51.2978961"></polygon>
                        <polygon id="Fill-218" fill="#005D9D" mask="url(#mask-2)" points="0.117972294 51.8459827 82.4863619 51.8459827 82.4863619 51.5719394 0.117972294 51.5719394"></polygon>
                        <polygon id="Fill-219" fill="#005D9D" mask="url(#mask-2)" points="0.117972294 52.1203602 82.4863619 52.1203602 82.4863619 51.8463169 0.117972294 51.8463169"></polygon>
                        <polygon id="Fill-220" fill="#005C9C" mask="url(#mask-2)" points="0.117972294 52.3944035 82.4863619 52.3944035 82.4863619 52.1203602 0.117972294 52.1203602"></polygon>
                        <polygon id="Fill-221" fill="#005C9C" mask="url(#mask-2)" points="0.117972294 52.668781 82.4863619 52.668781 82.4863619 52.3947377 0.117972294 52.3947377"></polygon>
                        <polygon id="Fill-222" fill="#005B9B" mask="url(#mask-2)" points="0.117972294 52.9428242 82.4863619 52.9428242 82.4863619 52.668781 0.117972294 52.668781"></polygon>
                        <polygon id="Fill-223" fill="#005B9B" mask="url(#mask-2)" points="0.117972294 53.2172017 82.4863619 53.2172017 82.4863619 52.9431584 0.117972294 52.9431584"></polygon>
                        <polygon id="Fill-224" fill="#005A9B" mask="url(#mask-2)" points="0.117972294 53.491245 82.4863619 53.491245 82.4863619 53.2172017 0.117972294 53.2172017"></polygon>
                        <polygon id="Fill-225" fill="#005A9A" mask="url(#mask-2)" points="0.117972294 53.7652883 82.4863619 53.7652883 82.4863619 53.491245 0.117972294 53.491245"></polygon>
                        <polygon id="Fill-226" fill="#00599A" mask="url(#mask-2)" points="0.117972294 54.0396658 82.4863619 54.0396658 82.4863619 53.7656225 0.117972294 53.7656225"></polygon>
                        <polygon id="Fill-227" fill="#00599A" mask="url(#mask-2)" points="0.117972294 54.3137091 82.4863619 54.3137091 82.4863619 54.0396658 0.117972294 54.0396658"></polygon>
                        <polygon id="Fill-228" fill="#005999" mask="url(#mask-2)" points="0.117972294 54.5880866 82.4863619 54.5880866 82.4863619 54.3140433 0.117972294 54.3140433"></polygon>
                        <polygon id="Fill-229" fill="#005899" mask="url(#mask-2)" points="0.117972294 54.8621299 82.4863619 54.8621299 82.4863619 54.5880866 0.117972294 54.5880866"></polygon>
                        <polygon id="Fill-230" fill="#025798" mask="url(#mask-2)" points="0.117972294 55.1365074 82.4863619 55.1365074 82.4863619 54.8624641 0.117972294 54.8624641"></polygon>
                        <polygon id="Fill-231" fill="#035798" mask="url(#mask-2)" points="0.117972294 55.4105506 82.4863619 55.4105506 82.4863619 55.1365074 0.117972294 55.1365074"></polygon>
                        <polygon id="Fill-232" fill="#045698" mask="url(#mask-2)" points="0.117972294 55.6845939 82.4863619 55.6845939 82.4863619 55.4105506 0.117972294 55.4105506"></polygon>
                        <polygon id="Fill-233" fill="#065697" mask="url(#mask-2)" points="0.117972294 55.9589714 82.4863619 55.9589714 82.4863619 55.6849281 0.117972294 55.6849281"></polygon>
                        <polygon id="Fill-234" fill="#045597" mask="url(#mask-2)" points="0.117972294 56.2330147 82.4863619 56.2330147 82.4863619 55.9589714 0.117972294 55.9589714"></polygon>
                        <polygon id="Fill-235" fill="#055596" mask="url(#mask-2)" points="0.117972294 56.5073922 82.4863619 56.5073922 82.4863619 56.2333489 0.117972294 56.2333489"></polygon>
                        <polygon id="Fill-236" fill="#065496" mask="url(#mask-2)" points="0.117972294 56.7814355 82.4863619 56.7814355 82.4863619 56.5073922 0.117972294 56.5073922"></polygon>
                        <polygon id="Fill-237" fill="#085496" mask="url(#mask-2)" points="0.117972294 57.055813 82.4863619 57.055813 82.4863619 56.7817697 0.117972294 56.7817697"></polygon>
                        <polygon id="Fill-238" fill="#095395" mask="url(#mask-2)" points="0.117972294 57.3298563 82.4863619 57.3298563 82.4863619 57.055813 0.117972294 57.055813"></polygon>
                        <polygon id="Fill-239" fill="#0B5395" mask="url(#mask-2)" points="0.117972294 57.6038996 82.4863619 57.6038996 82.4863619 57.3298563 0.117972294 57.3298563"></polygon>
                        <polygon id="Fill-240" fill="#0C5294" mask="url(#mask-2)" points="0.117972294 57.8782771 82.4863619 57.8782771 82.4863619 57.6042338 0.117972294 57.6042338"></polygon>
                        <polygon id="Fill-241" fill="#0D5294" mask="url(#mask-2)" points="0.117972294 58.1523203 82.4863619 58.1523203 82.4863619 57.8782771 0.117972294 57.8782771"></polygon>
                        <polygon id="Fill-242" fill="#0C5193" mask="url(#mask-2)" points="0.117972294 58.4266978 82.4863619 58.4266978 82.4863619 58.1526545 0.117972294 58.1526545"></polygon>
                        <polygon id="Fill-243" fill="#0E5093" mask="url(#mask-2)" points="0.117972294 58.7007411 82.4863619 58.7007411 82.4863619 58.4266978 0.117972294 58.4266978"></polygon>
                        <polygon id="Fill-244" fill="#0F5092" mask="url(#mask-2)" points="0.117972294 58.9751186 82.4863619 58.9751186 82.4863619 58.7010753 0.117972294 58.7010753"></polygon>
                        <polygon id="Fill-245" fill="#104F92" mask="url(#mask-2)" points="0.117972294 59.2491619 82.4863619 59.2491619 82.4863619 58.9751186 0.117972294 58.9751186"></polygon>
                        <polygon id="Fill-246" fill="#114F91" mask="url(#mask-2)" points="0.117972294 59.5232052 82.4863619 59.5232052 82.4863619 59.2491619 0.117972294 59.2491619"></polygon>
                        <polygon id="Fill-247" fill="#124E91" mask="url(#mask-2)" points="0.117972294 59.7975827 82.4863619 59.7975827 82.4863619 59.5235394 0.117972294 59.5235394"></polygon>
                        <polygon id="Fill-248" fill="#124E91" mask="url(#mask-2)" points="0.117972294 60.071626 82.4863619 60.071626 82.4863619 59.7975827 0.117972294 59.7975827"></polygon>
                        <polygon id="Fill-249" fill="#134E90" mask="url(#mask-2)" points="0.117972294 60.3460035 82.4863619 60.3460035 82.4863619 60.0719602 0.117972294 60.0719602"></polygon>
                        <polygon id="Fill-250" fill="#124D90" mask="url(#mask-2)" points="0.117972294 60.6200468 82.4863619 60.6200468 82.4863619 60.3460035 0.117972294 60.3460035"></polygon>
                        <polygon id="Fill-251" fill="#124D90" mask="url(#mask-2)" points="0.117972294 60.8944242 82.4863619 60.8944242 82.4863619 60.620381 0.117972294 60.620381"></polygon>
                        <polygon id="Fill-252" fill="#144C8F" mask="url(#mask-2)" points="0.117972294 61.1684675 82.4863619 61.1684675 82.4863619 60.8944242 0.117972294 60.8944242"></polygon>
                        <polygon id="Fill-253" fill="#154B8E" mask="url(#mask-2)" points="0.117972294 61.4425108 82.4863619 61.4425108 82.4863619 61.1684675 0.117972294 61.1684675"></polygon>
                        <polygon id="Fill-254" fill="#154B8E" mask="url(#mask-2)" points="0.117972294 61.7168883 82.4863619 61.7168883 82.4863619 61.442845 0.117972294 61.442845"></polygon>
                        <polygon id="Fill-255" fill="#164A8E" mask="url(#mask-2)" points="0.117972294 61.9909316 82.4863619 61.9909316 82.4863619 61.7168883 0.117972294 61.7168883"></polygon>
                        <polygon id="Fill-256" fill="#18498D" mask="url(#mask-2)" points="0.117972294 62.2653091 82.4863619 62.2653091 82.4863619 61.9912658 0.117972294 61.9912658"></polygon>
                        <polygon id="Fill-257" fill="#18498D" mask="url(#mask-2)" points="0.117972294 62.5393524 82.4863619 62.5393524 82.4863619 62.2653091 0.117972294 62.2653091"></polygon>
                        <polygon id="Fill-258" fill="#18488C" mask="url(#mask-2)" points="0.117972294 62.8137299 82.4863619 62.8137299 82.4863619 62.5396866 0.117972294 62.5396866"></polygon>
                        <polygon id="Fill-259" fill="#18488C" mask="url(#mask-2)" points="0.117972294 63.0877732 82.4863619 63.0877732 82.4863619 62.8137299 0.117972294 62.8137299"></polygon>
                        <polygon id="Fill-260" fill="#19478C" mask="url(#mask-2)" points="0.117972294 63.3618165 82.4863619 63.3618165 82.4863619 63.0877732 0.117972294 63.0877732"></polygon>
                        <polygon id="Fill-261" fill="#1A478B" mask="url(#mask-2)" points="0.117972294 63.6361939 82.4863619 63.6361939 82.4863619 63.3621506 0.117972294 63.3621506"></polygon>
                        <polygon id="Fill-262" fill="#1A468B" mask="url(#mask-2)" points="0.117972294 63.9102372 82.4863619 63.9102372 82.4863619 63.6361939 0.117972294 63.6361939"></polygon>
                        <polygon id="Fill-263" fill="#1B468B" mask="url(#mask-2)" points="0.117972294 64.1846147 82.4863619 64.1846147 82.4863619 63.9105714 0.117972294 63.9105714"></polygon>
                        <polygon id="Fill-264" fill="#1C458A" mask="url(#mask-2)" points="0.117972294 64.458658 82.4863619 64.458658 82.4863619 64.1846147 0.117972294 64.1846147"></polygon>
                        <polygon id="Fill-265" fill="#1D4489" mask="url(#mask-2)" points="0.117972294 64.7330355 82.4863619 64.7330355 82.4863619 64.4589922 0.117972294 64.4589922"></polygon>
                        <polygon id="Fill-266" fill="#1C4489" mask="url(#mask-2)" points="0.117972294 65.0070788 82.4863619 65.0070788 82.4863619 64.7330355 0.117972294 64.7330355"></polygon>
                        <polygon id="Fill-267" fill="#1D4389" mask="url(#mask-2)" points="0.117972294 65.2811221 82.4863619 65.2811221 82.4863619 65.0070788 0.117972294 65.0070788"></polygon>
                        <polygon id="Fill-268" fill="#1D4388" mask="url(#mask-2)" points="0.117972294 65.5554996 82.4863619 65.5554996 82.4863619 65.2814563 0.117972294 65.2814563"></polygon>
                        <polygon id="Fill-269" fill="#1E4288" mask="url(#mask-2)" points="0.117972294 65.8295429 82.4863619 65.8295429 82.4863619 65.5554996 0.117972294 65.5554996"></polygon>
                        <polygon id="Fill-270" fill="#1F4187" mask="url(#mask-2)" points="0.117972294 66.1039203 82.4863619 66.1039203 82.4863619 65.8298771 0.117972294 65.8298771"></polygon>
                        <polygon id="Fill-271" fill="#1F4187" mask="url(#mask-2)" points="0.117972294 66.3779636 82.4863619 66.3779636 82.4863619 66.1039203 0.117972294 66.1039203"></polygon>
                        <polygon id="Fill-272" fill="#204087" mask="url(#mask-2)" points="0.117972294 66.6520069 82.4863619 66.6520069 82.4863619 66.3779636 0.117972294 66.3779636"></polygon>
                        <polygon id="Fill-273" fill="#213F86" mask="url(#mask-2)" points="0.117972294 66.9263844 82.4863619 66.9263844 82.4863619 66.6523411 0.117972294 66.6523411"></polygon>
                        <polygon id="Fill-274" fill="#203F86" mask="url(#mask-2)" points="0.117972294 67.2004277 82.4863619 67.2004277 82.4863619 66.9263844 0.117972294 66.9263844"></polygon>
                        <polygon id="Fill-275" fill="#213E85" mask="url(#mask-2)" points="0.117972294 67.4748052 82.4863619 67.4748052 82.4863619 67.2007619 0.117972294 67.2007619"></polygon>
                        <polygon id="Fill-276" fill="#213E85" mask="url(#mask-2)" points="0.117972294 67.7488485 82.4863619 67.7488485 82.4863619 67.4748052 0.117972294 67.4748052"></polygon>
                        <polygon id="Fill-277" fill="#223D85" mask="url(#mask-2)" points="0.117972294 68.023226 82.4863619 68.023226 82.4863619 67.7491827 0.117972294 67.7491827"></polygon>
                        <polygon id="Fill-278" fill="#223C84" mask="url(#mask-2)" points="0.117972294 68.2972693 82.4863619 68.2972693 82.4863619 68.023226 0.117972294 68.023226"></polygon>
                        <polygon id="Fill-279" fill="#233C84" mask="url(#mask-2)" points="0.117972294 68.5713126 82.4863619 68.5713126 82.4863619 68.2972693 0.117972294 68.2972693"></polygon>
                        <polygon id="Fill-280" fill="#233B83" mask="url(#mask-2)" points="0.117972294 68.84569 82.4863619 68.84569 82.4863619 68.5716468 0.117972294 68.5716468"></polygon>
                        <polygon id="Fill-281" fill="#243B83" mask="url(#mask-2)" points="0.117972294 69.1197333 82.4863619 69.1197333 82.4863619 68.84569 0.117972294 68.84569"></polygon>
                        <polygon id="Fill-282" fill="#233A82" mask="url(#mask-2)" points="0.117972294 69.3941108 82.4863619 69.3941108 82.4863619 69.1200675 0.117972294 69.1200675"></polygon>
                        <polygon id="Fill-283" fill="#233A82" mask="url(#mask-2)" points="0.117972294 69.6681541 82.4863619 69.6681541 82.4863619 69.3941108 0.117972294 69.3941108"></polygon>
                        <polygon id="Fill-284" fill="#243982" mask="url(#mask-2)" points="0.117972294 69.9425316 82.4863619 69.9425316 82.4863619 69.6684883 0.117972294 69.6684883"></polygon>
                        <polygon id="Fill-285" fill="#243981" mask="url(#mask-2)" points="0.117972294 70.2165749 82.4863619 70.2165749 82.4863619 69.9425316 0.117972294 69.9425316"></polygon>
                    </g>
                    <path d="M194.978459,49.7545645 L198.377932,47.6922216 C198.444104,47.5645576 198.500249,47.4345541 198.535006,47.3005403 L197.88031,47.1367827 L192.992648,50.1926996 C193.726883,50.0667065 194.388932,49.9203273 194.978459,49.7545645 Z M190.859455,50.4817818 L196.812878,46.8697576 L195.851053,46.6291342 L189.468184,50.6198061 C189.937399,50.5750234 190.401936,50.5289039 190.859455,50.4817818 Z M187.387794,50.8089628 L194.736833,46.3504121 L193.814109,46.1198147 L186.146578,50.9132329 C186.561988,50.8791446 186.976061,50.8443879 187.387794,50.8089628 Z M174.208317,58.8050113 L176.040062,57.6934649 C175.966539,57.5901974 175.882655,57.4882667 175.792087,57.3870043 L173.523877,58.8050113 C173.755477,58.8050113 173.983735,58.8050113 174.208317,58.8050113 Z M207.097856,38.0606026 C207.990836,37.84471 208.806951,37.609768 209.555223,37.3604554 L214.676156,34.2534061 C214.955212,33.8232918 215.104599,33.3828173 215.104599,32.9376641 L214.898732,32.9376641 L206.461875,38.2126632 C206.674092,38.1621991 206.886308,38.1117351 207.097856,38.0606026 Z M204.435626,38.6815446 L213.902485,32.9376641 L212.040996,32.9376641 L201.996641,39.2169316 C202.807074,39.0441506 203.621183,38.8656883 204.435626,38.6815446 Z M171.268701,58.8050113 L174.912474,56.594284 C174.806868,56.513742 174.697584,56.4338684 174.584291,56.354329 L170.664469,58.8050113 C170.865657,58.8050113 171.066845,58.8050113 171.268701,58.8050113 Z M184.000017,51.0806667 L192.654438,45.8297299 L191.772487,45.6088242 L182.890476,51.1615429 C183.259766,51.1354753 183.629725,51.1084052 184.000017,51.0806667 Z M180.672397,51.3132693 L190.569704,45.308045 L189.727856,45.0974996 L179.683167,51.3771013 C180.011016,51.356381 180.340871,51.3349922 180.672397,51.3132693 Z M168.325744,58.8050113 L173.504159,55.6625368 C173.388861,55.5943602 173.272894,55.5261835 173.154253,55.4586753 L167.802388,58.8050113 C167.973498,58.8050113 168.148284,58.8050113 168.325744,58.8050113 Z M199.879823,39.6590771 L210.956519,32.9376641 L209.17858,32.9376641 L197.74663,40.0848468 C198.450119,39.9474909 199.161964,39.8054563 199.879823,39.6590771 Z M177.394906,51.5157939 L188.483967,44.7866944 L187.684563,44.5865091 L176.519972,51.5659238 C176.808386,51.5498823 177.100142,51.5331723 177.394906,51.5157939 Z M165.270829,58.8728537 L171.969183,54.8079896 C171.855555,54.7478338 171.740256,54.6873437 171.623621,54.6268537 L164.777552,58.906942 C164.940975,58.8945766 165.104064,58.8825455 165.270829,58.8728537 Z M195.537574,40.5066061 L208.010888,32.9376641 L206.317835,32.9376641 L193.659041,40.8514996 C194.273633,40.7408797 194.900256,40.625581 195.537574,40.5066061 Z M191.359416,41.2568831 L205.067931,32.9376641 L203.461101,32.9376641 L189.70346,41.5382788 C190.238847,41.4487134 190.792281,41.3548035 191.359416,41.2568831 Z M174.161529,51.6935879 L186.401572,44.2656779 L185.643943,44.076187 L173.396547,51.7326892 C173.647531,51.7199896 173.90219,51.7069558 174.161529,51.6935879 Z M161.562222,59.3393957 L170.368369,53.9952173 C170.257081,53.9410771 170.146126,53.8869368 170.035172,53.8334649 L161.031513,59.4627152 C161.205631,59.4196035 161.381754,59.3778286 161.562222,59.3393957 Z M170.972267,51.8493247 L184.323856,43.7456641 L183.609004,43.5672017 L170.312558,51.8790684 C170.526111,51.8697108 170.746014,51.8596848 170.972267,51.8493247 Z M187.321623,41.9269524 L202.133328,32.9376641 L200.612054,32.9376641 L185.866854,42.1555446 C186.326377,42.0846944 186.812971,42.0081628 187.321623,41.9269524 Z M157.21663,60.197619 L168.723775,53.2138597 C168.6175,53.1643983 168.512895,53.1159394 168.409628,53.0691515 L157.150459,60.1073853 C157.172516,60.1374632 157.194573,60.1675411 157.21663,60.197619 Z M218.111723,22.4598528 C221.653231,21.1979169 223.823855,19.5559965 224.578142,17.9558511 L216.421344,23.0550615 C216.987143,22.857884 217.551271,22.6597039 218.111723,22.4598528 Z M214.279461,23.7916364 L224.77933,17.4184589 C224.883934,17.0358009 224.909333,16.6581558 224.847506,16.2918736 L224.241603,16.3934701 L210.289124,25.1153991 C211.618568,24.6836139 212.952023,24.2418026 214.279461,23.7916364 Z M167.272682,52.0060641 C167.440784,52.0000485 167.627602,51.9923619 167.82879,51.9846753 L182.255164,43.2283238 L181.583423,43.0602216 L167.272682,52.0060641 Z M156.337352,58.8421074 C156.353728,58.8711827 156.370104,58.8999238 156.38648,58.9289991 L167.051442,52.4558961 C166.946838,52.4094424 166.849252,52.3663307 166.759352,52.3268952 L156.337352,58.8421074 Z M183.413498,42.5251688 L199.210088,32.9376641 L197.776374,32.9376641 L182.148554,42.7069732 C182.504476,42.6565091 182.927906,42.596019 183.413498,42.5251688 Z M155.7251,57.5671377 L196.302222,32.9376641 L194.955399,32.9376641 L155.691345,57.4822511 C155.702374,57.510658 155.713737,57.5390649 155.7251,57.5671377 Z M207.954409,25.8646736 L223.298828,16.5512121 L220.388287,17.0391429 L204.585347,26.9180693 C205.694888,26.5761835 206.820471,26.2249403 207.954409,25.8646736 Z M155.239508,56.0134459 C155.245858,56.0415186 155.252208,56.0699255 155.258892,56.0983325 L175.18351,44.0036658 C174.951242,44.0036658 174.707276,44.0036658 174.451948,44.0036658 L155.239508,56.0134459 Z M178.434599,42.0302199 L193.413739,32.9376641 L192.154476,32.9373299 L178.622419,41.3965784 C178.575297,41.6121368 178.512133,41.824019 178.434599,42.0302199 Z M202.066488,27.6850563 L219.305482,17.220613 L216.562042,17.680471 L199.18235,28.5442823 C200.122786,28.2675654 201.08528,27.9808225 202.066488,27.6850563 Z M178.706637,40.1259532 L190.547647,32.9373299 L189.376947,32.9373299 L178.640132,39.6490511 C178.671881,39.8077957 178.693603,39.9668745 178.706637,40.1259532 Z M196.493718,29.3279792 L215.344554,17.8843325 L212.767879,18.3161177 L194.020978,30.0348104 C194.816038,29.8095602 195.641844,29.5736156 196.493718,29.3279792 Z M171.674085,44.0036658 L155.000222,54.4263342 C155.002561,54.4554095 155.004232,54.484819 155.006571,54.5135602 L172.319089,44.0036658 C172.105536,44.0036658 171.890312,44.0036658 171.674085,44.0036658 Z M168.92396,44.0036658 L155.007574,52.7022009 C155.004232,52.7336156 155.00089,52.7653645 154.997548,52.796445 L169.481404,44.0036658 C169.29325,44.0036658 169.106767,44.0036658 168.92396,44.0036658 Z M178.306267,38.6461195 L187.708959,32.9373299 L186.627157,32.9373299 L178.1004,38.2674719 C178.176263,38.3921281 178.245108,38.5184554 178.306267,38.6461195 Z M191.178949,30.8308727 L211.420722,18.5420364 L209.010478,18.9457489 L189.069484,31.4107082 C189.728525,31.2312433 190.433016,31.0374078 191.178949,30.8308727 Z M166.065221,44.0905576 L155.570365,50.6505524 C155.55165,50.6933299 155.533269,50.7361074 155.515223,50.7788848 L166.60796,44.0441039 C166.425822,44.0564693 166.24502,44.0725108 166.065221,44.0905576 Z M177.160632,37.1552571 C177.269247,37.2515065 177.371846,37.349761 177.468095,37.4500208 L184.901018,32.9373299 L183.907778,32.9373299 L177.160632,37.1552571 Z M186.098119,32.210781 L207.540336,19.1923879 L205.29552,19.5683619 L184.323188,32.6779913 C184.77703,32.5596848 185.374244,32.4029455 186.098119,32.210781 Z M176.260968,36.5002268 L203.708074,19.8343844 L201.628019,20.1829541 L175.871626,36.2826632 C176.006642,36.3525108 176.136312,36.425032 176.260968,36.5002268 Z M161.550525,45.234187 L157.907754,47.5114199 C157.772738,47.6327342 157.641397,47.7563879 157.514068,47.882381 L162.439829,44.8916329 C162.13671,44.997574 161.840275,45.1115359 161.550525,45.234187 Z M174.721647,35.7740121 L199.928282,20.4676918 L198.01399,20.7885229 L174.305903,35.6079152 C174.445932,35.6633922 174.585294,35.7188693 174.721647,35.7740121 Z M220.633924,5.16939221 C220.447775,5.24024242 220.248258,5.31577143 220.04072,5.39397403 L211.097217,10.9837887 C213.373448,9.97550996 215.670064,8.93982684 217.947297,7.88977316 L225.136255,3.52412987 C225.520584,3.08432381 225.816016,2.64318095 226.022885,2.20838788 C225.493848,3.00344762 224.32649,3.76308225 220.633924,5.16939221 Z M173.082734,35.1346892 L196.208312,21.0913074 L194.457442,21.3847342 L172.694061,34.9879758 C172.817714,35.0344294 172.948052,35.0835567 173.082734,35.1346892 Z M213.850684,7.66519134 L202.730208,14.6158649 C204.406216,13.9020156 206.124668,13.1627671 207.867851,12.4027983 C211.650317,10.1058476 215.221903,7.93656104 218.404147,6.00422165 C217.132185,6.47443983 215.608906,7.03021299 213.850684,7.66519134 Z M171.679098,34.3804017 C177.905228,30.5989385 185.208816,26.1637818 192.552507,21.7038944 L190.964059,21.9702511 L171.856558,33.9131913 C171.818793,34.0789541 171.761311,34.2346909 171.679098,34.3804017 Z M171.059158,33.1802926 L188.965882,22.3051186 L187.53952,22.544071 L170.80383,33.0045039 C170.890054,33.0619861 170.974606,33.1211394 171.059158,33.1802926 Z M207.974461,9.77164848 L195.117152,17.8078009 C196.394795,17.2801004 197.72591,16.7266667 199.0988,16.1508416 L211.932381,8.35631515 C210.705202,8.79712381 209.381439,9.27034978 207.974461,9.77164848 Z M202.304772,11.7821905 L188.073236,20.6775688 C189.031051,20.2925714 190.060384,19.8764935 191.148871,19.4340139 L205.762731,10.558019 C204.654526,10.9513714 203.503879,11.3587602 202.304772,11.7821905 Z M169.817609,32.3902459 L185.452781,22.8936433 L184.188506,23.1055255 L169.564286,32.2462061 C169.649172,32.2933281 169.73339,32.341787 169.817609,32.3902459 Z M196.819562,13.7138615 L181.529952,23.2702857 C182.117808,23.0410251 182.896158,22.7365697 183.839936,22.3639377 L199.81432,12.6608 C198.841467,13.0036883 197.842545,13.3545974 196.819562,13.7138615 Z M168.238518,31.5774736 C168.320731,31.6149039 168.40261,31.6526684 168.484488,31.6911013 L182.020556,23.4688 L180.916028,23.6539463 L168.238518,31.5774736 Z M191.510809,15.5736797 L166.824855,31.0026511 C166.902055,31.0303896 166.979255,31.0584623 167.056121,31.0872035 L194.067098,14.6790286 C193.228592,14.9727896 192.37839,15.2702268 191.510809,15.5736797 Z M186.379181,17.363316 L165.317283,30.5270857 C165.386797,30.5461351 165.456644,30.5651844 165.525823,30.5849022 L188.514379,16.6193887 C187.81089,16.8646909 187.09938,17.1126667 186.379181,17.363316 Z M181.427352,19.0837732 L163.708114,30.1584641 C163.766599,30.1694926 163.825418,30.1808554 163.883903,30.1925524 L183.157167,18.4835515 C182.585352,18.6820658 182.00819,18.8822511 181.427352,19.0837732 Z M177.673628,20.4690286 L162.115655,29.9218511 C162.071875,29.9168381 162.028095,29.9114909 161.984315,29.9068121 L175.977567,21.161155 C176.53334,20.9272156 177.097468,20.696284 177.673628,20.4690286 L177.673628,20.4690286 Z" id="Fill-287" fill="#00B8E0"></path>
                    <path d="M174.292869,64.3624087 C174.638765,64.3624087 174.844632,64.1933039 174.844632,63.9286182 L174.844632,63.9135792 C174.844632,63.6341887 174.638765,63.4801229 174.292869,63.4801229 L173.601745,63.4801229 L173.601745,64.3624087 L174.292869,64.3624087 Z M173.072374,63.001884 L174.315261,63.001884 C174.682545,63.001884 174.969623,63.1121697 175.160784,63.3033316 C175.307832,63.4430268 175.388708,63.6415411 175.388708,63.8841697 L175.388708,63.8992087 C175.388708,64.3477039 175.124023,64.6270944 174.741365,64.7373801 L175.491642,65.7887706 L174.859337,65.7887706 L174.182584,64.8252745 L173.601745,64.8252745 L173.601745,65.7887706 L173.072374,65.7887706 L173.072374,63.001884 Z M176.528661,64.4726944 L176.528661,64.4579896 C176.528661,63.1415792 175.506346,62.075484 174.153174,62.075484 C172.792984,62.075484 171.763316,63.156284 171.763316,64.4726944 L171.763316,64.4873991 C171.763316,65.8034753 172.785631,66.8699048 174.138803,66.8699048 C175.498994,66.8699048 176.528661,65.7887706 176.528661,64.4726944 Z M171.483926,64.4873991 L171.483926,64.4726944 C171.483926,63.0239411 172.660641,61.8107983 174.153174,61.8107983 C175.646042,61.8107983 176.808052,63.0095706 176.808052,64.4579896 L176.808052,64.4726944 C176.808052,65.9214476 175.631337,67.1349247 174.138803,67.1349247 C172.645936,67.1349247 171.483926,65.9361524 171.483926,64.4873991 L171.483926,64.4873991 Z" id="Fill-288" fill="#00A9DC"></path>
                    <polyline id="Fill-289" fill="#005093" points="42.617742 67.155645 45.4871758 67.155645 47.0625905 78.8502753 52.6721229 67.155645 55.6749022 67.155645 47.6039931 82.7707654 45.2017697 82.7707654 42.617742 67.155645"></polyline>
                    <path d="M60.4215325,78.4071273 L60.5776035,77.4549939 C60.0057887,77.2330857 59.1926823,77.0562944 58.4584468,77.0562944 C57.680097,77.0562944 57.0965853,77.2999255 56.7035671,77.7206823 C56.3102147,78.141439 56.1120346,78.8058268 56.1588225,79.4708831 C56.2236571,80.4009593 56.8456017,81.0208987 57.8020797,81.0208987 C59.1809853,81.0208987 60.1842511,79.7803515 60.4215325,78.4071273 Z M53.5527377,79.7365714 C53.4688537,78.5401385 53.7930268,77.4549939 54.5379567,76.657929 C55.3052779,75.8601957 56.4960294,75.3949905 57.8973264,75.3949905 C59.0095411,75.3949905 59.9610061,75.6386216 60.85031,75.9490926 L60.8984346,75.6830701 C60.9575879,75.2623134 60.9966892,74.8636139 60.9716242,74.5090286 C60.9097974,73.6230667 60.3085732,72.9807359 58.7959879,72.9807359 C57.8839584,72.9807359 57.0113645,73.2243671 56.1925766,73.6010095 L55.442968,71.4745004 C56.4352052,71.0320208 57.6366511,70.7215498 59.0603394,70.7215498 C61.7964277,70.7215498 63.3721766,71.9400398 63.5132087,73.9555948 C63.5599965,74.6199827 63.4761126,75.328819 63.3300675,76.104161 L62.2322234,82.6601455 L59.6518719,82.6601455 L59.9085368,81.2424727 C59.1331948,82.2390545 58.1549939,82.8813853 56.8425939,82.8813853 C54.9740866,82.8813853 53.6827411,81.5967238 53.5527377,79.7365714 L53.5527377,79.7365714 Z" id="Fill-290" fill="#005093"></path>
                    <path d="M67.1880623,70.854561 L69.8128623,70.854561 L69.5976381,72.2277853 C70.2934407,71.3638805 71.2432346,70.632987 72.5776918,70.632987 C74.3573022,70.632987 75.6172329,71.7849714 75.7535861,73.7340208 C75.7940242,74.3095117 75.6940987,75.1069108 75.5527325,75.9490926 L74.4214684,82.6601455 L71.7518857,82.6601455 L72.9249247,75.90431 C73.0418944,75.3508762 73.0489126,74.8191654 73.0288606,74.5314199 C72.9603498,73.556561 72.3895377,73.0251844 71.3886113,73.0251844 C70.1427169,73.0251844 69.2193247,74.1327203 68.9883931,75.5945074 L67.7481801,82.6601455 L65.1230459,82.6601455 L67.1880623,70.854561" id="Fill-291" fill="#005093"></path>
                    <polyline id="Fill-292" fill="#005093" points="83.6777818 67.155645 86.3914788 67.155645 84.1259429 80.2238338 90.71 80.2238338 90.2354372 82.6601455 80.9597403 82.6601455 83.6777818 67.155645"></polyline>
                    <path d="M95.274826,66.6463255 L98.0777541,66.6463255 L97.5681004,69.2153143 L94.7875636,69.2153143 L95.274826,66.6463255 Z M94.6131117,70.854561 L97.2379117,70.854561 L95.1728952,82.6601455 L92.5260381,82.6601455 L94.6131117,70.854561 L94.6131117,70.854561 Z" id="Fill-293" fill="#005093"></path>
                    <path d="M100.374036,70.854561 L102.998836,70.854561 L102.783612,72.2277853 C103.479415,71.3638805 104.429209,70.632987 105.763666,70.632987 C107.543276,70.632987 108.802873,71.7849714 108.93956,73.7340208 C108.979998,74.3095117 108.879739,75.1069108 108.738706,75.9490926 L107.607108,82.6601455 L104.93786,82.6601455 L106.110899,75.90431 C106.227534,75.3508762 106.234887,74.8191654 106.214835,74.5314199 C106.146324,73.556561 105.575512,73.0251844 104.574585,73.0251844 C103.328691,73.0251844 102.405299,74.1327203 102.174367,75.5945074 L100.934154,82.6601455 L98.3090199,82.6601455 L100.374036,70.854561" id="Fill-294" fill="#005093"></path>
                    <path d="M113.566213,75.9711498 L118.459891,75.9711498 C118.543106,75.5724502 118.545446,75.2843706 118.514365,74.8412225 C118.433489,73.6895723 117.791827,72.7815532 116.568324,72.7815532 C115.812031,72.7815532 115.168029,73.1137472 114.67141,73.6451238 C114.154069,74.1988918 113.768069,75.0407394 113.566213,75.9711498 Z M113.420502,77.6986251 L113.432868,77.8754165 C113.55719,79.6476745 114.501971,80.7552104 115.992499,80.7552104 C116.993425,80.7552104 117.680204,80.4009593 118.459891,79.7803515 L119.742213,81.5746667 C118.773035,82.3500087 117.587297,82.8813853 116.029929,82.8813853 C113.09399,82.8813853 111.179363,80.9543931 110.963804,77.8754165 C110.818094,75.79369 111.515901,73.6895723 112.798892,72.3163481 C113.750691,71.2977091 114.994246,70.632987 116.595728,70.632987 C119.10924,70.632987 120.792267,72.4273022 120.970395,74.9742338 C121.024869,75.7492416 120.956358,76.6796519 120.649564,77.6986251 L113.420502,77.6986251 L113.420502,77.6986251 Z" id="Fill-295" fill="#005093"></path>
                    <path d="M121.906821,80.732819 L123.374623,79.138355 C124.523266,80.2900052 125.540568,80.843439 126.541829,80.843439 C127.409075,80.843439 128.058424,80.2679481 128.006958,79.5370545 C127.960838,78.8726667 127.486275,78.4515758 126.067266,77.5659481 C124.370871,76.5245835 123.507635,75.6386216 123.408377,74.2212831 C123.276369,72.3384052 124.717435,70.6771013 127.230613,70.6771013 C128.898935,70.6771013 130.380106,71.4965576 131.381032,72.4493593 L130.032539,74.1547775 C128.915645,73.1361385 128.105881,72.6926563 127.238634,72.6926563 C126.415501,72.6926563 125.853713,73.2467584 125.902171,73.9332035 C125.94662,74.5755342 126.373726,74.9518424 127.837184,75.8381385 C129.743456,77.0118459 130.435917,78.0084277 130.524145,79.271032 C130.665177,81.286587 129.019915,82.8813853 126.617358,82.8813853 C124.838081,82.8813853 123.225236,82.0839861 121.906821,80.732819" id="Fill-296" fill="#005093"></path>
                </g>
            </g>
        </g>
    </g>
</svg>