<svg id="Layer_1" data-name="Layer 1" xmlns="http://www.w3.org/2000/svg" xmlns:xlink="http://www.w3.org/1999/xlink"
     viewBox="0 0 1038.19 398.64">
    <defs>
        <style>
            .cls-1,.cls-13,.cls-16,.cls-17,.cls-18,.cls-19,.cls-20,.cls-28,.cls-29,.cls-30,.cls-31,.cls-32,.cls-34,.cls-35,.cls-4,.cls-5,.cls-8{fill:none;}.cls-2{clip-path:url(#clip-path);}.cls-3{fill:#fff;}.cls-13,.cls-16,.cls-17,.cls-18,.cls-28,.cls-29,.cls-30,.cls-31,.cls-32,.cls-34,.cls-35,.cls-4,.cls-5,.cls-8{stroke:#0098ff;}.cls-17,.cls-18,.cls-19,.cls-28,.cls-29,.cls-30,.cls-31,.cls-32,.cls-34,.cls-35,.cls-4,.cls-5,.cls-8{stroke-miterlimit:10;}.cls-4{stroke-width:0.53px;}.cls-5{stroke-width:0.61px;}.cls-6{clip-path:url(#clip-path-2);}.cls-7{clip-path:url(#clip-path-3);}.cls-16,.cls-8{stroke-width:0.53px;}.cls-9{clip-path:url(#clip-path-4);}.cls-10{clip-path:url(#clip-path-5);}.cls-11{clip-path:url(#clip-path-6);}.cls-12{clip-path:url(#clip-path-7);}.cls-13,.cls-16{stroke-linejoin:bevel;}.cls-13,.cls-35{stroke-width:0.64px;}.cls-14{clip-path:url(#clip-path-8);}.cls-15{clip-path:url(#clip-path-9);}.cls-17{stroke-width:0.61px;}.cls-18{stroke-width:0.58px;}.cls-19,.cls-20{stroke:#00a0ff;stroke-width:0.51px;}.cls-20{stroke-linejoin:round;}.cls-21{fill:#005aa9;}.cls-22{fill:#7ed2f6;}.cls-23{fill:#c6e9fa;}.cls-24{fill:#0082c8;}.cls-25{fill:url(#linear-gradient);}.cls-26{fill:#00bff2;}.cls-27{fill:#00b2ef;}.cls-28{stroke-width:0.46px;}.cls-29{stroke-width:0.57px;}.cls-30{stroke-width:0.55px;}.cls-31{stroke-width:0.5px;}.cls-32{stroke-width:0.76px;}.cls-33{clip-path:url(#clip-path-10);}.cls-34{stroke-width:0.43px;}
        </style>
        <clipPath id="clip-path">
            <path class="cls-1"
                  d="M300.47,187.14c1.87,1.88,25.35-.47,25.35-.47L333.33,197,347,183.39s17.84-31.93,15.5-32.4-35.22-.47-38-.94-26.29,14.56-26.29,14.56Z"/>
        </clipPath>
        <clipPath id="clip-path-2">
            <polygon class="cls-1"
                     points="423.49 192.78 407.99 192.78 404.71 184.33 395.31 183.39 405.18 164.61 420.67 173.06 423.49 192.78"/>
        </clipPath>
        <clipPath id="clip-path-3">
            <polygon class="cls-1"
                     points="425.37 194.19 435.23 201.7 434.76 217.66 447.44 213.91 449.78 186.68 430.53 191.84 425.37 194.19"/>
        </clipPath>
        <clipPath id="clip-path-4">
            <path class="cls-1"
                  d="M553.55,203.81c1.41,0,22.31,1.88,22.31,1.88l4.93-.7,9.62,5.87,2.59,8.92,1.87-3.05,23-13.15,18.78-20.43-25.82-18.07-35.69,5.4-41.32,11.73Z"/>
        </clipPath>
        <clipPath id="clip-path-5">
            <polygon class="cls-1"
                     points="531.25 220.6 531.25 214.26 544.28 200.88 530.9 176.23 501.67 184.33 508.01 211.44 528.08 225.88 531.25 220.6"/>
        </clipPath>
        <clipPath id="clip-path-6">
            <path class="cls-1"
                  d="M107.48,217.67s9.16-5.4,11.39-6.23,19.6,4.35,19.6,4.35l-10.8-40.85s-21.6,8.92-22.07,10.33-5.16,31-5.16,31Z"/>
        </clipPath>
        <clipPath id="clip-path-7">
            <polygon class="cls-1"
                     points="668.38 203.53 677.25 205.92 682.72 205.24 682.03 210.7 692.96 206.94 687.49 184.41 674.18 185.1 668.38 203.53"/>
        </clipPath>
        <clipPath id="clip-path-8">
            <path class="cls-1"
                  d="M235.67,235.51,267.13,243l6.1-25.82s-24.88-8.46-26.29-8.46S235.67,235.51,235.67,235.51Z"/>
        </clipPath>
        <clipPath id="clip-path-9">
            <path class="cls-1"
                  d="M1046,129.25c0-.81-132-1.08-246.19-.94-1.26,0,2.27,20.6,1,20.6-9.33,0-23,1.4-32.43.34-.69-.07-.34-4.37-1-4.43-2.46-.24-2.45.33-4.78.34-67.66.14-124.26-16.34-126.57-15.91,59.73-10.94,90.73-142.4,156.85-240.15L1020-20.37l27,105.27Z"/>
        </clipPath>
        <linearGradient id="linear-gradient" x1="980.93" y1="258.86" x2="980.93" y2="268.8"
                        gradientTransform="matrix(-1, 0.25, 0, 1, 1479.06, -222.5)" gradientUnits="userSpaceOnUse">
            <stop offset="0" stop-color="#00b2ef"/>
            <stop offset="0.15" stop-color="#03a9e8"/>
            <stop offset="0.4" stop-color="#0a91d6"/>
            <stop offset="0.72" stop-color="#1669b8"/>
            <stop offset="1" stop-color="#224099"/>
        </linearGradient>
        <clipPath id="clip-path-10">
            <path class="cls-1"
                  d="M935.77,220l-.47-9.86L925,208.74l5.16-18.31s12.21-8,13.62-7,8.92,8.92,9.39,10.33-2.81,21.6-4.22,21.6-5.17-.47-5.17-.47Z"/>
        </clipPath>
    </defs>
    <g class="cls-2">
        <path class="cls-3" d="M323.87,196.24c15,0,15-15.49,0-28.17C307.44,183.1,310.73,196.24,323.87,196.24Z"/>
        <line class="cls-4" x1="323.87" y1="202.82" x2="323.87" y2="183.1"/>
        <line class="cls-4" x1="318.71" y1="186.38" x2="323.4" y2="192.49"/>
        <line class="cls-4" x1="323.87" y1="188.26" x2="330.21" y2="181.92"/>
        <path class="cls-4" d="M323.87,196.24c15,0,15-15.49,0-28.17C307.44,183.1,310.73,196.24,323.87,196.24Z"/>
    </g>
    <polygon class="cls-5"
             points="113.5 204.52 97.53 195.13 76.49 189.96 61.85 201.7 76.4 205.93 71.24 209.68 91.43 215.32 113.5 204.52"/>
    <polyline class="cls-5"
              points="97.53 195.13 91.43 215.32 83.44 199.82 71.24 209.68 71.24 217.66 92.37 223.3 112.56 214.85 112.56 204.52"/>
    <polyline class="cls-5" points="61.85 201.7 61.85 212.5 71.71 215.32"/>
    <line class="cls-5" x1="83.45" y1="199.82" x2="89.55" y2="197.94"/>
    <g class="cls-6">
        <path class="cls-3" d="M406,202.82c15,0,15-15.5,0-28.18C389.61,189.67,392.9,202.82,406,202.82Z"/>
        <line class="cls-4" x1="406.04" y1="209.39" x2="406.04" y2="189.67"/>
        <line class="cls-4" x1="400.88" y1="192.96" x2="405.57" y2="199.06"/>
        <line class="cls-4" x1="406.04" y1="194.83" x2="412.38" y2="188.5"/>
        <path class="cls-4" d="M406,202.82c15,0,15-15.5,0-28.18C389.61,189.67,392.9,202.82,406,202.82Z"/>
    </g>
    <g class="cls-7">
        <path class="cls-3"
              d="M435.18,213.77c9,0,10.23-7.93,3.81-15.75a4.8,4.8,0,0,0-7.48,0C424.44,206.78,427.19,213.77,435.18,213.77Z"/>
        <path class="cls-4"
              d="M435.18,213.77c9,0,10.25-8,3.69-15.89a4.73,4.73,0,0,0-7.26,0C424.41,206.72,427.15,213.77,435.18,213.77Z"/>
        <path class="cls-4" d="M438.79,204.93a2.68,2.68,0,0,0,4.22,0"/>
        <path class="cls-4" d="M435,206.81c2.35,2.35,5.63,0,5.63,0"/>
    </g>
    <path class="cls-8" d="M372.31,214.38c0-.94-13.15-13.15-13.15-13.15v-10.8l10.8-7,33.81.47,9.39,17.37"/>
    <polyline class="cls-8" points="359.16 190.43 372.31 200.76 434.76 202.17"/>
    <polyline class="cls-8"
              points="408.46 192.78 423.49 192.78 435.23 201.7 434.29 214.85 408.46 214.38 372.31 214.38 372.31 200.76 369.96 183.39"/>
    <g class="cls-9">
        <path class="cls-3" d="M590.5,201.06c15,0,14.56-.94,0-28.18C577.35,200.12,577.35,201.06,590.5,201.06Z"/>
        <line class="cls-4" x1="590.5" y1="207.63" x2="590.5" y2="187.91"/>
        <line class="cls-4" x1="586.28" y1="194.01" x2="590.03" y2="197.3"/>
        <line class="cls-4" x1="590.5" y1="193.07" x2="594.73" y2="185.09"/>
        <path class="cls-4" d="M590.5,201.06c15,0,14.56-.94,0-28.18C577.35,200.12,577.35,201.06,590.5,201.06Z"/>
        <path class="cls-3" d="M605.37,206.81c15,0,15-15.5,0-28.18C588.93,193.66,592.22,206.81,605.37,206.81Z"/>
        <line class="cls-4" x1="605.37" y1="213.38" x2="605.37" y2="193.66"/>
        <line class="cls-4" x1="600.2" y1="196.95" x2="604.9" y2="203.05"/>
        <line class="cls-4" x1="605.37" y1="198.83" x2="611.71" y2="192.49"/>
        <path class="cls-4" d="M605.37,206.81c15,0,15-15.5,0-28.18C588.93,193.66,592.22,206.81,605.37,206.81Z"/>
        <path class="cls-3"
              d="M567.33,205.8c9.67,0,13.12-6.41,10.35-14.37-3.3-9.45-16.89-9.62-20.41-.25C554,199.76,558.42,205.8,567.33,205.8Z"/>
        <line class="cls-4" x1="567.33" y1="212.38" x2="567.33" y2="192.66"/>
        <line class="cls-4" x1="561.23" y1="196.88" x2="566.87" y2="199.23"/>
        <line class="cls-4" x1="567.33" y1="195.47" x2="573.44" y2="192.19"/>
        <path class="cls-4"
              d="M567.33,205.8c9.67,0,13.12-6.41,10.35-14.37-3.3-9.45-16.89-9.62-20.41-.25C554,199.76,558.42,205.8,567.33,205.8Z"/>
    </g>
    <polygon class="cls-3" points="517.11 221.65 479.37 218.13 479.37 201.39 517.11 204.91 517.11 221.65"/>
    <polyline class="cls-3" points="504.49 190.67 528.9 199.96 528.9 213.66 517.11 221.65"/>
    <polygon class="cls-8" points="517.11 221.65 479.37 218.13 479.37 201.39 517.11 204.91 517.11 221.65"/>
    <polyline class="cls-8" points="479.37 201.39 504.49 190.67 528.9 199.96"/>
    <polyline class="cls-8" points="504.49 190.67 517.11 204.91 528.9 199.96 528.9 213.66 517.11 221.65"/>
    <polygon class="cls-8" points="486.88 214.58 482.65 214.34 482.65 204.95 486.88 205.19 486.88 214.58"/>
    <g class="cls-10">
        <path class="cls-3" d="M528.36,214.67c15,0,15-15.49,0-28.17C511.93,201.53,515.21,214.67,528.36,214.67Z"/>
        <line class="cls-4" x1="528.36" y1="221.25" x2="528.36" y2="201.53"/>
        <line class="cls-4" x1="523.2" y1="204.81" x2="527.89" y2="210.92"/>
        <line class="cls-4" x1="528.36" y1="206.69" x2="534.7" y2="200.35"/>
        <path class="cls-4" d="M528.36,214.67c15,0,15-15.49,0-28.17C511.93,201.53,515.21,214.67,528.36,214.67Z"/>
    </g>
    <polygon class="cls-3" points="618.88 235.39 596.4 231.95 596.4 215.2 618.88 218.64 618.88 235.39"/>
    <polyline class="cls-3" points="612.03 207.22 630.68 213.69 630.68 227.39 618.88 235.39"/>
    <polygon class="cls-8" points="618.88 235.39 596.4 231.95 596.4 215.2 618.88 218.64 618.88 235.39"/>
    <polyline class="cls-8" points="596.4 215.2 612.03 207.22 630.68 213.69"/>
    <polyline class="cls-8" points="612.03 207.22 618.88 218.64 630.68 213.69 630.68 227.39 618.88 235.39"/>
    <polygon class="cls-8" points="603.91 229.09 599.69 228.16 599.69 218.76 603.91 219.7 603.91 229.09"/>
    <g class="cls-11">
        <path class="cls-3" d="M120,218.3c15,0,15-15.5,0-28.18C103.57,205.15,106.86,218.3,120,218.3Z"/>
        <line class="cls-4" x1="120.01" y1="224.87" x2="120.01" y2="205.15"/>
        <line class="cls-4" x1="114.84" y1="208.44" x2="119.54" y2="214.54"/>
        <line class="cls-4" x1="120.01" y1="210.32" x2="126.35" y2="203.98"/>
        <path class="cls-4" d="M120,218.3c15,0,15-15.5,0-28.18C103.57,205.15,106.86,218.3,120,218.3Z"/>
    </g>
    <g class="cls-12">
        <path class="cls-3" d="M680.73,221.11c15,0,14.56-.94,0-28.17C667.59,220.17,667.59,221.11,680.73,221.11Z"/>
        <line class="cls-4" x1="680.73" y1="227.68" x2="680.73" y2="207.96"/>
        <line class="cls-4" x1="676.51" y1="214.07" x2="680.26" y2="217.35"/>
        <line class="cls-4" x1="680.73" y1="213.13" x2="684.96" y2="205.14"/>
        <path class="cls-4" d="M680.73,221.11c15,0,14.56-.94,0-28.17C667.59,220.17,667.59,221.11,680.73,221.11Z"/>
    </g>
    <path class="cls-8" d="M948,190.43s-5.63,2-37,9.11a66.39,66.39,0,0,1-23.13,1.1L867,197.94"/>
    <path class="cls-8"
          d="M37.8,214.11s76.11,25.28,95.64,31.78a17.27,17.27,0,0,0,9,.48c176.42-38,381.51-29.29,501.13,6.28l6.46,2.3a23.19,23.19,0,0,0,12.94.77c80.67-18.24,157.94-36,212.9-48.56a2.43,2.43,0,0,0-.27-4.78l-8.69-1"/>
    <path class="cls-8"
          d="M539,240.67c24,3.72,53.48,9.85,73.36,15.32a5.64,5.64,0,0,1,.16,10.81L609,267.91c-30,6.78-36.12,8.19-66.44,15"/>
    <path class="cls-8" d="M468.57,233.16c11.91.91,27.88,2.46,39.44,3.76"/>
    <path class="cls-8" d="M376,230.81c3.5,0,9.81.48,13.26.47"/>
    <path class="cls-8" d="M248.32,238.84c20.94-2.9,46.94-5.1,72-6.27"/>
    <path class="cls-13"
          d="M896,362.1l-7.44,3.67-10.31,14c1.26.1,49.1-14.05,49.1-14.05l50.78,25.7,7.69-18.4-49.64-23.93-31.87,9-6.71-.49L895.79,365l12.55,1.35,3.88-6.87-12.93-1.81"/>
    <polyline class="cls-13" points="897.5 364.74 897.19 368.94 908.34 366.39"/>
    <path class="cls-3" d="M298.21,241.55c15,0,14.55-.93,0-28.17C285.06,240.62,285.06,241.55,298.21,241.55Z"/>
    <line class="cls-4" x1="298.21" y1="248.13" x2="298.21" y2="228.41"/>
    <line class="cls-4" x1="293.98" y1="234.51" x2="297.74" y2="237.8"/>
    <line class="cls-4" x1="298.21" y1="233.57" x2="302.43" y2="225.59"/>
    <path class="cls-4" d="M298.21,241.55c15,0,14.55-.93,0-28.17C285.06,240.62,285.06,241.55,298.21,241.55Z"/>
    <path class="cls-3"
          d="M286.43,246.89c9.67,0,13.11-6.42,10.34-14.37-3.3-9.46-16.89-9.63-20.41-.25C273.13,240.84,277.51,246.89,286.43,246.89Z"/>
    <line class="cls-4" x1="286.43" y1="253.46" x2="286.43" y2="233.74"/>
    <line class="cls-4" x1="280.32" y1="237.97" x2="285.96" y2="240.32"/>
    <line class="cls-4" x1="286.43" y1="236.56" x2="292.53" y2="233.27"/>
    <path class="cls-4"
          d="M286.43,246.89c9.67,0,13.11-6.42,10.34-14.37-3.3-9.46-16.89-9.63-20.41-.25C273.13,240.84,277.51,246.89,286.43,246.89Z"/>
    <line class="cls-13" x1="978.14" y1="391.4" x2="977.11" y2="405.23"/>
    <line class="cls-13" x1="985.83" y1="373" x2="983.37" y2="406.12"/>
    <path class="cls-13"
          d="M882.23,405.76s-3,23.38-2.07,22.19,24.13-29.82,24.13-29.82-20.74,6.89-22.06,7.63L862.62,403l10.14-17.37c2.52.18,72.37,7.49,72.37,7.49s64.74,25,63,25.34"/>
    <g class="cls-14">
        <path class="cls-3"
              d="M253.44,244.07c9.67,0,13.12-6.41,10.34-14.37-3.3-9.45-16.88-9.62-20.41-.25C240.14,238,244.52,244.07,253.44,244.07Z"/>
        <line class="cls-4" x1="253.44" y1="250.65" x2="253.44" y2="230.93"/>
        <line class="cls-4" x1="247.34" y1="235.15" x2="252.97" y2="237.5"/>
        <line class="cls-4" x1="253.44" y1="233.74" x2="259.54" y2="230.46"/>
        <path class="cls-4"
              d="M253.44,244.07c9.67,0,13.12-6.41,10.34-14.37-3.3-9.45-16.88-9.62-20.41-.25C240.14,238,244.52,244.07,253.44,244.07Z"/>
    </g>
    <line class="cls-13" x1="904.29" y1="398.13" x2="943.82" y2="399.38"/>
    <polyline class="cls-13" points="904.32 358.08 904.91 350.12 933.25 337.47 954.55 357.18"/>
    <path class="cls-13" d="M904.91,350.12c1.32-.75,20.26-22.94,20.26-22.94l23.42-8.8,24.94,21.67-12.85,19.7"/>
    <line class="cls-13" x1="948.59" y1="318.38" x2="933.25" y2="337.47"/>
    <line class="cls-13" x1="816.44" y1="422.12" x2="1019" y2="211.44"/>
    <path class="cls-8" d="M791.15,255.23,770.2,250.6a51.31,51.31,0,0,0-24.69.36c-47,12.41-96.37,25.51-149.7,39.49"/>
    <path class="cls-8" d="M730.58,427,902.9,294.67l2-1.66A6.74,6.74,0,0,0,902,281.3l-74.27-17.15"/>
    <path class="cls-13"
          d="M932.58,323.93l17.92-14.26,26.66-1.39S1015.74,328,1014,329.14s-8.18,19.21-8.18,19.21L968,323.62l-11.86.8"/>
    <line class="cls-13" x1="968.01" y1="323.62" x2="977.16" y2="308.28"/>
    <path class="cls-13"
          d="M963.67,302.64s7.83-14.59,8.15-13.3S989.11,278,989.11,278l30.66,24.2-6.45,13-32.4-23.49-17.25,10.94-.44,5.87"/>
    <path class="cls-3"
          d="M390.31,282.11c9.67,0,13.12-6.42,10.34-14.37-3.3-9.46-16.88-9.63-20.4-.26C377,276.06,381.4,282.11,390.31,282.11Z"/>
    <line class="cls-4" x1="390.31" y1="288.68" x2="390.31" y2="268.96"/>
    <line class="cls-4" x1="384.21" y1="273.19" x2="389.84" y2="275.53"/>
    <line class="cls-4" x1="390.31" y1="271.78" x2="396.42" y2="268.49"/>
    <path class="cls-4"
          d="M390.31,282.11c9.67,0,13.12-6.42,10.34-14.37-3.3-9.46-16.88-9.63-20.4-.26C377,276.06,381.4,282.11,390.31,282.11Z"/>
    <path class="cls-3" d="M772.3,218.54V183.32l-11-11.86-19.24,2.35-10.38,8.5v36.15l13.84,5.71Z"/>
    <path class="cls-8" d="M772.3,218.54V183.32l-27.23,3.29-13.37-4.3v36.15l13.33,6Z"/>
    <polyline class="cls-8" points="742.55 173.34 745.07 186.61 745.07 224.17"/>
    <path class="cls-8" d="M772.3,183.79l-10.77-12.12-19,1.67c-1.88.94-10.85,9-10.85,9"/>
    <polygon class="cls-8" points="762.91 201.94 767.14 201 767.14 191.61 762.91 192.55 762.91 201.94"/>
    <polygon class="cls-8" points="749.76 204.29 753.99 203.35 753.99 193.96 749.76 194.9 749.76 204.29"/>
    <g class="cls-15">
        <polyline class="cls-8" points="805 155.28 805 52.76 787.37 52.39 787.37 149.74"/>
        <polyline class="cls-8" points="805 52.76 840.49 51.02 840.49 128.4"/>
        <polygon class="cls-8" points="845.57 35.25 852.13 32.83 861.36 34.67 845.57 35.25"/>
        <line class="cls-8" x1="845.57" y1="35.25" x2="845.57" y2="132.28"/>
        <polyline class="cls-8" points="861.44 132.41 861.44 10.99 852.13 9.81"/>
        <polyline class="cls-8" points="852.13 32.83 852.13 9.81 867.84 9.71 875.41 10.39 862.55 10.99 862.55 132.41"/>
        <polyline class="cls-8" points="867.84 9.71 867.84 5.59 891.79 5.59 891.79 132.77"/>
        <line class="cls-8" x1="875.39" y1="5.83" x2="875.39" y2="134.25"/>
        <polyline class="cls-8" points="896.23 134.62 896.23 10.64 958.18 10.64 958.18 13.65"/>
        <polyline class="cls-8" points="993 107.32 993 83.23 964.27 83.23 964.27 13.41 906.31 13.41 906.66 121.42"/>
        <line class="cls-8" x1="923.6" y1="13.3" x2="923.6" y2="122.45"/>
        <line class="cls-8" x1="932.18" y1="21.02" x2="959.84" y2="21.02"/>
        <line class="cls-8" x1="937.34" y1="26.56" x2="959.84" y2="26.56"/>
        <line class="cls-8" x1="944.35" y1="31.72" x2="959.84" y2="31.72"/>
        <polyline class="cls-8" points="964.09 33.42 988.48 33.42 988.48 83.62"/>
        <line class="cls-8" x1="982.18" y1="33.16" x2="982.18" y2="83.23"/>
        <line class="cls-8" x1="973.12" y1="33.57" x2="973.12" y2="83"/>
        <line class="cls-8" x1="968.33" y1="44.26" x2="988.99" y2="44.26"/>
        <line class="cls-8" x1="976.81" y1="54.22" x2="988.62" y2="54.22"/>
        <polyline class="cls-8" points="992.31 90 1004.48 90 1004.48 86.3"/>
        <polyline class="cls-8" points="992.67 85.19 1013.33 85.19 1013.33 139.41"/>
        <path class="cls-8" d="M840.49,51c-1-.33-27.27,0-27.27,0l-20.69,1V43.76h-2.45V52"/>
        <polyline class="cls-8" points="786.74 77.75 772.09 77.09 751 78.28 751 125.19"/>
        <polyline class="cls-8" points="751 78.28 757.79 78.66 757.79 124.88"/>
        <polyline class="cls-8" points="762.5 150.85 762.5 79.67 773.93 80.41 787.58 79.31"/>
        <line class="cls-8" x1="773.93" y1="80.41" x2="773.93" y2="150.11"/>
        <line class="cls-8" x1="787.09" y1="60.99" x2="800.37" y2="61.48"/>
        <line class="cls-8" x1="795.45" y1="68.86" x2="787.09" y2="68.36"/>
        <polyline class="cls-8" points="762.5 125.03 724.87 125.03 724.87 159.7"/>
    </g>
    <polyline class="cls-8" points="1012.46 111.51 1058.97 111.51 1058.97 123.41"/>
    <polyline class="cls-8" points="1038.42 148.29 1038.42 123.41 1116.3 123.41"/>
    <polyline class="cls-16" points="831.81 153.7 831.81 140.72 843.71 140.72 843.71 152.08"/>
    <path class="cls-16" d="M843.71,143.42h28.12v9.74"/>
    <polyline class="cls-16"
              points="935.65 137.84 935.65 122.19 899.96 122.19 899.96 146.67 889.14 146.67 889.14 139.09 882.65 139.09 882.65 127.74 835.6 127.74 835.6 140.66"/>
    <polyline class="cls-16" points="889.14 139.09 853.44 139.09 853.44 143.42"/>
    <polyline class="cls-8" points="1085.47 123.41 1085.47 100.69 1030.85 100.69 1030.85 110.43"/>
    <polyline class="cls-16" points="916.18 160.38 916.18 138.55 956.43 138.55"/>
    <path class="cls-16" d="M927,147.21c4.33,1.08,15.14,4.32,15.14,4.32l29.21-.54-11.9-3.78H927V174"/>
    <line class="cls-16" x1="724.87" y1="125.03" x2="724.87" y2="166.66"/>
    <polyline class="cls-16"
              points="696.05 171.55 696.05 162.35 704.71 162.35 704.71 150.99 710.11 150.99 710.11 166.68 751.76 166.68"/>
    <polyline class="cls-16"
              points="753.38 172.5 753.38 165.7 759.33 156.5 759.33 145.14 763.66 145.14 763.66 155.42 769.76 166.32 770.1 181"/>
    <polyline class="cls-16" points="800.98 165.78 800.98 128.82 835.6 128.82"/>
    <path class="cls-16" d="M800.3,149.37c-10.81-.54-31.91,0-31.91,0"/>
    <line class="cls-16" x1="942.14" y1="151.53" x2="942.14" y2="176.34"/>
    <polyline class="cls-16" points="1046.53 150.99 1011.92 138.55 988.66 138.55 978.92 145.59 978.92 167.42"/>
    <path class="cls-16" d="M1007.05,170.71c.54-2.16,0-19.72,0-19.72h48.14v7"/>
    <path class="cls-16" d="M1036.8,186.21s-.54-28.18,0-28.18h27.58c.54.54,11.9,4.86,11.9,4.86h-28.13v22.85"/>
    <polyline class="cls-16" points="885.89 164.84 885.89 153.16 821.64 153.69 822.07 180.81"/>
    <polygon class="cls-3" points="402.89 305.82 451.29 293.57 451.29 269.9 402.89 282.15 402.89 305.82"/>
    <polyline class="cls-3" points="412.57 266.02 381.58 276.59 381.58 297.72 402.89 305.82"/>
    <polygon class="cls-8" points="402.89 305.82 450.62 293.57 450.62 269.9 402.89 282.15 402.89 305.82"/>
    <line class="cls-8" x1="412.57" y1="266.02" x2="381.58" y2="276.59"/>
    <path class="cls-8"
          d="M402.89,305.82l-21.31-8.1V276.59l21.31,5.57L412.57,266l4.93,1.24,13.88-6.65,18.87,9.29c1.88.82,14.09,3.64,14.09,3.64l59.16-14.08"/>
    <polygon class="cls-8" points="413.42 298.26 419.39 296.93 419.39 283.66 413.42 284.99 413.42 298.26"/>
    <polygon class="cls-8" points="436.02 296.18 442 294.85 442 281.58 436.02 282.91 436.02 296.18"/>
    <polyline class="cls-8" points="412.57 266.02 427.71 275.71 431.38 260.61"/>
    <path class="cls-8"
          d="M-52.64,329.89,70,386.14a26.72,26.72,0,0,0,17.42,1.69c30-7.24,133.16-32.59,252.75-60.24a5.16,5.16,0,0,0,.38-9.95l-2.95-.93c-92.6-27.31-273.57-83-278-84.52"/>
    <path class="cls-8"
          d="M431.59,307.23c-6.55,1.48-11.3,2.92-16.17,4.36a48.6,48.6,0,0,1-26.66.27L187.55,256.77a3.26,3.26,0,0,1,0-6.3c10-2.58,20.75-4.93,32.13-7"/>
    <path class="cls-8" d="M390.15,342.1c-146,38.11-267.06,70.08-267.06,70.08"/>
    <line class="cls-8" x1="405.18" y1="351.49" x2="481.71" y2="413"/>
    <polygon class="cls-17"
             points="109.18 372.78 155.41 362.39 155.41 346.4 138.22 327.22 117.44 327.81 76.48 339.4 76.68 356.79 109.18 372.78"/>
    <path class="cls-17" d="M94.79,338.67c1.6.54,43.43-11.45,43.43-11.45"/>
    <polyline class="cls-17" points="155.41 346.4 109.45 357.39 94.79 338.67 76.48 339.4"/>
    <line class="cls-17" x1="109.45" y1="357.39" x2="109.45" y2="372.78"/>
    <polygon class="cls-17" points="151.01 352.19 151.01 358.39 144.62 359.59 144.62 353.59 151.01 352.19"/>
    <polygon class="cls-17" points="120.04 359.39 120.04 365.58 113.64 366.78 113.64 360.79 120.04 359.39"/>
    <polyline class="cls-17" points="165.2 360.39 198.97 352.19 198.97 341.6 187.18 325.22 163 322.42 138.82 327.81"/>
    <polyline class="cls-17" points="198.97 341.6 165 350.2 152.21 334.41 143.82 333.61"/>
    <polyline class="cls-17" points="165 350.2 165 360.39 155.61 354.79"/>
    <line class="cls-17" x1="152.21" y1="334.41" x2="187.18" y2="325.22"/>
    <polygon class="cls-17" points="187.91 347.6 188.05 351.19 196.17 349.46 196.17 345.6 187.91 347.6"/>
    <path class="cls-5" d="M191.34,302c.88,1.3,22.33,25.86,22.33,25.86l20.27-4.52,17.3-10"/>
    <path class="cls-5"
          d="M227,289.27c.85.77,24.26,24.06,24.26,24.06l23.08,4.38-23.76-23.5L227,289.27l-16.2,8.45L191.34,302,192,314.4l22.14,24.78,61.13-8.71-.62-12.37"/>
    <line class="cls-5" x1="213.67" y1="327.88" x2="214.23" y2="339.18"/>
    <polyline class="cls-18" points="268.77 410.83 234.15 386.99 216.89 402.2"/>
    <polyline class="cls-18" points="234.15 386.99 251.59 391.09 264.67 400.32 282.62 393.65 295.18 400.58"/>
    <polyline class="cls-18" points="288.51 396.99 304.67 383.65 323.9 388.78 341.08 401.35"/>
    <line class="cls-18" x1="304.67" y1="383.65" x2="329.03" y2="402.37"/>
    <polygon class="cls-5" points="171.1 291.85 170.16 273.31 154.91 268.38 134.01 278.94 171.1 291.85"/>
    <polyline class="cls-5" points="134.01 278.94 134.01 292.56 170.87 307.58 197.4 296.67 197.4 282.35"/>
    <path class="cls-5" d="M170.87,307.58s.47-15.49.23-15.73l26.06-9.74-27-8.8"/>
    <path class="cls-5"
          d="M133.78,288.33l-17.85,5.4-14.08-5.87V277.77l11-4.7-20.43-8,8-10.1,12,1.41s38.27,12.68,39.68,12.92l-12.92-.94-9.86,10.09-13.61,4.7.23,10.56"/>
    <polyline class="cls-5" points="92.45 265.09 92.45 279.88 101.85 283.4"/>
    <polyline class="cls-5" points="115.7 283.17 109.83 277.53 101.85 277.77"/>
    <polyline class="cls-5" points="109.83 277.53 123.44 270.96 129.31 278.47"/>
    <path class="cls-5" d="M100.44,255c.94.71,38.73,13.39,38.73,13.39"/>
    <line class="cls-5" x1="123.44" y1="270.96" x2="112.88" y2="273.07"/>
    <path class="cls-3"
          d="M542.38,267.07S482.32,283.13,479,282.93l.46,14.16a2.22,2.22,0,0,0,2.61,2.11l60.79-14.82-.39-17.55-13.64-4.3S468,277.92,468,278v2.59l4.16,16.78"/>
    <path class="cls-3"
          d="M463.76,280.13c-3.67,1.85-13.11,6.43-16.06,7.86a2.22,2.22,0,0,0-1.16,1.4l-1.28,4.6a2.18,2.18,0,0,1-1.24,1.44c-3.2,1.38-13.22,5.74-12.86,5.85s13.48,4,16.25,4.76a2.24,2.24,0,0,0,1,0l18.88-3.66a2.2,2.2,0,0,0,1.79-2.06l.77-15a2.19,2.19,0,0,0-.59-1.63l-2.93-3.11A2.19,2.19,0,0,0,463.76,280.13Z"/>
    <path class="cls-19" d="M447.21,288.52l12.18,5.38s-1.87,6.75-2.31,6.44S445,295.12,445,295.12"/>
    <path class="cls-19"
          d="M449.68,314.07l-4.83.91a2.19,2.19,0,0,1-1.36-.17l-10.44-5a2.2,2.2,0,0,1-1.25-1.79l-.5-5.2a2.23,2.23,0,0,1,1.29-2.23L444,295.44a2.22,2.22,0,0,0,1.22-1.42l1.28-4.64A2.2,2.2,0,0,1,447.7,288l16.58-8.16a2.23,2.23,0,0,1,1.89,0l9.44,4.24a2.21,2.21,0,0,1,1.3,1.93l.51,13.06a2.22,2.22,0,0,0,2.6,2.09l63.19-14.93.29,5.72-5.14,1"/>
    <ellipse class="cls-19" cx="453.12" cy="312.8" rx="3.54" ry="4.04"
             transform="translate(-11.83 17.88) rotate(-2.23)"/>
    <path class="cls-19"
          d="M453.16,314.73c-.76,0-1.43-.85-1.47-1.87a2.28,2.28,0,0,1,.46-1.49,1.24,1.24,0,0,1,.9-.5h0a1.79,1.79,0,0,1,1.5,1.88,2.18,2.18,0,0,1-.45,1.48,1.23,1.23,0,0,1-.9.5Z"/>
    <ellipse class="cls-19" cx="486.68" cy="305.43" rx="3.54" ry="4.04"
             transform="translate(-11.52 19.18) rotate(-2.23)"/>
    <path class="cls-19"
          d="M486.71,307.36c-.75,0-1.42-.86-1.46-1.87a2.22,2.22,0,0,1,.45-1.49,1.26,1.26,0,0,1,.9-.5h0a1.79,1.79,0,0,1,1.51,1.88,2.2,2.2,0,0,1-.46,1.48,1.22,1.22,0,0,1-.9.5Z"/>
    <ellipse class="cls-19" cx="495.89" cy="303.24" rx="3.54" ry="4.04"
             transform="matrix(1, -0.04, 0.04, 1, -11.43, 19.53)"/>
    <path class="cls-19"
          d="M495.92,305.17c-.75,0-1.42-.85-1.46-1.87a2.28,2.28,0,0,1,.45-1.49,1.26,1.26,0,0,1,.9-.5h0a1.79,1.79,0,0,1,1.51,1.88,2.23,2.23,0,0,1-.45,1.48,1.23,1.23,0,0,1-.9.5Z"/>
    <ellipse class="cls-19" cx="525.77" cy="296.12" rx="3.54" ry="4.04"
             transform="translate(-11.13 20.69) rotate(-2.23)"/>
    <path class="cls-19"
          d="M525.81,298.05c-.76,0-1.43-.86-1.47-1.87a2.28,2.28,0,0,1,.46-1.49,1.26,1.26,0,0,1,.9-.5h0a1.79,1.79,0,0,1,1.5,1.88,2.2,2.2,0,0,1-.45,1.48,1.23,1.23,0,0,1-.9.5Z"/>
    <ellipse class="cls-19" cx="535.08" cy="294.2" rx="3.54" ry="4.04"
             transform="translate(-11.05 21.05) rotate(-2.23)"/>
    <path class="cls-19"
          d="M535.11,296.13c-.75,0-1.42-.86-1.46-1.88s.58-1.95,1.35-2h0c.79,0,1.46.86,1.5,1.88s-.58,2-1.36,2Z"/>
    <line class="cls-19" x1="522.24" y1="296.26" x2="499.39" y2="301.64"/>
    <line class="cls-19" x1="483.25" y1="306.08" x2="456.66" y2="312.67"/>
    <path class="cls-19" d="M444.31,315l-.57-7.17a2.21,2.21,0,0,1,1.35-2.13L457,300.33"/>
    <line class="cls-20" x1="476.5" y1="284.79" x2="459.39" y2="293.9"/>
    <polygon class="cls-19" points="461.15 295.43 459.77 300.17 469.35 298.49 468.92 294.08 461.15 295.43"/>
    <path class="cls-19"
          d="M542.38,267.07S482.32,283.13,479,282.93l.46,14.16.16,2.44,63.24-15.15-.39-17.55-13.64-4.3S468,277.92,468,278v2.59"/>
    <line class="cls-19" x1="479.5" y1="299.57" x2="477.29" y2="298.55"/>
    <line class="cls-19" x1="479.01" y1="282.87" x2="468.04" y2="277.97"/>
    <path class="cls-21"
          d="M514.74,280.74a.76.76,0,0,1-.58.68.38.38,0,0,1-.52-.4.78.78,0,0,1,.58-.68C514.54,280.26,514.76,280.43,514.74,280.74Z"/>
    <path class="cls-21"
          d="M508.43,282.13l-.52,3.09a1.41,1.41,0,0,1-1,1.07c-.56.14-.85-.11-.74-.75.06-.35.36-2.17.38-2.27a2.33,2.33,0,0,0,0-.67l-1,.24a3.4,3.4,0,0,1-.07.84c-.05.33-.17,1-.34,2.05-.21,1.23.54,1.71,1.63,1.44a2.68,2.68,0,0,0,2.16-2.53l.47-2.76Z"/>
    <path class="cls-21"
          d="M511.41,282.5a7,7,0,0,0-1.66.74,1.65,1.65,0,0,1,0,.49l-.46,2.75,1-.24.42-2.48a.92.92,0,0,0,0-.16,2.52,2.52,0,0,1,.59-.24c.41-.1.49.09.42.48l-.36,2.13,1-.24.34-2C512.8,282.67,512.39,282.26,511.41,282.5Z"/>
    <polygon class="cls-21" points="512.94 285.57 513.89 285.33 514.49 281.8 513.53 282.04 512.94 285.57"/>
    <path class="cls-21"
          d="M515.87,283.57c0-.14.23-1.33.23-1.33L517,282l.15-.88-.89.22.15-.92-.95.24-.15.92-.4.13-.14.81.39-.07-.26,1.54c-.14.82.19,1.08.92.9a3.27,3.27,0,0,0,1-.45l-.23-.68a1.45,1.45,0,0,1-.47.25C515.82,284.1,515.82,283.9,515.87,283.57Z"/>
    <path class="cls-21"
          d="M519,280.62a2.47,2.47,0,0,0-1.82,2.42c0,1,.76,1.36,1.67,1.13a3.13,3.13,0,0,0,1.15-.58l-.27-.63a2.73,2.73,0,0,1-.9.43c-.38.1-.68-.06-.7-.45l2.13-.53a2,2,0,0,0,.14-.76A1,1,0,0,0,519,280.62Zm0,.78c.35-.09.53.09.53.38,0,.05,0,.09,0,.13l-1.28.32A1.11,1.11,0,0,1,518.93,281.4Z"/>
    <path class="cls-21"
          d="M523.5,278.05l-.27,1.63a1.62,1.62,0,0,0-.65,0,2.52,2.52,0,0,0-1.84,2c-.19,1.12.52,1.85,1.74,1.55a5.25,5.25,0,0,0,1.26-.56,2.05,2.05,0,0,1,0-.7l.71-4.19Zm-.7,4.28a1.75,1.75,0,0,1-.32.12c-.51.12-.83-.22-.72-.85a1.35,1.35,0,0,1,.93-1.1.77.77,0,0,1,.4,0l-.27,1.58A1.1,1.1,0,0,0,522.8,282.33Z"/>
    <path class="cls-22"
          d="M498.8,286.91l-1,.5-.2,0s-2,.45-3.95.7c-.73.1-1.06-.06-1.06-.3l3.2-.79L496,287c1.44-.07,2.75-.22,2.77-.22Zm-3.21-2.52.44,0,2.82-.23,0-.15s-1.72-.23-3.67-.59l-.67-.06-4.22-.1c-.09.3.26.54.87.63C493.26,284.23,495.59,284.39,495.59,284.39Zm5.28,3.16s-1.72.37-3.14.59l-.25.11-2,.9c0,.17.42.22,1.12.05l3.32-.83.12-.09a9.38,9.38,0,0,1,.83-.6Zm-2.42-2.11s-1.64,0-3.42-.12l-.34,0-4.05.42c0,.26.27.48,1.1.49,2.11,0,4.39-.17,4.39-.17h.34l2-.49Z"/>
    <path class="cls-23" d="M497.12,283.77l1.21.46h-.1l-1.43-.52Z"/>
    <path class="cls-23" d="M495.75,283.54l2,.74h-.13l-2.32-.83Z"/>
    <polygon class="cls-23" points="494.55 283.39 494.62 283.4 497.09 284.33 496.95 284.34 494.3 283.39 494.55 283.39"/>
    <polygon class="cls-23" points="493.82 283.38 496.49 284.38 496.32 284.39 493.47 283.37 493.82 283.38"/>
    <path class="cls-23" d="M493.05,283.36l2.78,1h-.29l-2.88-1Z"/>
    <path class="cls-23" d="M492.29,283.34l2.65,1-.36,0-2.72-1Z"/>
    <path class="cls-23" d="M497.87,285.44l.47.17-.07,0-.55-.2Z"/>
    <path class="cls-23" d="M497.12,285.42l.8.3-.08,0-.92-.33Z"/>
    <path class="cls-23" d="M491.54,283.32l2.49.93-.44,0-2.51-.9Z"/>
    <path class="cls-23" d="M496.36,285.39l1.15.43-.1,0-1.29-.46Z"/>
    <path class="cls-23" d="M490.33,283.29h.47l2.29.86-.55-.06-2.22-.8Z"/>
    <path class="cls-23" d="M490.31,283.38l1.76.66-.68-.09-1-.36A.29.29,0,0,1,490.31,283.38Z"/>
    <path class="cls-23" d="M495.58,285.35l1.52.57-.1,0-1.71-.62Z"/>
    <polygon class="cls-23"
             points="494.87 285.33 496.7 286.02 496.59 286.05 494.66 285.36 494.69 285.35 494.87 285.33"/>
    <path class="cls-23" d="M500.38,287.65l.36.13h0l-.38-.14Z"/>
    <path class="cls-23" d="M496.13,286.09h-.08l-1.92-.69.23,0,1.87.7Z"/>
    <path class="cls-23" d="M498.2,286.83l.43.16-.05,0-.49-.17Z"/>
    <path class="cls-23" d="M497.68,286.88l.67.25-.05,0-.75-.27Z"/>
    <path class="cls-23" d="M500,287.73l.56.21h0l-.59-.21Z"/>
    <path class="cls-23" d="M495.49,286.14l-1.88-.67.25,0,1.84.69Z"/>
    <path class="cls-23" d="M497.16,286.92l.92.34-.06,0-1-.36Z"/>
    <path class="cls-23" d="M499.55,287.82l.75.28h0l-.79-.28Z"/>
    <path class="cls-23" d="M494.93,286.18l-1.83-.66.26,0,1.8.68Z"/>
    <path class="cls-23" d="M494.37,286.21l-1.78-.64.29,0,1.75.66Z"/>
    <path class="cls-23" d="M496.64,287l1.18.45h-.09l-1.27-.46Z"/>
    <path class="cls-23" d="M499.14,287.89l1,.36,0,0-1-.36Z"/>
    <path class="cls-23" d="M493.8,286.24l-1.7-.62.3,0,1.69.63Z"/>
    <path class="cls-23" d="M496,287h.08l1.33.5-.11,0-1.38-.49Z"/>
    <path class="cls-23" d="M498.73,288l1.12.42h0l-1.16-.42Z"/>
    <path class="cls-23" d="M493.23,286.25l-1.62-.58.32,0,1.61.61Z"/>
    <path class="cls-23" d="M498.33,288l1.16.44h-.05l-1.21-.43Z"/>
    <path class="cls-23" d="M495.73,287.07l1.31.49-.12,0-1.34-.49Z"/>
    <path class="cls-23" d="M497.92,288.11l1.22.46-.07,0-1.26-.46Z"/>
    <path class="cls-23" d="M495.37,287.15l1.29.49-.14,0-1.31-.48Z"/>
    <path class="cls-23" d="M492.64,286.27l-1.51-.55.33,0,1.53.57Z"/>
    <path class="cls-23" d="M492,286.27l-1.39-.5.36,0,1.42.54Z"/>
    <path class="cls-23" d="M497.59,288.21l1.2.45-.08,0-1.2-.44Z"/>
    <path class="cls-23" d="M495,287.24l1.26.48-.15,0-1.28-.46Z"/>
    <path class="cls-23" d="M497.33,288.32l1.11.42-.08,0-1.12-.4Z"/>
    <path class="cls-23" d="M494.68,287.33l1.22.46-.16,0-1.24-.45Z"/>
    <path class="cls-23" d="M491.74,286.26l-.37,0-.64-.23a.28.28,0,0,1-.09-.2l1.21.46Z"/>
    <path class="cls-23" d="M497.07,288.44l1,.39-.1,0-1-.37Z"/>
    <path class="cls-23" d="M495.53,287.86l-.19,0-1.19-.43.19,0Z"/>
    <path class="cls-23" d="M495,288l-1.14-.42.2-.05,1.14.43Z"/>
    <path class="cls-23" d="M496.82,288.55l.95.36-.11,0-.94-.34Z"/>
    <path class="cls-23" d="M496.57,288.66l.87.33-.12,0-.85-.31Z"/>
    <path class="cls-23" d="M494.55,288l-1.08-.39.21-.05,1.09.41Z"/>
    <path class="cls-23" d="M494.16,288.08l-1-.37.21,0,1,.39Z"/>
    <path class="cls-23" d="M496.33,288.77l.79.3-.13,0-.77-.27Z"/>
    <path class="cls-23" d="M493.75,288.14l-.94-.35.23-.05,1,.36Z"/>
    <path class="cls-23" d="M496.09,288.88l.71.27-.14,0-.69-.25Z"/>
    <path class="cls-23" d="M495.85,289l.63.24-.16,0-.59-.21Z"/>
    <path class="cls-23" d="M493.32,288.18l-.74-.27a.13.13,0,0,1,0-.06l.15,0,.9.33Z"/>
    <path class="cls-23" d="M492.6,288l.57.22C492.85,288.17,492.66,288.09,492.6,288Z"/>
    <path class="cls-23" d="M495.62,289.1l.51.19-.23,0-.38-.14v0Z"/>
    <path class="cls-24"
          d="M501,284.94a.27.27,0,0,1,.3.07l-.19.05a.11.11,0,0,1,0,.08.25.25,0,0,1-.17.22.13.13,0,0,1-.17-.13h0l-.29.11c-.09,0-.14,0-.16,0A2.42,2.42,0,0,1,501,284.94Z"/>
    <path class="cls-25"
          d="M498.87,284.11s-3.07-.41-5.76-1c-.58-.13-.85-.43-.77-.73l7.71.45c2,.11,3.57.57,3.88,1.49a3.74,3.74,0,0,0-3.88.93.16.16,0,0,0,.05.09l-.54.34c-.62.42-.57,1-.23,1.19,0-.33.29-.62.83-.76l.71-.17s0,0,0,0c-1,.29-1.27.37-1.4.74l1.11-.28c1.45-.36,2.63.1,2.63,1.6a2.65,2.65,0,0,1-.77,1.78c.22-1.3-.51-1.49-1.84-1.16l-1.24.31c0-.21.31-.47.63-.72s.84-.6.84-.6-2,.43-3.51.65c-.67.1-1,0-1.08-.18l2.5-1.25s-1.93.23-3.72.24c-.74,0-1.13-.16-1.13-.44l4.5-1.12s-2.66,0-4.93-.26c-.68-.07-1-.33-.95-.63Z"/>
    <path class="cls-26"
          d="M499.47,283.59l2,.75h0l-2.21-.79Zm-1-.12,2.73,1h0l-2.51-.94Zm-.75-.08,3.25,1.17,0,0-3-1.12Zm-.79-.08,3.83,1.37,0,0-3.5-1.31Zm1.86.81h-.15l1.91.69,0,0Zm-2.68-.89,2.27.81.32,0-2.16-.82Zm4.29,1.71-2.07-.78h-.18l2.21.79Zm-5.13-1.8,2.07.74.44.07-2-.76Zm-.87-.09,1.82.65.56.09-1.82-.68Zm5.82,2-2.37-.89h-.2l2.54.91Zm-.14.16-2.71-1h-.23l3,1.06A.14.14,0,0,1,500.06,285.25Zm-6.6-2.31,1.49.54.73.13-1.57-.59Zm6.48,2.49-3.09-1.15-.24,0,3.27,1.17Zm-7.56-2.76a.48.48,0,0,0,.13.16l1,.36,1,.2-1.27-.48h-.09C492.62,282.83,492.46,282.77,492.38,282.67Zm7.33,2.91-3.36-1.26-.27,0,3.57,1.28Zm1.68.89.7.25-.06,0-.51-.2Zm-1.9-.74-3.65-1.37-.3,0,3.89,1.39Zm-1.2-.21-3-1.12-.32,0,3,1.08Zm.06,0-.14,0,1.05.38,0-.05Zm2.45,1,1.57.56h0l-1.48-.56Zm-3.18-1-2.83-1.07-.34,0,2.87,1Zm1.55.58-1.21-.45-.15,0,1.33.48Zm1.22.51,2.05.73h0l-2-.74Zm-.4.1,2.45.88v0l-2.36-.88Zm-3.07-1.21-2.66-1-.37,0,2.67,1Zm2.17.81-1.52-.57-.16,0,1.67.6A.15.15,0,0,0,499.09,286.3Zm-2.91-.84-2.46-.93-.39,0,2.45.88Zm2.92,1.09-1.92-.72-.18.05,2.12.75A.19.19,0,0,1,499.1,286.55Zm.59.22-.11,0,2.83,1h0Zm-4.27-1.35-2.24-.84-.41,0,2.17.78Zm6.93,2.6-5.57-2.09-.19.05,5.75,2Zm-3.75-1.16-2.22-.83-.2.05,2.24.8Zm2.18.82,0,0,1.51.54h0Zm-2.1-.79-.1.05,2.05.73.07,0Zm-4.07-1.53-2-.74h-.08a.26.26,0,0,0,0,.15l1.49.54Zm-.87-.07-1.15-.44c.1.2.41.36.91.41Zm8.4,3.15-1.6-.6,0,0,1.63.58Zm-4.07-1.53-2.09-.78-.21.05,2.09.75Zm2.2.83-1.88-.7-.1,0,1.89.67Zm1.32.75-1.28-.48,0,0,1.24.45Zm-1.75-.66-1.74-.65-.11.05,1.74.62Zm-2.31-.87-1.95-.73-.23.06,1.94.69ZM497,287l-1.8-.68-.24.06,1.77.63Zm4.09,1.53-1-.36,0,0,.95.34Zm-1.67-.62-1.58-.6-.11.06,1.57.56Zm-3-.88-1.62-.61-.25.07,1.57.56Zm4.24,1.6-.76-.29-.05,0,.74.26ZM499,288l-1.43-.53-.12.06,1.41.5Zm-.46.09-1.26-.48-.12.07,1.22.43Zm1.73.65-.55-.21-.05,0,.52.19Zm-4.43-1.67-1.43-.54-.26.07,1.34.48Zm-.64,0-1.19-.45h0a.27.27,0,0,0,.06.17l.72.26a2,2,0,0,0,.35,0Zm4.67,1.76-.32-.12a.1.1,0,0,0,0,0l.26.09Zm-1.79-.67-1.09-.41-.13.06,1,.37Zm-.47.07-.9-.34-.14.07.84.3Zm-.5.07-.69-.27-.09,0a.08.08,0,0,0,0,.05l.48.17Z"/>
    <path class="cls-27"
          d="M499.73,290a.29.29,0,0,1-.38-.28h0a.51.51,0,0,1,.38-.46.28.28,0,0,1,.38.28h0A.51.51,0,0,1,499.73,290Zm0,0a.46.46,0,0,0,.34-.42h0a.26.26,0,0,0-.34-.26.47.47,0,0,0-.34.42h0A.26.26,0,0,0,499.73,290Zm.15-.19-.07,0v-.14l-.08,0h0l-.1.16-.09,0,.11-.18c-.06,0-.1,0-.1-.09h0a.18.18,0,0,1,0-.09.18.18,0,0,1,.12-.07l.17,0Zm-.07-.18v-.13l-.1,0s-.08,0-.08.08h0s0,.05.08,0Z"/>
    <polygon class="cls-8" points="263.14 260.39 214.54 247.95 228.86 234.57 275.35 245.37 263.14 260.39"/>
    <polyline class="cls-8" points="214.54 247.95 214.54 258.75 263.37 271.43 263.37 260.39"/>
    <line class="cls-8" x1="263.37" y1="271.43" x2="275.58" y2="265.32"/>
    <path class="cls-13"
          d="M819.79,231.75c-13.37,3.53-14.14,3.43-29.08,7.38a3.13,3.13,0,0,0,.09,6.08L920.63,275a12.31,12.31,0,0,0,10.27-2.25l89.15-68.65"/>
    <path class="cls-13" d="M949.27,197.71c-1,0-20.14,4.93-57.64,14.79"/>
    <path class="cls-8" d="M540.64,305.17c10.25-2.67,27.1-7.82,37.33-10.5"/>
    <path class="cls-8"
          d="M535.12,413.23c-1.52-2.28-40.9-32.27-75-59.39C460,353.76,446,343,446,343a6.3,6.3,0,0,1,2-11.25c25.77-6.72,48.71-14.57,75.08-21.45"/>
    <path class="cls-18" d="M370.19,369.1s-26.53,8.45-27.23,8.45l7.75,12.91,13.61-4,31.93,17.37"/>
    <path class="cls-18" d="M343,377.55c-1.17,0-12.21-.47-12.21-.47l40.62-12.45-.71,4.23"/>
    <path class="cls-18" d="M425.13,403.84,370.9,368.63s-6.11,16.43-6.58,17.84v15.26"/>
    <path class="cls-18" d="M371.37,364.63c.47.47,64.09,38.74,64.09,38.74"/>
    <line class="cls-18" x1="330.75" y1="377.08" x2="330.75" y2="394.22"/>
    <path class="cls-18" d="M350.71,390.46c-.47.7,0,11.5,0,11.5"/>
    <path class="cls-3" d="M89.12,374.84c15,0,15-15.49,0-28.17C72.68,361.69,76,374.84,89.12,374.84Z"/>
    <line class="cls-4" x1="89.12" y1="381.41" x2="89.12" y2="361.69"/>
    <line class="cls-4" x1="83.95" y1="364.98" x2="88.65" y2="371.08"/>
    <line class="cls-4" x1="89.12" y1="366.86" x2="95.46" y2="360.52"/>
    <path class="cls-4" d="M89.12,374.84c15,0,15-15.49,0-28.17C72.68,361.69,76,374.84,89.12,374.84Z"/>
    <path class="cls-3"
          d="M394.77,356.77c9.67,0,13.12-6.42,10.35-14.38-3.3-9.45-16.89-9.62-20.41-.25C381.48,350.72,385.86,356.77,394.77,356.77Z"/>
    <line class="cls-4" x1="394.77" y1="363.34" x2="394.77" y2="343.62"/>
    <line class="cls-4" x1="388.67" y1="347.84" x2="394.31" y2="350.19"/>
    <line class="cls-4" x1="394.77" y1="346.44" x2="400.88" y2="343.15"/>
    <path class="cls-4"
          d="M394.77,356.77c9.67,0,13.12-6.42,10.35-14.38-3.3-9.45-16.89-9.62-20.41-.25C381.48,350.72,385.86,356.77,394.77,356.77Z"/>
    <path class="cls-3"
          d="M211.44,346c9,0,10.23-7.93,3.81-15.76a4.81,4.81,0,0,0-7.48,0C200.69,339,203.44,346,211.44,346Z"/>
    <path class="cls-4"
          d="M211.44,346c9,0,10.25-8,3.69-15.9a4.73,4.73,0,0,0-7.26.05C200.67,338.9,203.41,346,211.44,346Z"/>
    <path class="cls-4" d="M215,337.11a2.69,2.69,0,0,0,4.23,0"/>
    <path class="cls-4" d="M211.29,339c2.35,2.34,5.63,0,5.63,0"/>
    <path class="cls-3"
          d="M176,316.14c9,0,10.23-7.94,3.8-15.76a4.79,4.79,0,0,0-7.47,0C165.24,309.15,168,316.14,176,316.14Z"/>
    <path class="cls-4"
          d="M176,316.14c9,0,10.25-8,3.69-15.9a4.72,4.72,0,0,0-7.26.05C165.22,309.08,168,316.14,176,316.14Z"/>
    <path class="cls-4" d="M179.59,307.29a2.69,2.69,0,0,0,4.23,0"/>
    <path class="cls-4" d="M175.84,309.17c2.34,2.35,5.63,0,5.63,0"/>
    <path class="cls-3"
          d="M399.49,307.92c9,0,10.24-7.94,3.81-15.76a4.79,4.79,0,0,0-7.47,0C388.75,300.93,391.5,307.92,399.49,307.92Z"/>
    <path class="cls-4"
          d="M399.49,307.92c9,0,10.25-8,3.7-15.9a4.75,4.75,0,0,0-7.27.05C388.72,300.86,391.46,307.92,399.49,307.92Z"/>
    <path class="cls-4" d="M403.1,299.07a2.69,2.69,0,0,0,4.23,0"/>
    <path class="cls-4" d="M399.34,301c2.35,2.35,5.64,0,5.64,0"/>
    <path class="cls-3" d="M277.62,265.74c15,0,15-15.5,0-28.18C261.19,252.59,264.47,265.74,277.62,265.74Z"/>
    <line class="cls-4" x1="277.62" y1="272.31" x2="277.62" y2="252.59"/>
    <line class="cls-4" x1="272.46" y1="255.88" x2="277.15" y2="261.98"/>
    <line class="cls-4" x1="277.62" y1="257.75" x2="283.96" y2="251.42"/>
    <path class="cls-4" d="M277.62,265.74c15,0,15-15.5,0-28.18C261.19,252.59,264.47,265.74,277.62,265.74Z"/>
    <polygon class="cls-5" points="188.95 287.86 188.95 296.31 193.17 294.91 193.17 286.45 188.95 287.86"/>
    <polygon class="cls-5" points="267.83 321.32 267.83 325.55 249.87 328.36 249.87 324.49 267.83 321.32"/>
    <polyline class="cls-5" points="247.05 267.44 247.05 260.75 251.99 261.8 251.99 268.14"/>
    <polygon class="cls-5"
             points="165 221.66 138.94 229.4 143.52 216.73 118.87 211.44 105.48 220.25 105.48 230.46 138.24 239.97 165.35 231.87 165 221.66"/>
    <polyline class="cls-5" points="138.94 239.62 138.94 229.05 105.48 220.25"/>
    <path class="cls-5" d="M143.52,216.73c1.76.35,21.48,4.93,21.48,4.93"/>
    <polyline class="cls-5" points="87.88 298.78 104.43 293.15 114.29 303.01 114.99 315.33 94.22 322.38 84.36 318.5"/>
    <line class="cls-5" x1="114.29" y1="303.01" x2="93.51" y2="310.4"/>
    <path class="cls-3" d="M86.2,321.5c15,0,14.56-.94,0-28.18C73.06,320.56,73.06,321.5,86.2,321.5Z"/>
    <line class="cls-4" x1="86.2" y1="328.07" x2="86.2" y2="308.35"/>
    <line class="cls-4" x1="81.98" y1="314.45" x2="85.73" y2="317.74"/>
    <line class="cls-4" x1="86.2" y1="313.51" x2="90.43" y2="305.53"/>
    <path class="cls-4" d="M86.2,321.5c15,0,14.56-.94,0-28.18C73.06,320.56,73.06,321.5,86.2,321.5Z"/>
    <path class="cls-3" d="M18.83,289.79c15,0,14.55-.94,0-28.17C5.68,288.85,5.68,289.79,18.83,289.79Z"/>
    <line class="cls-4" x1="18.83" y1="296.36" x2="18.83" y2="276.64"/>
    <line class="cls-4" x1="14.6" y1="282.75" x2="18.36" y2="286.03"/>
    <line class="cls-4" x1="18.83" y1="281.81" x2="23.05" y2="273.82"/>
    <path class="cls-4" d="M18.83,289.79c15,0,14.55-.94,0-28.17C5.68,288.85,5.68,289.79,18.83,289.79Z"/>
    <polygon class="cls-8"
             points="517.52 315.68 530.9 303.01 549.56 307.23 579.14 322.38 560.13 319.91 546.04 333.29 517.52 315.68"/>
    <line class="cls-8" x1="560.13" y1="319.91" x2="530.9" y2="303.01"/>
    <polyline class="cls-8" points="579.14 322.38 579.14 337.87 546.75 348.44 517.87 330.48 517.87 316.04"/>
    <line class="cls-8" x1="546.75" y1="348.44" x2="546.75" y2="333.29"/>
    <path class="cls-13" d="M980.85,275.42l67.59,9.48,8.24-20s-61.11-5.81-63.15-6.81l-12.27,17.64v7.24"/>
    <polyline class="cls-13"
              points="999.64 249.65 1027.01 250 1041.39 260.77 1052.96 246.88 1040.35 234.98 1015.22 238.59 999.64 249.65 999.05 257.62"/>
    <path class="cls-8" d="M232.32,345.85l91.8-21.67a3.19,3.19,0,0,0,.37-6.21l-55.95-16.26"/>
    <line class="cls-8" x1="208.43" y1="351.49" x2="226.89" y2="347.13"/>
    <path class="cls-3"
          d="M168,227.17c9.67,0,13.12-6.42,10.34-14.37-3.3-9.46-16.88-9.63-20.41-.25C154.68,221.12,159.07,227.17,168,227.17Z"/>
    <line class="cls-4" x1="167.98" y1="233.74" x2="167.98" y2="214.02"/>
    <line class="cls-4" x1="161.88" y1="218.25" x2="167.51" y2="220.6"/>
    <line class="cls-4" x1="167.98" y1="216.84" x2="174.09" y2="213.55"/>
    <path class="cls-4"
          d="M168,227.17c9.67,0,13.12-6.42,10.34-14.37-3.3-9.46-16.88-9.63-20.41-.25C154.68,221.12,159.07,227.17,168,227.17Z"/>
    <polygon class="cls-8"
             points="314.85 283.99 333.86 289.62 359.75 274.31 359.75 255.46 345.66 243.84 333.86 268.14 315.02 263.21 314.85 283.99"/>
    <line class="cls-8" x1="333.86" y1="268.14" x2="333.86" y2="289.8"/>
    <polyline class="cls-8" points="345.66 243.84 311.15 237.5 304.46 253.35 317.13 256.87"/>
    <line class="cls-8" x1="319.6" y1="251.59" x2="315.02" y2="263.21"/>
    <polyline class="cls-8" points="304.46 253.35 304.46 269.37 315.02 272.37"/>
    <path class="cls-3" d="M363,288.39c15,0,14.56-.94,0-28.17C349.86,287.45,349.86,288.39,363,288.39Z"/>
    <line class="cls-4" x1="363" y1="294.97" x2="363" y2="275.24"/>
    <line class="cls-4" x1="358.78" y1="281.35" x2="362.53" y2="284.64"/>
    <line class="cls-4" x1="363" y1="280.41" x2="367.23" y2="272.43"/>
    <path class="cls-4" d="M363,288.39c15,0,14.56-.94,0-28.17C349.86,287.45,349.86,288.39,363,288.39Z"/>
    <path class="cls-3" d="M732.55,221.14c15,0,14.55-.94,0-28.17C719.4,220.2,719.4,221.14,732.55,221.14Z"/>
    <line class="cls-4" x1="732.55" y1="227.72" x2="732.55" y2="208"/>
    <line class="cls-4" x1="728.32" y1="214.1" x2="732.08" y2="217.39"/>
    <line class="cls-4" x1="732.55" y1="213.16" x2="736.77" y2="205.18"/>
    <path class="cls-4" d="M732.55,221.14c15,0,14.55-.94,0-28.17C719.4,220.2,719.4,221.14,732.55,221.14Z"/>
    <polygon class="cls-3" points="688.8 240.31 730.01 229.51 730.01 209.05 713.35 201.08 688.8 219.85 688.8 240.31"/>
    <polyline class="cls-3" points="697.17 205.9 670.39 215.04 670.39 233.31 688.8 240.31"/>
    <polygon class="cls-28" points="688.8 240.31 730.06 230.46 730.06 209.26 688.8 219.85 688.8 240.31"/>
    <line class="cls-28" x1="697.17" y1="205.9" x2="670.39" y2="215.04"/>
    <polyline class="cls-28"
              points="729.99 209.24 713.43 201.23 701.44 206.98 697.17 205.9 688.8 219.85 670.39 215.04 670.39 233.31 688.8 240.31"/>
    <polygon class="cls-28" points="697.91 233.77 703.07 232.62 703.07 221.15 697.91 222.29 697.91 233.77"/>
    <polygon class="cls-28" points="717.44 233.4 722.61 232.25 722.61 219.35 717.44 220.5 717.44 233.4"/>
    <polyline class="cls-28" points="697.17 205.9 710.26 214.28 713.43 201.23"/>
    <path class="cls-3" d="M683.85,243.37V208.16l-.13-3.95-8.34,1.25-12.93-2.71L639.72,207v36.16L657.09,249Z"/>
    <path class="cls-8" d="M683.85,243.37c0-1.88,0-35.75,0-35.75l-27.21,3.82L639.72,207v36.16L657.09,249Z"/>
    <polyline class="cls-8" points="683.83 207.81 683.86 204.4 656.61 207.96 656.62 211.44 656.62 249.01"/>
    <polyline class="cls-8" points="675.87 205.34 662.24 203.17 639.72 206.98"/>
    <polygon class="cls-8" points="661.32 226.31 665.54 225.37 665.54 215.98 661.32 216.91 661.32 226.31"/>
    <polygon class="cls-8" points="661.32 240.39 665.54 239.45 665.54 230.06 661.32 231 661.32 240.39"/>
    <path class="cls-3" d="M846.79,254.64V219.43l.13-4,8.34,1.25L868.2,214l22.73,4.23v36.16l-17.38,5.87Z"/>
    <path class="cls-8" d="M886.94,255.23l-13.39,5-26.76-5.64V219.43L874,222.71l16.91-4.46-.24,15.85"/>
    <polyline class="cls-8" points="846.79 219.43 846.79 215.67 874.04 219.23 874.02 222.71 874.02 260.28"/>
    <polyline class="cls-8" points="854.77 216.61 868.4 214.44 890.93 218.25"/>
    <polygon class="cls-8" points="869.33 237.57 865.1 236.64 865.1 227.25 869.33 228.18 869.33 237.57"/>
    <polygon class="cls-8" points="869.33 251.66 865.1 250.72 865.1 241.33 869.33 242.27 869.33 251.66"/>
    <path class="cls-16"
          d="M797.76,200.47l-8.68-8.67-13.57,1.86-3.4.81c.48,0,9.63,12.87,9.92,12.77s19.16-3.43,19.16-3.43Z"/>
    <path class="cls-16" d="M790.9,193.8c2.57-.38,12.47-2.48,12.47-2.48l10,8.48.09,9.45c-.09,0-12.68,2.67-12.68,2.67"/>
    <path class="cls-16" d="M813.4,199.8c-1.3.52-13.73,2.49-13.73,2.49"/>
    <path class="cls-16" d="M817.24,191.19l15.89-2.82,11.54,8.86-14.95,3.16-12.48-9.2c.22.17-8.12,2.46-11,2.89"/>
    <polyline class="cls-16" points="844.67 197.23 844.67 209.06 829.7 212.39 813.49 207.34"/>
    <line class="cls-16" x1="829.72" y1="200.39" x2="829.72" y2="212.2"/>
    <path class="cls-16" d="M847.15,197.33c-.48-.19-4.58-1.62-4.58-1.62"/>
    <path class="cls-16" d="M841.24,188.17c.28.1,14.2-2.67,14.2-2.67l11.35,7.73-19.64,4.1-5.91-9.16L835,189.7"/>
    <polyline class="cls-16" points="866.79 193.23 866.79 202.76 847.05 207.15 844.58 206.29"/>
    <line class="cls-16" x1="847.05" y1="207.15" x2="847.05" y2="197.61"/>
    <polyline class="cls-16" points="800.81 203.34 800.81 214.87 781.93 218.88 772.21 214.78"/>
    <path class="cls-16" d="M781.93,218.88c.19-.39,0-11.83,0-11.83"/>
    <path class="cls-8" d="M772.83,185.1c1-.35,19.46.68,19.46.68l11.08,5.54"/>
    <line class="cls-8" x1="792.29" y1="185.78" x2="790.58" y2="192.61"/>
    <path class="cls-3"
          d="M636.56,239.63c10.28,0,13.94-6.83,11-15.28-3.51-10.06-17.95-10.24-21.7-.27C622.42,233.2,627.08,239.63,636.56,239.63Z"/>
    <line class="cls-29" x1="636.56" y1="246.62" x2="636.56" y2="225.65"/>
    <line class="cls-29" x1="630.07" y1="230.14" x2="636.06" y2="232.64"/>
    <line class="cls-29" x1="636.56" y1="228.64" x2="643.05" y2="225.15"/>
    <path class="cls-29"
          d="M636.56,239.63c10.28,0,13.94-6.83,11-15.28-3.51-10.06-17.95-10.24-21.7-.27C622.42,233.2,627.08,239.63,636.56,239.63Z"/>
    <path class="cls-16" d="M763.66,145.14c1.66,0,4.39.36,4.39.36V153l22.19-.68,8.19,10.92v15.36"/>
    <polyline class="cls-16" points="782.73 185.1 790.58 177.59 814.48 179.29 824.03 185.78 824.03 189.88"/>
    <polyline class="cls-16" points="824.03 185.78 810.72 188.51 814.48 179.29"/>
    <line class="cls-16" x1="810.72" y1="188.51" x2="795.7" y2="187.14"/>
    <path class="cls-3"
          d="M211.18,288.21c9.67,0,13.12-6.42,10.34-14.37-3.3-9.46-16.88-9.63-20.41-.25C197.88,282.17,202.26,288.21,211.18,288.21Z"/>
    <line class="cls-4" x1="211.18" y1="294.78" x2="211.18" y2="275.06"/>
    <line class="cls-4" x1="205.08" y1="279.29" x2="210.71" y2="281.64"/>
    <line class="cls-4" x1="211.18" y1="277.88" x2="217.28" y2="274.59"/>
    <path class="cls-4"
          d="M211.18,288.21c9.67,0,13.12-6.42,10.34-14.37-3.3-9.46-16.88-9.63-20.41-.25C197.88,282.17,202.26,288.21,211.18,288.21Z"/>
    <path class="cls-8" d="M441.33,265.09s17.37-8.92,19.25-8.92l3.76,17.37v6.29"/>
    <polyline class="cls-8" points="460.58 256.17 496.27 247.72 523.5 259.45 523.5 263.21"/>
    <path class="cls-8" d="M513.17,254.76s37.1-3.29,38.51-3.29-21.13-16.9-21.13-16.9l-44.61,4.69-13.15,8,8,3.75"/>
    <path class="cls-8" d="M485.94,239.26c-.94,0,.47,10.8.47,10.8"/>
    <path class="cls-3" d="M583.53,257.28c15,0,15-15.49,0-28.17C567.1,244.14,570.39,257.28,583.53,257.28Z"/>
    <line class="cls-4" x1="583.53" y1="263.86" x2="583.53" y2="244.14"/>
    <line class="cls-4" x1="578.37" y1="247.42" x2="583.06" y2="253.53"/>
    <line class="cls-4" x1="583.53" y1="249.3" x2="589.87" y2="242.96"/>
    <path class="cls-4" d="M583.53,257.28c15,0,15-15.49,0-28.17C567.1,244.14,570.39,257.28,583.53,257.28Z"/>
    <path class="cls-3"
          d="M551.61,267.08c9.66,0,13.11-6.42,10.34-14.37-3.3-9.46-16.89-9.63-20.41-.25C538.31,261,542.69,267.08,551.61,267.08Z"/>
    <line class="cls-4" x1="551.61" y1="273.65" x2="551.61" y2="253.93"/>
    <line class="cls-4" x1="545.5" y1="258.16" x2="551.14" y2="260.51"/>
    <line class="cls-4" x1="551.61" y1="256.75" x2="557.71" y2="253.46"/>
    <path class="cls-4"
          d="M551.61,267.08c9.66,0,13.11-6.42,10.34-14.37-3.3-9.46-16.89-9.63-20.41-.25C538.31,261,542.69,267.08,551.61,267.08Z"/>
    <path class="cls-3"
          d="M301.82,275.76c9,0,10.24-7.93,3.81-15.75a4.79,4.79,0,0,0-7.47,0C291.08,268.77,293.83,275.76,301.82,275.76Z"/>
    <path class="cls-4"
          d="M301.82,275.76c9,0,10.25-8,3.7-15.89a4.73,4.73,0,0,0-7.26,0C291.06,268.71,293.8,275.76,301.82,275.76Z"/>
    <path class="cls-4" d="M305.43,266.92a2.69,2.69,0,0,0,4.23,0"/>
    <path class="cls-4" d="M301.67,268.8c2.35,2.35,5.64,0,5.64,0"/>
    <line class="cls-8" x1="472.79" y1="247.25" x2="472.79" y2="253.35"/>
    <polyline class="cls-8" points="465.75 230.34 475.61 239.26 475.14 245.37"/>
    <polyline class="cls-8"
              points="456.36 257.58 415.51 251 415.51 240.2 421.85 225.88 465.75 230.34 457.77 245.37 415.51 240.2"/>
    <path class="cls-3" d="M393.76,237.21c15,0,14.56-.94,0-28.17C380.61,236.27,380.61,237.21,393.76,237.21Z"/>
    <line class="cls-4" x1="393.76" y1="243.78" x2="393.76" y2="224.06"/>
    <line class="cls-4" x1="389.53" y1="230.17" x2="393.29" y2="233.45"/>
    <line class="cls-4" x1="393.76" y1="229.23" x2="397.99" y2="221.25"/>
    <path class="cls-4" d="M393.76,237.21c15,0,14.56-.94,0-28.17C380.61,236.27,380.61,237.21,393.76,237.21Z"/>
    <line class="cls-8" x1="457.77" y1="245.37" x2="457.77" y2="256.87"/>
    <path class="cls-3"
          d="M409.8,248.77c9.67,0,13.12-6.42,10.34-14.37-3.3-9.46-16.88-9.63-20.41-.25C396.5,242.72,400.89,248.77,409.8,248.77Z"/>
    <line class="cls-4" x1="409.8" y1="255.34" x2="409.8" y2="235.62"/>
    <line class="cls-4" x1="403.7" y1="239.85" x2="409.33" y2="242.19"/>
    <line class="cls-4" x1="409.8" y1="238.44" x2="415.9" y2="235.15"/>
    <path class="cls-4"
          d="M409.8,248.77c9.67,0,13.12-6.42,10.34-14.37-3.3-9.46-16.88-9.63-20.41-.25C396.5,242.72,400.89,248.77,409.8,248.77Z"/>
    <path class="cls-13" d="M67.57,334.58v-5.16L42.68,321S23.43,315.33,22,314.39L1.36,328v16l36.16,14.09L67.1,346.79"/>
    <polyline class="cls-13" points="40.8 320.5 37.05 340.69 67.57 329.42"/>
    <polyline class="cls-13" points="1.36 328.01 37.05 340.69 37.05 358.53"/>
    <path class="cls-3"
          d="M67.73,356.06c9.67,0,13.12-6.42,10.34-14.37-3.3-9.46-16.88-9.63-20.41-.25C54.44,350,58.82,356.06,67.73,356.06Z"/>
    <line class="cls-4" x1="67.73" y1="362.63" x2="67.73" y2="342.91"/>
    <line class="cls-4" x1="61.63" y1="347.14" x2="67.26" y2="349.49"/>
    <line class="cls-4" x1="67.73" y1="345.73" x2="73.84" y2="342.44"/>
    <path class="cls-4"
          d="M67.73,356.06c9.67,0,13.12-6.42,10.34-14.37-3.3-9.46-16.88-9.63-20.41-.25C54.44,350,58.82,356.06,67.73,356.06Z"/>
    <line class="cls-13" x1="109.83" y1="297.96" x2="154.44" y2="314.86"/>
    <polyline class="cls-13" points="149.27 204.52 182.61 201.23 233.32 197 238.49 206.87"/>
    <polyline class="cls-13" points="219.7 198.41 232.38 204.99 218.76 215.79 209.14 211.8 188.71 213.91"/>
    <path class="cls-13" d="M232.38,205c2.35,0,13.15,6.1,13.15,6.1v12.68l-26.77,3.52-9.15-4.46L185,226.12"/>
    <path class="cls-3" d="M182.93,227.35c15,0,14.56-.94,0-28.17C169.78,226.41,169.78,227.35,182.93,227.35Z"/>
    <line class="cls-4" x1="182.93" y1="233.92" x2="182.93" y2="214.2"/>
    <line class="cls-4" x1="178.71" y1="220.31" x2="182.46" y2="223.59"/>
    <line class="cls-4" x1="182.93" y1="219.37" x2="187.16" y2="211.39"/>
    <path class="cls-4" d="M182.93,227.35c15,0,14.56-.94,0-28.17C169.78,226.41,169.78,227.35,182.93,227.35Z"/>
    <path class="cls-3" d="M201.71,247.07c15,0,14.56-.94,0-28.17C188.57,246.13,188.57,247.07,201.71,247.07Z"/>
    <line class="cls-4" x1="201.71" y1="253.65" x2="201.71" y2="233.92"/>
    <line class="cls-4" x1="197.49" y1="240.03" x2="201.24" y2="243.31"/>
    <line class="cls-4" x1="201.71" y1="239.09" x2="205.94" y2="231.11"/>
    <path class="cls-4" d="M201.71,247.07c15,0,14.56-.94,0-28.17C188.57,246.13,188.57,247.07,201.71,247.07Z"/>
    <polygon class="cls-5" points="95.27 269.79 95.27 278.47 98.56 279.65 98.56 271.43 95.27 269.79"/>
    <polyline class="cls-5" points="125.56 236.45 125.56 229.17 129.55 230.34 129.55 237.62"/>
    <path class="cls-5" d="M121.57,228.46l-12-3.28v3.28L121.8,232S121.57,227.76,121.57,228.46Z"/>
    <path class="cls-5" d="M218.76,215.79c-.23.7,0,11.74,0,11.74"/>
    <line class="cls-13" x1="209.14" y1="211.8" x2="209.14" y2="222.6"/>
    <polygon class="cls-13" points="236.14 212.97 236.14 221.19 240.36 220.72 240.36 212.74 236.14 212.97"/>
    <polygon class="cls-13" points="220.88 252.18 220.88 257.34 225.34 258.52 225.1 253.35 220.88 252.18"/>
    <polygon class="cls-13" points="228.16 254.53 228.16 259.69 232.62 260.86 232.38 255.7 228.16 254.53"/>
    <polygon class="cls-13" points="327.23 270.96 327.23 282.7 330.52 283.87 330.52 272.13 327.23 270.96"/>
    <polygon class="cls-13" points="338.97 268.38 338.97 279.41 343.43 277.3 343.43 266.5 338.97 268.38"/>
    <path class="cls-13"
          d="M32.23,318.15V307.23s-13.73,4.23-14.43,4.58c0,0-15.5-5.63-16.91-6.34l-36.27-13.38-8.45,14.09"/>
    <polyline class="cls-13" points="0.89 305.47 -8.97 324.14 -42.42 310.05"/>
    <polyline class="cls-13" points="32.23 307.23 -4.04 295.61 -15.31 299.84"/>
    <polyline class="cls-13" points="-8.97 324.14 -8.97 338.22 1.24 334"/>
    <path class="cls-13"
          d="M94.33,251.47v-5.16l-24.88-8.45s-19.26-5.64-20.66-6.58L28.13,244.9v16L64.28,275l29.58-11.27"/>
    <polyline class="cls-13" points="67.57 237.39 63.81 257.58 94.33 246.31"/>
    <polyline class="cls-13" points="28.13 244.9 63.81 257.58 63.81 275.42"/>
    <path class="cls-13" d="M59,235V224.12s-13.74,4.23-14.44,4.58c0,0-15.49-5.64-16.9-6.34L-8.62,209l-8.45,14.08"/>
    <polyline class="cls-13" points="27.66 222.36 17.8 241.03 -15.66 226.94"/>
    <polyline class="cls-13" points="59 224.12 22.73 212.5 11.46 216.73"/>
    <polyline class="cls-13" points="17.8 241.03 17.8 255.11 28.01 250.89"/>
    <path class="cls-13" d="M17.8,255.11c-.71-.7-32.76-13.73-32.76-13.73"/>
    <path class="cls-30" d="M527.58,350.9,507.69,360l28.08,21.41,32.15-9c-1.42-1-28.71-17.21-28.71-17.21Z"/>
    <polyline class="cls-30" points="527.58 350.9 547.21 363.62 535.76 381.43 535.76 396.33"/>
    <path class="cls-30" d="M507.69,360v15.22l27.16,21.09,33.07-10.54s-.71-14,0-13.32l-20.71-8.85"/>
    <path class="cls-30" d="M545,400.56c2.47-.36,43-12.33,43-12.33l34.86,16.9"/>
    <polyline class="cls-30" points="587.95 388.23 580.91 395.98 546.39 400.56"/>
    <path class="cls-30" d="M579.14,395.63c1.06.7,20.78,10.91,20.78,10.91"/>
    <path class="cls-30"
          d="M701.46,313.1s-25-15.49-25.7-15.14l-10.57,3.87-10.92-11.27-14.79-1.05L694.42,273l13,1.06,39.44,20.78L706.75,280s-32.4,10.56-33.81,10.56c0,0-10.57-1.41-12.68-2.11"/>
    <path class="cls-30" d="M746.89,294.79,700.76,312S674.35,292,672.94,290.56"/>
    <path class="cls-30" d="M649.34,308.76l16.2,7.16,10.57-3.17c2.46,1.06,26.76,12.68,26.76,12.68l44.37-18.67V295.14"/>
    <line class="cls-30" x1="675.76" y1="297.96" x2="675.76" y2="312.75"/>
    <line class="cls-30" x1="665.19" y1="301.83" x2="665.19" y2="315.92"/>
    <path class="cls-30" d="M710.5,343.86l10.92,5.28s-31.84,5.79-39.1,6.61a7.75,7.75,0,0,1-1.4.08Z"/>
    <path class="cls-30" d="M680.92,355.83c0,1.41,60.22,25,60.22,25l-4.93-25-14.79-6.69"/>
    <polyline class="cls-30" points="710.5 343.86 764.03 363.58 736.21 355.83"/>
    <polyline class="cls-30"
              points="741.14 380.83 764.03 363.58 764.03 381.54 741.14 397.39 680.92 370.27 680.92 355.75"/>
    <line class="cls-30" x1="741.14" y1="379.43" x2="741.14" y2="397.39"/>
    <path class="cls-31" d="M825.71,273.55l1.12,3.28s-20.12,6.77-26.71,7.51a6.37,6.37,0,0,1-1.27.08Z"/>
    <path class="cls-31" d="M798.85,284.42c0,1.28,54.67,14.24,54.67,14.24l.08-14.79-26.77-7"/>
    <polyline class="cls-31" points="825.71 273.55 874.3 283 854.07 283.87"/>
    <polyline class="cls-31" points="853.52 298.66 874.3 283 874.3 299.3 853.52 313.69 798.85 297.53 798.85 284.34"/>
    <line class="cls-31" x1="853.52" y1="297.38" x2="853.52" y2="313.69"/>
    <path class="cls-30"
          d="M531.6,212.85v10.21L577,230.81l11.62-6.69V211.44l-10.21-4.93s-31.23-3.62-35.57-4.22l-.49-.08Z"/>
    <polyline class="cls-30" points="531.6 212.85 575.98 219.19 578.44 206.51"/>
    <path class="cls-30" d="M588.65,211.44c-.7.71-12.67,7.75-12.67,7.75v11.62"/>
    <path class="cls-30" d="M328.76,240.67c-1.06-.7-8.1-12.32-8.1-12.32l52.47-2.47,10.56,15.5-.7,10.56-24.65,1.76"/>
    <line class="cls-30" x1="383.69" y1="241.38" x2="340.38" y2="242.43"/>
    <line class="cls-30" x1="320.66" y1="228.35" x2="320.66" y2="239.62"/>
    <path class="cls-3"
          d="M370.59,256.05c9.67,0,13.12-6.42,10.34-14.37-3.3-9.46-16.88-9.63-20.41-.26C357.3,250,361.68,256.05,370.59,256.05Z"/>
    <line class="cls-4" x1="370.59" y1="262.62" x2="370.59" y2="242.9"/>
    <line class="cls-4" x1="364.49" y1="247.13" x2="370.12" y2="249.47"/>
    <line class="cls-4" x1="370.59" y1="245.72" x2="376.7" y2="242.43"/>
    <path class="cls-4"
          d="M370.59,256.05c9.67,0,13.12-6.42,10.34-14.37-3.3-9.46-16.88-9.63-20.41-.26C357.3,250,361.68,256.05,370.59,256.05Z"/>
    <path class="cls-3"
          d="M94.66,255.56c9.67,0,13.12-6.42,10.34-14.37-3.3-9.46-16.88-9.63-20.41-.25C81.37,249.51,85.75,255.56,94.66,255.56Z"/>
    <line class="cls-4" x1="94.66" y1="262.13" x2="94.66" y2="242.41"/>
    <line class="cls-4" x1="88.56" y1="246.64" x2="94.19" y2="248.98"/>
    <line class="cls-4" x1="94.66" y1="245.23" x2="100.77" y2="241.94"/>
    <path class="cls-4"
          d="M94.66,255.56c9.67,0,13.12-6.42,10.34-14.37-3.3-9.46-16.88-9.63-20.41-.25C81.37,249.51,85.75,255.56,94.66,255.56Z"/>
    <path class="cls-3"
          d="M67.73,282.11c9.67,0,13.12-6.42,10.34-14.37-3.3-9.46-16.88-9.63-20.41-.26C54.44,276.06,58.82,282.11,67.73,282.11Z"/>
    <line class="cls-4" x1="67.73" y1="288.68" x2="67.73" y2="268.96"/>
    <line class="cls-4" x1="61.63" y1="273.19" x2="67.26" y2="275.53"/>
    <line class="cls-4" x1="67.73" y1="271.78" x2="73.84" y2="268.49"/>
    <path class="cls-4"
          d="M67.73,282.11c9.67,0,13.12-6.42,10.34-14.37-3.3-9.46-16.88-9.63-20.41-.26C54.44,276.06,58.82,282.11,67.73,282.11Z"/>
    <path class="cls-3" d="M66.32,303.07c15,0,15-15.5,0-28.18C49.89,289.92,53.18,303.07,66.32,303.07Z"/>
    <line class="cls-4" x1="66.32" y1="309.64" x2="66.32" y2="289.92"/>
    <line class="cls-4" x1="61.16" y1="293.21" x2="65.85" y2="299.31"/>
    <line class="cls-4" x1="66.32" y1="295.08" x2="72.66" y2="288.74"/>
    <path class="cls-4" d="M66.32,303.07c15,0,15-15.5,0-28.18C49.89,289.92,53.18,303.07,66.32,303.07Z"/>
    <path class="cls-3" d="M134.66,322c15,0,15-15.49,0-28.17C118.23,308.82,121.52,322,134.66,322Z"/>
    <line class="cls-4" x1="134.66" y1="328.54" x2="134.66" y2="308.82"/>
    <line class="cls-4" x1="129.5" y1="312.1" x2="134.2" y2="318.21"/>
    <line class="cls-4" x1="134.66" y1="313.98" x2="141" y2="307.64"/>
    <path class="cls-4" d="M134.66,322c15,0,15-15.49,0-28.17C118.23,308.82,121.52,322,134.66,322Z"/>
    <path class="cls-3" d="M419.19,377.72c15,0,15-15.49,0-28.17C402.76,364.58,406,377.72,419.19,377.72Z"/>
    <line class="cls-4" x1="419.19" y1="384.3" x2="419.19" y2="364.58"/>
    <line class="cls-4" x1="414.03" y1="367.86" x2="418.72" y2="373.97"/>
    <line class="cls-4" x1="419.19" y1="369.74" x2="425.53" y2="363.4"/>
    <path class="cls-4" d="M419.19,377.72c15,0,15-15.49,0-28.17C402.76,364.58,406,377.72,419.19,377.72Z"/>
    <path class="cls-3" d="M509.29,338.27c15,0,15-15.49,0-28.17C492.85,325.13,496.14,338.27,509.29,338.27Z"/>
    <line class="cls-4" x1="509.29" y1="344.85" x2="509.29" y2="325.13"/>
    <line class="cls-4" x1="504.12" y1="328.41" x2="508.82" y2="334.52"/>
    <line class="cls-4" x1="509.29" y1="330.29" x2="515.63" y2="323.95"/>
    <path class="cls-4" d="M509.29,338.27c15,0,15-15.49,0-28.17C492.85,325.13,496.14,338.27,509.29,338.27Z"/>
    <path class="cls-3"
          d="M496.67,352.5c9.67,0,13.12-6.42,10.34-14.37-3.3-9.46-16.88-9.63-20.41-.25C483.38,346.46,487.76,352.5,496.67,352.5Z"/>
    <line class="cls-4" x1="496.67" y1="359.07" x2="496.67" y2="339.35"/>
    <line class="cls-4" x1="490.57" y1="343.58" x2="496.2" y2="345.93"/>
    <line class="cls-4" x1="496.67" y1="342.17" x2="502.78" y2="338.88"/>
    <path class="cls-4"
          d="M496.67,352.5c9.67,0,13.12-6.42,10.34-14.37-3.3-9.46-16.88-9.63-20.41-.25C483.38,346.46,487.76,352.5,496.67,352.5Z"/>
    <path class="cls-3"
          d="M585.41,346.9c9.67,0,13.12-6.41,10.34-14.37-3.3-9.45-16.88-9.62-20.41-.25C572.12,340.86,576.5,346.9,585.41,346.9Z"/>
    <line class="cls-4" x1="585.41" y1="353.48" x2="585.41" y2="333.76"/>
    <line class="cls-4" x1="579.31" y1="337.98" x2="584.94" y2="340.33"/>
    <line class="cls-4" x1="585.41" y1="336.57" x2="591.52" y2="333.29"/>
    <path class="cls-4"
          d="M585.41,346.9c9.67,0,13.12-6.41,10.34-14.37-3.3-9.45-16.88-9.62-20.41-.25C572.12,340.86,576.5,346.9,585.41,346.9Z"/>
    <path class="cls-3" d="M580.64,383.48c15,0,14.56-.94,0-28.18C567.49,382.54,567.49,383.48,580.64,383.48Z"/>
    <line class="cls-4" x1="580.64" y1="390.05" x2="580.64" y2="370.33"/>
    <line class="cls-4" x1="576.42" y1="376.43" x2="580.17" y2="379.72"/>
    <line class="cls-4" x1="580.64" y1="375.49" x2="584.87" y2="367.51"/>
    <path class="cls-4" d="M580.64,383.48c15,0,14.56-.94,0-28.18C567.49,382.54,567.49,383.48,580.64,383.48Z"/>
    <path class="cls-3"
          d="M1018.81,361.44c13.71,0,18.6-9.1,14.66-20.37-4.67-13.41-23.93-13.65-28.93-.36C1000,352.87,1006.18,361.44,1018.81,361.44Z"/>
    <line class="cls-32" x1="1018.81" y1="370.76" x2="1018.81" y2="342.8"/>
    <line class="cls-32" x1="1010.16" y1="348.79" x2="1018.15" y2="352.12"/>
    <line class="cls-32" x1="1018.81" y1="346.8" x2="1027.47" y2="342.14"/>
    <path class="cls-32"
          d="M1018.81,361.44c13.71,0,18.6-9.1,14.66-20.37-4.67-13.41-23.93-13.65-28.93-.36C1000,352.87,1006.18,361.44,1018.81,361.44Z"/>
    <path class="cls-3" d="M1021.29,390.22c21.3,0,20.64-1.33,0-39.94C1002.65,388.89,1002.65,390.22,1021.29,390.22Z"/>
    <line class="cls-32" x1="1021.29" y1="399.54" x2="1021.29" y2="371.58"/>
    <line class="cls-32" x1="1015.3" y1="380.24" x2="1020.63" y2="384.9"/>
    <line class="cls-32" x1="1021.29" y1="378.91" x2="1027.28" y2="367.59"/>
    <path class="cls-32" d="M1021.29,390.22c21.3,0,20.64-1.33,0-39.94C1002.65,388.89,1002.65,390.22,1021.29,390.22Z"/>
    <path class="cls-3" d="M997.68,396.71c21.31,0,21.31-22,0-39.94C974.39,378.07,979.05,396.71,997.68,396.71Z"/>
    <line class="cls-32" x1="997.68" y1="406.03" x2="997.68" y2="378.07"/>
    <line class="cls-32" x1="990.36" y1="382.73" x2="997.02" y2="391.39"/>
    <line class="cls-32" x1="997.68" y1="385.4" x2="1006.67" y2="376.41"/>
    <path class="cls-32" d="M997.68,396.71c21.31,0,21.31-22,0-39.94C974.39,378.07,979.05,396.71,997.68,396.71Z"/>
    <line class="cls-13" x1="973.53" y1="340.05" x2="973.53" y2="367.45"/>
    <line class="cls-8" x1="730.34" y1="129.62" x2="762.97" y2="129.62"/>
    <line class="cls-8" x1="738.79" y1="135.02" x2="762.5" y2="135.02"/>
    <path class="cls-8" d="M747.71,140.42h15"/>
    <path class="cls-8" d="M755.93,127.51c-.23.71,0,18.78,0,18.78"/>
    <line class="cls-8" x1="746.31" y1="128.69" x2="746.31" y2="138.08"/>
    <polyline class="cls-8" points="620.93 209.92 620.93 206.63 632.44 199.35 667.89 194.89 676.58 201.94"/>
    <path class="cls-8" d="M632.44,199.35c.7,1.18,7.23,10.65,7.23,10.65"/>
    <path class="cls-8" d="M731.75,190.9s-39.21-3.76-39.91-4.23c0,0-9.16,11-8.45,11"/>
    <path class="cls-8" d="M684.32,199.35c1.18.24,24.89,4,24.89,4"/>
    <polyline class="cls-8" points="712.03 189.02 712.03 175.88 736.21 178.22"/>
    <path class="cls-8" d="M712,175.88c1.41-.71,24.88-2.82,24.88-2.82l5.64.28"/>
    <polyline class="cls-8" points="699.12 187.26 699.12 171.18 672.59 171.18 661.32 171.88 661.32 195.6"/>
    <path class="cls-8" d="M661.32,171.88c1.64.71,19.95,1.41,19.95,1.41v20.62"/>
    <line class="cls-8" x1="681.27" y1="173.29" x2="699.12" y2="171.18"/>
    <line class="cls-16" x1="803.12" y1="131.03" x2="835.99" y2="131.03"/>
    <path class="cls-16" d="M863,190.67c.23-.71,0-23.25,0-23.25l30.52,3.06-.24,27.7c-.7.23-26.52-2.82-26.52-2.82"/>
    <path class="cls-16"
          d="M893.27,198.18c1.65-.24,12.45-3.52,12.45-3.52l-.47-26.06L891,167.54c1.41-.47,10.1-1.88,10.1-1.88l-15.85-.58L863,167.42"/>
    <line class="cls-16" x1="901.14" y1="165.66" x2="901.14" y2="167.78"/>
    <line class="cls-16" x1="905.25" y1="168.6" x2="893.51" y2="170.48"/>
    <path class="cls-8" d="M862.75,174.47c-.7-.47-22.3-.24-22.3-.24l-8,4.93v9.21"/>
    <path class="cls-8" d="M832.47,179.16c.94.71,15.49,1.65,15.49,1.65l-7.51-6.58"/>
    <path class="cls-8" d="M848,180.81c1.65-.24,14.79-.47,14.79-.47"/>
    <path class="cls-16" d="M832.23,181.51C830.82,181.27,817,181,817,181"/>
    <path class="cls-16" d="M798.19,172.35c1.17.24,7.51-3.52,7.51-3.52l7.75,5.64,8.45-1.18"/>
    <path class="cls-16" d="M821.67,167s-14.56,1.41-16,1.88"/>
    <line class="cls-16" x1="804.76" y1="169.54" x2="798.43" y2="164.37"/>
    <line class="cls-16" x1="813.45" y1="174.47" x2="813.45" y2="178.93"/>
    <polyline class="cls-8" points="612.25 185.97 626.1 187.14 638.78 193.72 623.52 197.71 616.71 197"/>
    <line class="cls-8" x1="638.92" y1="193.58" x2="638.92" y2="198.34"/>
    <line class="cls-8" x1="623.52" y1="197.71" x2="623.52" y2="205.22"/>
    <polyline class="cls-8" points="593.23 201 593.23 206.87 608.49 209.21"/>
    <line class="cls-8" x1="575.15" y1="187.38" x2="583.61" y2="187.38"/>
    <path class="cls-8" d="M568.11,184.09c.7-.47,4-2.58,4-2.58l8,3.76v1.64"/>
    <path class="cls-8" d="M572.1,181.51c-.7,0-19.72-.94-19.72-.94l-8,7.51,13.85.94"/>
    <polyline class="cls-8" points="544.4 188.08 544.4 198.88 556.61 200.29"/>
    <polyline class="cls-8" points="583.14 200.06 583.14 203.34 576.09 202.41"/>
    <path class="cls-8" d="M583.14,203.34a48.79,48.79,0,0,1,5.16-1.87"/>
    <path class="cls-8"
          d="M584.08,288.57c2.81.94,26.29,12.68,26.29,12.68l24.42-7.05,14.55,11.27-46.48,16-31.93-18.79Z"/>
    <path class="cls-8" d="M584.08,288.57c1.4.94,19.25,3.75,19.25,3.75l14.08,6.58"/>
    <path class="cls-8" d="M570.93,302.65c-.94.47,0,15.5,0,15.5"/>
    <path class="cls-8" d="M596.28,335.05c1.41.47,7.05,4.7,7.05,4.7l-.47-18.31"/>
    <polyline class="cls-8" points="624.93 331.3 649.81 322.38 649.81 305.94"/>
    <line class="cls-8" x1="603.33" y1="339.75" x2="611.31" y2="336.46"/>
    <line class="cls-30" x1="639.48" y1="289.51" x2="639.48" y2="297.49"/>
    <path class="cls-8"
          d="M675.17,401.73,640.89,385.3c1.88,0,27.23,5.63,27.23,5.63l12.21,5.16s16-8,17.38-7.51,33.8,14.09,33.8,14.09"/>
    <line class="cls-8" x1="640.89" y1="385.3" x2="627.27" y2="402.67"/>
    <path class="cls-8" d="M700.52,272.6l21.75-6.44a12.67,12.67,0,0,1,7.22,0l27,8a7.32,7.32,0,0,1,.37,13.91h0"/>
    <path class="cls-3" d="M653,334.76c15,0,15-15.49,0-28.17C636.59,321.61,639.88,334.76,653,334.76Z"/>
    <line class="cls-4" x1="653.03" y1="341.33" x2="653.03" y2="321.61"/>
    <line class="cls-4" x1="647.86" y1="324.9" x2="652.56" y2="331"/>
    <line class="cls-4" x1="653.03" y1="326.78" x2="659.37" y2="320.44"/>
    <path class="cls-4" d="M653,334.76c15,0,15-15.49,0-28.17C636.59,321.61,639.88,334.76,653,334.76Z"/>
    <path class="cls-3" d="M619.22,389.23c15,0,15-15.5,0-28.17C602.79,376.08,606.07,389.23,619.22,389.23Z"/>
    <line class="cls-4" x1="619.22" y1="395.8" x2="619.22" y2="376.08"/>
    <line class="cls-4" x1="614.06" y1="379.37" x2="618.75" y2="385.47"/>
    <line class="cls-4" x1="619.22" y1="381.25" x2="625.56" y2="374.91"/>
    <path class="cls-4" d="M619.22,389.23c15,0,15-15.5,0-28.17C602.79,376.08,606.07,389.23,619.22,389.23Z"/>
    <path class="cls-3"
          d="M679.32,377.43c9.67,0,13.12-6.42,10.34-14.38-3.3-9.45-16.88-9.62-20.41-.25C666,371.38,670.41,377.43,679.32,377.43Z"/>
    <line class="cls-4" x1="679.32" y1="384" x2="679.32" y2="364.28"/>
    <line class="cls-4" x1="673.22" y1="368.5" x2="678.85" y2="370.85"/>
    <line class="cls-4" x1="679.32" y1="367.1" x2="685.43" y2="363.81"/>
    <path class="cls-4"
          d="M679.32,377.43c9.67,0,13.12-6.42,10.34-14.38-3.3-9.45-16.88-9.62-20.41-.25C666,371.38,670.41,377.43,679.32,377.43Z"/>
    <path class="cls-3" d="M749.76,263.39c15,0,15-15.5,0-28.17C733.32,250.24,736.61,263.39,749.76,263.39Z"/>
    <line class="cls-4" x1="749.76" y1="269.96" x2="749.76" y2="250.24"/>
    <line class="cls-4" x1="744.59" y1="253.53" x2="749.29" y2="259.63"/>
    <line class="cls-4" x1="749.76" y1="255.41" x2="756.09" y2="249.07"/>
    <path class="cls-4" d="M749.76,263.39c15,0,15-15.5,0-28.17C733.32,250.24,736.61,263.39,749.76,263.39Z"/>
    <path class="cls-3"
          d="M704.68,327.18c9.67,0,13.12-6.41,10.34-14.37-3.3-9.45-16.88-9.62-20.41-.25C691.38,321.14,695.76,327.18,704.68,327.18Z"/>
    <line class="cls-4" x1="704.68" y1="333.76" x2="704.68" y2="314.04"/>
    <line class="cls-4" x1="698.57" y1="318.26" x2="704.21" y2="320.61"/>
    <line class="cls-4" x1="704.68" y1="316.85" x2="710.78" y2="313.57"/>
    <path class="cls-4"
          d="M704.68,327.18c9.67,0,13.12-6.41,10.34-14.37-3.3-9.45-16.88-9.62-20.41-.25C691.38,321.14,695.76,327.18,704.68,327.18Z"/>
    <polyline class="cls-16" points="905.25 189.96 917.93 192.78 945.63 187.14 945.63 176.81 917.93 174 905.25 174.94"/>
    <polyline class="cls-16" points="945.63 176.81 917.93 181.51 905.72 179.63"/>
    <line class="cls-16" x1="917.93" y1="181.51" x2="917.93" y2="192.78"/>
    <polygon class="cls-16" points="274.17 189.02 325.82 186.68 336.15 200.29 280.27 203.58 274.17 189.02"/>
    <path class="cls-16" d="M274.17,189c-.47,0-8.45,8.92-8.45,8.92V212.5l13.62,7,16.9-.94"/>
    <polyline class="cls-16" points="336.15 200.29 336.15 215.79 300.94 217.66"/>
    <line class="cls-16" x1="280.28" y1="203.58" x2="280.28" y2="219.07"/>
    <polyline class="cls-8" points="500.02 220.48 500.02 210.62 506.6 211.56 506.6 220.48"/>
    <path class="cls-3"
          d="M355.8,207.92c9.67,0,13.12-6.42,10.34-14.37-3.3-9.46-16.88-9.63-20.41-.26C342.51,201.87,346.89,207.92,355.8,207.92Z"/>
    <line class="cls-4" x1="355.8" y1="214.49" x2="355.8" y2="194.77"/>
    <line class="cls-4" x1="349.7" y1="199" x2="355.33" y2="201.34"/>
    <line class="cls-4" x1="355.8" y1="197.59" x2="361.91" y2="194.3"/>
    <path class="cls-4"
          d="M355.8,207.92c9.67,0,13.12-6.42,10.34-14.37-3.3-9.46-16.88-9.63-20.41-.26C342.51,201.87,346.89,207.92,355.8,207.92Z"/>
    <path class="cls-3" d="M470.84,197.18c15,0,15-15.49,0-28.17C454.41,184,457.69,197.18,470.84,197.18Z"/>
    <line class="cls-4" x1="470.84" y1="203.76" x2="470.84" y2="184.03"/>
    <line class="cls-4" x1="465.68" y1="187.32" x2="470.37" y2="193.43"/>
    <line class="cls-4" x1="470.84" y1="189.2" x2="477.18" y2="182.86"/>
    <path class="cls-4" d="M470.84,197.18c15,0,15-15.49,0-28.17C454.41,184,457.69,197.18,470.84,197.18Z"/>
    <path class="cls-3"
          d="M453.89,206.46c9.67,0,13.12-6.42,10.34-14.37-3.3-9.46-16.88-9.63-20.41-.25C440.6,200.41,445,206.46,453.89,206.46Z"/>
    <line class="cls-4" x1="453.89" y1="213.03" x2="453.89" y2="193.31"/>
    <line class="cls-4" x1="447.79" y1="197.54" x2="453.42" y2="199.88"/>
    <line class="cls-4" x1="453.89" y1="196.13" x2="460" y2="192.84"/>
    <path class="cls-4"
          d="M453.89,206.46c9.67,0,13.12-6.42,10.34-14.37-3.3-9.46-16.88-9.63-20.41-.25C440.6,200.41,445,206.46,453.89,206.46Z"/>
    <line class="cls-8" x1="737.15" y1="268.38" x2="723.53" y2="273.54"/>
    <line class="cls-8" x1="745.13" y1="270.72" x2="735.27" y2="274.95"/>
    <path class="cls-8"
          d="M609,338.81v9.39l14.56,8L639,350.55V340.22l-8.45-5.17-11.27-6.57L609,338.81l14.56,6.57v10.8"/>
    <polyline class="cls-8" points="630.56 335.05 623.52 345.38 639.01 340.22"/>
    <path class="cls-3"
          d="M654.44,352.07c9.67,0,13.11-6.42,10.34-14.37-3.3-9.46-16.89-9.63-20.41-.25C641.14,346,645.52,352.07,654.44,352.07Z"/>
    <line class="cls-4" x1="654.44" y1="358.64" x2="654.44" y2="338.92"/>
    <line class="cls-4" x1="648.33" y1="343.15" x2="653.97" y2="345.5"/>
    <line class="cls-4" x1="654.44" y1="341.74" x2="660.54" y2="338.45"/>
    <path class="cls-4"
          d="M654.44,352.07c9.67,0,13.11-6.42,10.34-14.37-3.3-9.46-16.89-9.63-20.41-.25C641.14,346,645.52,352.07,654.44,352.07Z"/>
    <path class="cls-3" d="M641.29,364.34c15,0,15-15.49,0-28.17C624.86,351.2,628.14,364.34,641.29,364.34Z"/>
    <line class="cls-4" x1="641.29" y1="370.92" x2="641.29" y2="351.2"/>
    <line class="cls-4" x1="636.12" y1="354.48" x2="640.82" y2="360.59"/>
    <line class="cls-4" x1="641.29" y1="356.36" x2="647.63" y2="350.02"/>
    <path class="cls-4" d="M641.29,364.34c15,0,15-15.49,0-28.17C624.86,351.2,628.14,364.34,641.29,364.34Z"/>
    <polyline class="cls-16" points="695.83 166.95 653.1 166.95 653.1 181.51"/>
    <path class="cls-16" d="M661.08,182H636.66l7.52,8.92c1.88,0,16.9-.94,16.9-.94"/>
    <path class="cls-16" d="M636.66,182v10.7"/>
    <line class="cls-16" x1="644.18" y1="190.9" x2="644.04" y2="197.61"/>
    <path class="cls-16" d="M653.57,172.59h-47s-10.8,6.57-12.2,7"/>
    <polyline class="cls-16" points="621.64 186.87 621.64 177.28 647.93 177.28 647.93 181.51"/>
    <line class="cls-13" x1="149.27" y1="204.52" x2="149.27" y2="217.67"/>
    <polyline class="cls-13" points="250.22 201.7 238.49 196.07 238.49 184.33 257.27 179.16 263.84 191.84"/>
    <path class="cls-13" d="M238.49,184.33c1.87.94,21.12,7,21.12,7"/>
    <path class="cls-13" d="M257.27,179.16c2.34,0,23.76-2.35,23.76-2.35l13.15,10.8"/>
    <path class="cls-3"
          d="M261.54,211.42c9.67,0,13.12-6.42,10.34-14.37-3.3-9.46-16.88-9.63-20.41-.25C248.24,205.37,252.62,211.42,261.54,211.42Z"/>
    <line class="cls-4" x1="261.54" y1="217.99" x2="261.54" y2="198.27"/>
    <line class="cls-4" x1="255.44" y1="202.5" x2="261.07" y2="204.85"/>
    <line class="cls-4" x1="261.54" y1="201.09" x2="267.64" y2="197.8"/>
    <path class="cls-4"
          d="M261.54,211.42c9.67,0,13.12-6.42,10.34-14.37-3.3-9.46-16.88-9.63-20.41-.25C248.24,205.37,252.62,211.42,261.54,211.42Z"/>
    <path class="cls-30"
          d="M816.5,306.88l-1.88,13.62,16-8.92-14.09-4.7L794,301.71s-26.76,14.09-30.05,15.5l-16,6.57,25.35,10.8,29.59-17.84,11.73,3.76v16.9"/>
    <polyline class="cls-30" points="763.91 317.21 773.3 334.58 773.3 351.49"/>
    <polyline class="cls-30"
              points="747.95 323.78 747.95 339.75 773.77 351.49 803.83 332.7 815.56 337.4 831.06 327.07 831.06 311.11"/>
    <line class="cls-30" x1="803.83" y1="332.71" x2="803.83" y2="316.74"/>
    <polyline class="cls-30" points="846.55 222.83 832.47 220.95 819.32 232.22 847.02 237.86"/>
    <polyline class="cls-30" points="819.32 232.22 819.32 241.61 847.49 248.66"/>
    <path class="cls-31" d="M798.19,290s-23.48-7.52-24.89-8V259.92l24-5.63,30,5.63v13.62"/>
    <polyline class="cls-31" points="827.3 259.93 802.42 266.5 802.42 282.46"/>
    <line class="cls-31" x1="802.42" y1="266.5" x2="773.3" y2="259.92"/>
    <polyline class="cls-8" points="877.54 215.79 880.83 211.56 904.31 215.32 914.17 221.89 914.17 228.47"/>
    <path class="cls-8" d="M940,255.7l-17.38,12.68.47-22.54c1.41-2.35,8-15,8-15L940,240.2Z"/>
    <polyline class="cls-8" points="931.07 230.81 899.61 225.65 887.88 237.39 887.88 260.39 923.56 268.38"/>
    <line class="cls-8" x1="887.41" y1="238.79" x2="923.09" y2="245.84"/>
    <path class="cls-8"
          d="M940.93,241.61c1.41-.47,6.11-4.22,6.11-4.22l9.86,1.87,6.57-5.63v-9.39L956,216.73l-13.15-.94L916.52,228"/>
    <path class="cls-8" d="M956,216.73,955.49,228l-8.92-2.35s-1.88-7.52-3.76-10.33"/>
    <polyline class="cls-8" points="963.47 224.24 955.49 228 955.49 238.32"/>
    <path class="cls-8" d="M947,237.39s-1.18-11-.47-11.74l-14.09,7.51"/>
    <path class="cls-8" d="M899.14,214.38c1.88,0,19.26-5.64,19.26-5.64l16.9,1.88v8"/>
    <line class="cls-8" x1="935.3" y1="210.62" x2="910.41" y2="219.54"/>
    <path class="cls-13" d="M1019.77,302.18c.05,1.41,0,23.48,0,23.48"/>
    <polyline class="cls-13" points="947.98 201.7 947.98 172.12 977.09 167.42 997.75 167.42 997.75 189.02"/>
    <g class="cls-33">
        <path class="cls-3" d="M940.36,213.29c12.07,0,12.07-12.45,0-22.63C927.16,202.73,929.8,213.29,940.36,213.29Z"/>
        <line class="cls-34" x1="940.36" y1="218.56" x2="940.36" y2="202.73"/>
        <line class="cls-34" x1="936.21" y1="205.37" x2="939.98" y2="210.27"/>
        <line class="cls-34" x1="940.36" y1="206.88" x2="945.45" y2="201.79"/>
        <path class="cls-34" d="M940.36,213.29c12.07,0,12.07-12.45,0-22.63C927.16,202.73,929.8,213.29,940.36,213.29Z"/>
    </g>
    <path class="cls-3"
          d="M944.15,254.87c9.67,0,13.12-6.41,10.34-14.37-3.3-9.45-16.88-9.62-20.41-.25C930.85,248.83,935.23,254.87,944.15,254.87Z"/>
    <line class="cls-4" x1="944.15" y1="261.45" x2="944.15" y2="241.73"/>
    <line class="cls-4" x1="938.05" y1="245.95" x2="943.68" y2="248.3"/>
    <line class="cls-4" x1="944.15" y1="244.54" x2="950.25" y2="241.26"/>
    <path class="cls-4"
          d="M944.15,254.87c9.67,0,13.12-6.41,10.34-14.37-3.3-9.45-16.88-9.62-20.41-.25C930.85,248.83,935.23,254.87,944.15,254.87Z"/>
    <path class="cls-3"
          d="M883.58,253.93c9.67,0,13.11-6.41,10.34-14.37-3.3-9.45-16.88-9.62-20.41-.25C870.28,247.89,874.66,253.93,883.58,253.93Z"/>
    <line class="cls-4" x1="883.58" y1="260.51" x2="883.58" y2="240.79"/>
    <line class="cls-4" x1="877.47" y1="245.01" x2="883.11" y2="247.36"/>
    <line class="cls-4" x1="883.58" y1="243.6" x2="889.68" y2="240.32"/>
    <path class="cls-4"
          d="M883.58,253.93c9.67,0,13.11-6.41,10.34-14.37-3.3-9.45-16.88-9.62-20.41-.25C870.28,247.89,874.66,253.93,883.58,253.93Z"/>
    <path class="cls-3" d="M805.56,236.74c15,0,14.55-.94,0-28.17C792.41,235.8,792.41,236.74,805.56,236.74Z"/>
    <line class="cls-4" x1="805.56" y1="243.31" x2="805.56" y2="223.59"/>
    <line class="cls-4" x1="801.33" y1="229.7" x2="805.09" y2="232.98"/>
    <line class="cls-4" x1="805.56" y1="228.76" x2="809.78" y2="220.78"/>
    <path class="cls-4" d="M805.56,236.74c15,0,14.55-.94,0-28.17C792.41,235.8,792.41,236.74,805.56,236.74Z"/>
    <path class="cls-30" d="M756.87,297.49l8.06,2.63a5.73,5.73,0,0,1,.72,10.61l-44.47,21.51"/>
    <polyline class="cls-8" points="955.87 146.76 955.87 106.46 999.92 106.46 999.92 138.31"/>
    <line class="cls-16" x1="971.35" y1="150.99" x2="971.35" y2="167.89"/>
    <polyline class="cls-16" points="947.98 172.12 973.33 174 973.33 198.88"/>
    <path class="cls-16"
          d="M962.53,224.71l9.86,1.41s14.09-8,14.09-8.92V206.87l-10.33-5.17H959.72c-1.88.47-10.33,8.92-10.33,8.92l.47,4.7"/>
    <polyline class="cls-16" points="976.15 201.7 971.46 212.97 949.39 211.09"/>
    <path class="cls-16" d="M986.48,206.87c-.94.46-15,6.1-15,6.1v13.15"/>
    <polyline class="cls-13"
              points="981.32 204.05 981.32 196.07 1004.79 185.74 1015.59 185.74 1015.59 198.41 992.59 213.44 986.95 212.5"/>
    <polyline class="cls-13" points="981.32 196.07 993.52 197 1015.59 185.74"/>
    <line class="cls-13" x1="993.52" y1="197" x2="993.52" y2="213.44"/>
    <path class="cls-13" d="M973.33,174c1.41,1.41,24.42-6.58,24.42-6.58"/>
    <path class="cls-13" d="M1000.57,186.67c.94-1.4,0-15,0-15l22.07-3.76,8.45,10.33-19.25,4.7-10.33-10.33"/>
    <polyline class="cls-13" points="1031.09 178.22 1031.09 188.08 1016.06 193.25"/>
    <path class="cls-13" d="M1062.55,185.74l-25.83.93-16.9,11.27s0,20.19-.47,22.07"/>
    <path class="cls-16" d="M926.85,160.38c-1.18,1.17-40.38,0-40.38,0"/>
    <polyline class="cls-16" points="478.9 177.28 523.5 177.28 528.67 186.68"/>
    <polyline class="cls-16" points="525.38 188.55 483.12 188.55 483.12 200.76"/>
    <path class="cls-16" d="M412.22,182h23l5.63,7.51v10.8"/>
    <line class="cls-16" x1="440.86" y1="189.49" x2="416.45" y2="189.49"/>
    <polyline class="cls-16" points="428.65 181.04 428.65 175.88 463.4 175.88"/>
    <polyline class="cls-16" points="558.72 179.63 562.48 174 589.71 174"/>
    <path class="cls-3" d="M1018.73,242.85c15,0,14.56-.94,0-28.18C1005.59,241.91,1005.59,242.85,1018.73,242.85Z"/>
    <line class="cls-4" x1="1018.73" y1="249.42" x2="1018.73" y2="229.7"/>
    <line class="cls-4" x1="1014.51" y1="235.8" x2="1018.26" y2="239.09"/>
    <line class="cls-4" x1="1018.73" y1="234.86" x2="1022.96" y2="226.88"/>
    <path class="cls-4" d="M1018.73,242.85c15,0,14.56-.94,0-28.18C1005.59,241.91,1005.59,242.85,1018.73,242.85Z"/>
    <path class="cls-3"
          d="M1045.57,234.21c9.67,0,13.12-6.41,10.34-14.37-3.3-9.45-16.88-9.62-20.41-.25C1032.28,228.17,1036.66,234.21,1045.57,234.21Z"/>
    <path class="cls-4"
          d="M1045.57,234.21c9.67,0,13.12-6.41,10.34-14.37-3.3-9.45-16.88-9.62-20.41-.25C1032.28,228.17,1036.66,234.21,1045.57,234.21Z"/>
    <path class="cls-3"
          d="M1033.36,327.18c9.67,0,13.12-6.41,10.35-14.37-3.3-9.45-16.89-9.62-20.41-.25C1020.07,321.14,1024.45,327.18,1033.36,327.18Z"/>
    <line class="cls-4" x1="1033.36" y1="333.76" x2="1033.36" y2="314.04"/>
    <line class="cls-4" x1="1027.26" y1="318.26" x2="1032.9" y2="320.61"/>
    <line class="cls-4" x1="1033.36" y1="316.85" x2="1039.47" y2="313.57"/>
    <path class="cls-4"
          d="M1033.36,327.18c9.67,0,13.12-6.41,10.35-14.37-3.3-9.45-16.89-9.62-20.41-.25C1020.07,321.14,1024.45,327.18,1033.36,327.18Z"/>
    <path class="cls-3"
          d="M772.29,364.28c9.67,0,13.12-6.42,10.34-14.37-3.3-9.46-16.88-9.63-20.4-.25C759,358.23,763.38,364.28,772.29,364.28Z"/>
    <line class="cls-4" x1="772.29" y1="370.85" x2="772.29" y2="351.13"/>
    <line class="cls-4" x1="766.19" y1="355.36" x2="771.82" y2="357.7"/>
    <line class="cls-4" x1="772.29" y1="353.95" x2="778.4" y2="350.66"/>
    <path class="cls-4"
          d="M772.29,364.28c9.67,0,13.12-6.42,10.34-14.37-3.3-9.46-16.88-9.63-20.4-.25C759,358.23,763.38,364.28,772.29,364.28Z"/>
    <path class="cls-3" d="M724.87,340.4c15,0,15-15.5,0-28.18C708.44,327.25,711.72,340.4,724.87,340.4Z"/>
    <line class="cls-4" x1="724.87" y1="346.97" x2="724.87" y2="327.25"/>
    <line class="cls-4" x1="719.7" y1="330.53" x2="724.4" y2="336.64"/>
    <line class="cls-4" x1="724.87" y1="332.41" x2="731.21" y2="326.07"/>
    <path class="cls-4" d="M724.87,340.4c15,0,15-15.5,0-28.18C708.44,327.25,711.72,340.4,724.87,340.4Z"/>
    <path class="cls-3" d="M886.86,294.85c15,0,15-15.5,0-28.17C870.43,281.7,873.72,294.85,886.86,294.85Z"/>
    <line class="cls-4" x1="886.86" y1="301.42" x2="886.86" y2="281.7"/>
    <line class="cls-4" x1="881.7" y1="284.99" x2="886.4" y2="291.09"/>
    <line class="cls-4" x1="886.86" y1="286.87" x2="893.2" y2="280.53"/>
    <path class="cls-4" d="M886.86,294.85c15,0,15-15.5,0-28.17C870.43,281.7,873.72,294.85,886.86,294.85Z"/>
    <path class="cls-3" d="M845.47,321.73c15,0,14.55-.94,0-28.17C832.32,320.79,832.32,321.73,845.47,321.73Z"/>
    <line class="cls-4" x1="845.47" y1="328.3" x2="845.47" y2="308.58"/>
    <line class="cls-4" x1="841.24" y1="314.69" x2="845" y2="317.97"/>
    <line class="cls-4" x1="845.47" y1="313.75" x2="849.69" y2="305.77"/>
    <path class="cls-4" d="M845.47,321.73c15,0,14.55-.94,0-28.17C832.32,320.79,832.32,321.73,845.47,321.73Z"/>
    <path class="cls-3"
          d="M801.43,343.37c9,0,10.23-7.94,3.81-15.76a4.81,4.81,0,0,0-7.48,0C790.69,336.38,793.44,343.37,801.43,343.37Z"/>
    <path class="cls-4"
          d="M801.43,343.37c9,0,10.25-8,3.69-15.9a4.73,4.73,0,0,0-7.26,0C790.66,336.32,793.4,343.37,801.43,343.37Z"/>
    <path class="cls-4" d="M805,334.53a2.68,2.68,0,0,0,4.22,0"/>
    <path class="cls-4" d="M801.28,336.4c2.35,2.35,5.63,0,5.63,0"/>
    <path class="cls-3"
          d="M773.26,291.72c9,0,10.23-7.94,3.8-15.76a4.79,4.79,0,0,0-7.47,0C762.51,284.73,765.26,291.72,773.26,291.72Z"/>
    <path class="cls-4"
          d="M773.26,291.72c9,0,10.24-8,3.69-15.9a4.73,4.73,0,0,0-7.26.05C762.49,284.66,765.23,291.72,773.26,291.72Z"/>
    <path class="cls-4" d="M776.86,282.87a2.69,2.69,0,0,0,4.23,0"/>
    <path class="cls-4" d="M773.11,284.75c2.34,2.35,5.63,0,5.63,0"/>
    <line class="cls-13" x1="1019.82" y1="197.94" x2="1055.97" y2="197.94"/>
    <line class="cls-13" x1="1027.33" y1="229.4" x2="1035.31" y2="229.4"/>
    <polyline class="cls-35" points="724.94 144.18 677.05 144.18 677.05 154.04 677.05 161.08"/>
    <polyline class="cls-35" points="717.19 144.18 717.19 137.14 724.94 137.14"/>
    <polyline class="cls-35" points="667.89 166.72 667.89 161.08 687.61 161.08 685.85 167.07"/>
    <polyline class="cls-35" points="677.05 158 624.93 158 624.93 172.07"/>
    <rect class="cls-1" x="3.77" y="-161.51" width="1034.42" height="560.15"/>
</svg>