<svg xmlns="http://www.w3.org/2000/svg" xmlns:xlink="http://www.w3.org/1999/xlink" width="77" height="34" viewBox="0 0 77 34">
    <defs>
        <path id="a" d="M0 1.045h73.501v26.608H0z"/>
        <path id="c" d="M.228.838H56.59v31.564H.228z"/>
        <path id="e" d="M0 1.045h73.501v26.608H0z"/>
        <path id="g" d="M.998.65h14.323v14.322H.998z"/>
        <path id="i" d="M.11.65h14.322v14.322H.11z"/>
        <path id="k" d="M0 34.454h76.91V1.07H0z"/>
    </defs>
    <g fill="none" fill-rule="evenodd" transform="translate(0 -1)">
        <path fill="#FFF" d="M20.606 28.667l47.796.928s3.248-.638 4.525-2.377l-1.16-1.16.812-4.931s-.754-4.061-5.568-6.149c0 0-6.19-2.398-10.964-2.727 0 0-11.311-7.134-19.025-8.178 0 0-7.999-1.092-27.376 1.659 0 0-8.762 5.475-8.589 10.174l-.002 6.149s-1.386 3.046 0 5.163l5.048 1.217 14.503.232z"/>
        <g transform="translate(0 2.37)">
            <mask id="b" fill="#fff">
                <use xlink:href="#a"/>
            </mask>
            <path fill="#4997D2" d="M1.333 24.465l4.873 1.175 14.408.22 47.798.929c-.032-.004 2.639-.552 3.924-1.914L71.3 23.837l.834-5.07c-.124-.547-1.055-3.918-5.296-5.758-.046-.018-6.17-2.373-10.82-2.692l-.204-.066c-.112-.07-11.32-7.096-18.85-8.115-.08-.013-8.16-1.044-27.161 1.644-.852.549-8.462 5.572-8.309 9.74l-.04 6.345c-.012.028-1.207 2.717-.12 4.6m67.154 3.188l-47.888-.92-14.503-.232-5.312-1.27-.095-.145c-1.379-2.105-.303-4.941-.07-5.492l.001-6.059C.44 8.657 9.048 3.221 9.415 2.991l.17-.062C28.8.202 36.75 1.225 37.08 1.27c7.436 1.005 17.928 7.448 19.106 8.182 4.767.356 10.728 2.65 10.982 2.748 4.986 2.162 5.806 6.3 5.839 6.476l.014.075-.787 4.785 1.266 1.266-.222.303c-1.36 1.856-4.653 2.52-4.792 2.547" mask="url(#b)"/>
        </g>
        <g transform="translate(20.32 .231)">
            <mask id="d" fill="#fff">
                <use xlink:href="#c"/>
            </mask>
            <path fill="#F4F4F5" d="M17.111.838c7.266.984 17.008 6.655 19.596 8.225 5.017.525 10.822 2.758 11.08 2.857l.11.046c4.969 2.155 6.953 6.278 7.342 8.376l.097.523-.645 3.918 1.9 1.9-1.538 2.096c-1.881 2.564-5.65 3.415-6.385 3.56l-.32.063-48.12-.935" mask="url(#d)"/>
        </g>
        <g transform="translate(0 2.37)">
            <mask id="f" fill="#fff">
                <use xlink:href="#e"/>
            </mask>
            <path fill="#4997D2" d="M1.333 24.465l4.873 1.175 14.408.22 47.798.929c-.032-.004 2.639-.552 3.924-1.914L71.3 23.837l.834-5.07c-.124-.547-1.055-3.918-5.296-5.758-.046-.018-6.17-2.373-10.82-2.692l-.204-.066c-.112-.07-11.32-7.096-18.85-8.115-.08-.013-8.16-1.044-27.161 1.644-.852.549-8.462 5.572-8.309 9.74l-.04 6.345c-.012.028-1.207 2.717-.12 4.6m67.154 3.188l-47.888-.92-14.503-.232-5.312-1.27-.095-.145c-1.379-2.105-.303-4.941-.07-5.492l.001-6.059C.44 8.657 9.048 3.221 9.415 2.991l.17-.062C28.8.202 36.75 1.225 37.08 1.27c7.436 1.005 17.928 7.448 19.106 8.182 4.767.356 10.728 2.65 10.982 2.748 4.986 2.162 5.806 6.3 5.839 6.476l.014.075-.787 4.785 1.266 1.266-.222.303c-1.36 1.856-4.653 2.52-4.792 2.547" mask="url(#f)"/>
        </g>
        <g transform="translate(4.278 19.481)">
            <mask id="h" fill="#fff">
                <use xlink:href="#g"/>
            </mask>
            <path fill="#075BAA" d="M15.321 7.811a7.161 7.161 0 1 1-14.323 0 7.161 7.161 0 0 1 14.323 0" mask="url(#h)"/>
        </g>
        <path fill="#FFF" d="M16.338 27.293a3.9 3.9 0 1 1-3.9-3.901 3.9 3.9 0 0 1 3.9 3.9"/>
        <path fill="#4997D2" d="M12.438 23.828a3.469 3.469 0 0 0-3.464 3.465 3.468 3.468 0 0 0 3.464 3.463 3.468 3.468 0 0 0 3.464-3.463 3.469 3.469 0 0 0-3.464-3.465m0 7.802A4.343 4.343 0 0 1 8.1 27.293a4.343 4.343 0 0 1 4.338-4.338 4.343 4.343 0 0 1 4.337 4.338 4.343 4.343 0 0 1-4.337 4.337"/>
        <g transform="translate(53.472 19.481)">
            <mask id="j" fill="#fff">
                <use xlink:href="#i"/>
            </mask>
            <path fill="#075BAA" d="M14.432 7.811a7.161 7.161 0 1 1-14.323 0 7.161 7.161 0 0 1 14.323 0" mask="url(#j)"/>
        </g>
        <path fill="#FFF" d="M64.644 27.293a3.9 3.9 0 1 1-3.9-3.901 3.9 3.9 0 0 1 3.9 3.9"/>
        <path fill="#4997D2" d="M60.743 23.828a3.469 3.469 0 0 0-3.464 3.465 3.468 3.468 0 0 0 3.464 3.463 3.468 3.468 0 0 0 3.464-3.463 3.469 3.469 0 0 0-3.464-3.465m0 7.802a4.343 4.343 0 0 1-4.337-4.337 4.343 4.343 0 0 1 4.337-4.338 4.343 4.343 0 0 1 4.338 4.338 4.343 4.343 0 0 1-4.338 4.337M2.862 17.18c-1.015 0-1.8-.141-1.885-.156l.16-.859c.047.008 4.713.836 5.732-1.706-.295-.412-1.42-1.648-4.43-1.905l.076-.872c4.158.357 5.19 2.451 5.23 2.54l.074.155-.052.161c-.695 2.22-3.145 2.642-4.905 2.642M71.64 21.661c-1.252 0-3.409-.422-5.325-2.885l-.148-.191.082-.228c.068-.187.772-1.81 4.55-1.14l-.154.86c-2.258-.405-3.136.115-3.439.413 2.452 2.923 5.229 2.22 5.259 2.214l.226.845a4.406 4.406 0 0 1-1.052.112M16.249 10.381c.987.143 6.602.952 15.143 2.048 5.687.73 11.455 1.431 17.143 2.085.007.002 1.826.129 3.465-.835-1.866-1.317-8.583-5.839-14.55-7.09-.049-.012-1.666-.463-6.104-.373a83.03 83.03 0 0 0-4.86.26c-3.09.248-6.585.669-10.391 1.249.006 0-.638.156-.788.632-.143.46.19 1.176.942 2.024m32.534 5.014a4.45 4.45 0 0 1-.333-.01 1382.16 1382.16 0 0 1-17.168-2.089c-9.397-1.206-15.258-2.065-15.317-2.073l-.153-.023-.105-.114c-1.076-1.173-1.49-2.183-1.23-2.999.308-.963 1.413-1.21 1.46-1.221 3.853-.588 7.369-1.01 10.479-1.262a82.931 82.931 0 0 1 4.912-.261c4.619-.09 6.269.382 6.336.401 7.131 1.493 15.03 7.35 15.363 7.598l.464.347-.461.35c-1.606 1.22-3.493 1.356-4.247 1.356"/>
        <mask id="l" fill="#fff">
            <use xlink:href="#k"/>
        </mask>
        <path fill="#4997D2" d="M26.015 12.225h.873V6.04h-.873z" mask="url(#l)"/>
    </g>
</svg>
