<?xml version="1.0" encoding="UTF-8"?> <svg xmlns="http://www.w3.org/2000/svg" xmlns:xlink="http://www.w3.org/1999/xlink" width="82px" height="84px" viewBox="0 0 82 84"><!-- Generator: Sketch 59 (86127) - https://sketch.com --><title>Icons / Corporate</title><desc>Created with Sketch.</desc><defs><polygon id="path-1" points="0.0005 0 81.787 0 81.787 1 0.0005 1"></polygon></defs><g id="Visual-Styles-&amp;-UI-Elements" stroke="none" stroke-width="1" fill="none" fill-rule="evenodd"><g id="Iconography" transform="translate(-627.000000, -842.000000)"><g id="Icons-/-Corporate" transform="translate(627.000000, 841.000000)"><g id="Corporate"><polygon id="Fill-1" fill="#F4F4F5" points="34.9092 15.6493 32.6492 84.5063 73.8082 83.4743 73.8082 29.6133 56.8522 9.1673"></polygon><polygon id="Fill-2" fill="#075BAA" points="29.8845 72.145 29.8845 84.471 37.8105 84.034 37.8105 71.264"></polygon><g id="Group-18" transform="translate(0.000000, 0.970900)"><polyline id="Stroke-3" stroke="#4997D2" points="57.8491 83.5 57.8491 22.658 57.8491 0.715 28.4261 10.19 28.4261 22.159 15.9581 26.319 14.9611 83.5"></polyline><g id="Group-7" transform="translate(0.000000, 83.000000)"><mask id="mask-2" fill="white"><use xlink:href="#path-1"></use></mask><g id="Clip-6"></g><line x1="0.0005" y1="0.5" x2="81.7875" y2="0.5" id="Stroke-5" stroke="#4997D2" mask="url(#mask-2)"></line></g><polyline id="Stroke-8" stroke="#4997D2" points="57.8491 0.7149 69.3201 18.1699 69.3201 83.0009"></polyline><line x1="46.3794" y1="8.6944" x2="46.3794" y2="83.5004" id="Stroke-10" stroke="#4997D2"></line><path d="M69.3198,37.1211 L57.8488,22.6581 C57.8488,22.6581 22.9268,31.3831 21.1038,31.6861" id="Stroke-12" stroke="#4997D2"></path><polyline id="Stroke-14" stroke="#4997D2" points="30.1167 43.8389 57.8487 38.6169 69.3077 51.8389"></polyline><polyline id="Stroke-16" stroke="#4997D2" points="39.8383 56.3956 57.8493 54.0766 69.2063 64.1936"></polyline></g></g></g></g></g></svg> 