<?xml version="1.0" encoding="UTF-8"?> <svg xmlns="http://www.w3.org/2000/svg" width="54" height="61" viewBox="0 0 54 61"><g fill="none" fill-rule="evenodd"><path fill="#F4F4F5" d="M53.238 0L3.697 59.449l48.88-.33z"></path><path fill="#4997D2" d="M8.871 8.655H44.98v-1H8.871zM8.871 12.965H44.98v-1H8.871zM8.871 17.275H44.98v-1H8.871zM8.871 21.584H44.98v-1H8.871zM8.871 25.893H44.98v-1H8.871zM8.871 34.512H44.98v-1H8.871zM8.871 38.82h25.761v-1H8.871zM8.871 30.202H44.98v-1H8.871z"></path><path fill="#075BAA" d="M17.678 49.563c-.987 0-1.99-.38-2.964-.747-2.158-.818-3.542-1.22-4.763.667l-.84-.543c1.723-2.662 4.069-1.774 5.957-1.06 1.142.433 2.222.838 3.159.623 3.194-.735 5.126-.45 5.44.807l-.97.242c-.082-.325-1.225-.771-4.246-.074a3.423 3.423 0 0 1-.773.085"></path><path fill="#075BAA" d="M42.118 60.94H0L.444 6.71l1 .009-.436 53.22h41.11z"></path><path fill="#4997D2" d="M4.196 57.298h39.89a1640.41 1640.41 0 0 0 6.01-6.52V2.481h-45.9v54.816zm40.324 1H3.196V1.482h47.9v49.683l-.132.144c-2.04 2.225-4.313 4.695-6.295 6.83l-.149.16z"></path><path fill="#4997D2" d="M44.803 57.798h-1v-7.326h6.793v1h-5.793z"></path></g></svg> 