<?xml version="1.0" encoding="UTF-8"?> <svg xmlns="http://www.w3.org/2000/svg" xmlns:xlink="http://www.w3.org/1999/xlink" width="94px" height="56px" viewBox="0 0 94 56"><!-- Generator: Sketch 59 (86127) - https://sketch.com --><title>Icons / House and Residential Moving</title><desc>Created with Sketch.</desc><defs><polygon id="path-1" points="0 55 93.386 55 93.386 0.765 0 0.765"></polygon></defs><g id="Visual-Styles-&amp;-UI-Elements" stroke="none" stroke-width="1" fill="none" fill-rule="evenodd"><g id="Iconography" transform="translate(-435.000000, -994.000000)"><g id="Icons-/-House-and-Residential-Moving" transform="translate(435.000000, 994.000000)"><g id="Group-18"><polygon id="Fill-1" fill="#F4F4F5" points="63.3429 22.9659 63.3429 55.2349 68.9059 55.2349 88.7759 48.5579 86.8679 48.2409 86.8679 25.5079 93.3859 25.5079 79.2379 12.3149 48.0829 4.5269"></polygon><polygon id="Fill-2" fill="#075BAA" points="40.731 53.2055 49.633 53.2055 49.633 36.0975 40.731 36.0975"></polygon><g id="Group-17" transform="translate(0.000000, 0.234500)"><path d="M84.5085,23.3983 L84.5615,48.0033 C84.5615,48.0033 66.8655,53.1343 66.1415,53.1233177 L24.7925,52.9383 L24.7925,20.3153" id="Stroke-3" stroke="#4997D2"></path><polyline id="Stroke-5" stroke="#4997D2" points="45.1716 1.246 72.6216 9.24 87.7136 23.251 68.4846 23.398 45.3316 1.527 22.8366 22.371"></polyline><line x1="66.53" y1="21.1962" x2="66.53" y2="53.1232" id="Stroke-7" stroke="#4997D2"></line><polyline id="Stroke-9" stroke="#4997D2" points="35.3132 10.7753 11.6812 10.7753 1.1132 22.6643 25.0392 22.6643"></polyline><polyline id="Stroke-11" stroke="#4997D2" points="4.489 22.6639 4.489 49.0849 25.332 49.0849"></polyline><path d="M49.5505,23.0907 C49.5505,25.7017 47.4345,27.8197 44.8215,27.8197 C42.2105,27.8197 40.0945,25.7017 40.0945,23.0907 C40.0945,20.4797 42.2105,18.3617 44.8215,18.3617 C47.4345,18.3617 49.5505,20.4797 49.5505,23.0907 Z" id="Stroke-13" stroke="#4997D2"></path><mask id="mask-2" fill="white"><use xlink:href="#path-1"></use></mask><g id="Clip-16"></g><polygon id="Stroke-15" stroke="#4997D2" mask="url(#mask-2)" points="11.048 40.75 17.128 40.75 17.128 27.434 11.048 27.434"></polygon></g></g></g></g></g></svg> 