<?xml version="1.0" encoding="UTF-8"?> <svg xmlns="http://www.w3.org/2000/svg" xmlns:xlink="http://www.w3.org/1999/xlink" width="94px" height="97px" viewBox="0 0 94 97"><!-- Generator: Sketch 59 (86127) - https://sketch.com --><title>Icons / International</title><desc>Created with Sketch.</desc><defs><path d="M0.505,46.035 C0.505,71.451 21.109,92.054 46.524,92.054 L46.524,92.054 C71.939,92.054 92.542,71.451 92.542,46.035 L92.542,46.035 C92.542,20.621 71.939,0.018 46.524,0.018 L46.524,0.018 C21.109,0.018 0.505,20.621 0.505,46.035" id="path-1"></path><path d="M0.505,46.035 C0.505,71.451 21.109,92.054 46.524,92.054 L46.524,92.054 C71.939,92.054 92.542,71.451 92.542,46.035 L92.542,46.035 C92.542,20.621 71.939,0.018 46.524,0.018 L46.524,0.018 C21.109,0.018 0.505,20.621 0.505,46.035" id="path-3"></path><path d="M0.505,46.035 C0.505,71.451 21.109,92.054 46.524,92.054 L46.524,92.054 C71.939,92.054 92.542,71.451 92.542,46.035 L92.542,46.035 C92.542,20.621 71.939,0.018 46.524,0.018 L46.524,0.018 C21.109,0.018 0.505,20.621 0.505,46.035" id="path-5"></path><path d="M0.505,46.035 C0.505,71.451 21.109,92.054 46.524,92.054 L46.524,92.054 C71.939,92.054 92.542,71.451 92.542,46.035 L92.542,46.035 C92.542,20.621 71.939,0.018 46.524,0.018 L46.524,0.018 C21.109,0.018 0.505,20.621 0.505,46.035" id="path-7"></path><path d="M0.505,46.035 C0.505,71.451 21.109,92.054 46.524,92.054 L46.524,92.054 C71.939,92.054 92.542,71.451 92.542,46.035 L92.542,46.035 C92.542,20.621 71.939,0.018 46.524,0.018 L46.524,0.018 C21.109,0.018 0.505,20.621 0.505,46.035" id="path-9"></path><path d="M0.505,46.035 C0.505,71.451 21.109,92.054 46.524,92.054 L46.524,92.054 C71.939,92.054 92.542,71.451 92.542,46.035 L92.542,46.035 C92.542,20.621 71.939,0.018 46.524,0.018 L46.524,0.018 C21.109,0.018 0.505,20.621 0.505,46.035" id="path-11"></path><path d="M0.505,46.035 C0.505,71.451 21.109,92.054 46.524,92.054 L46.524,92.054 C71.939,92.054 92.542,71.451 92.542,46.035 L92.542,46.035 C92.542,20.621 71.939,0.018 46.524,0.018 L46.524,0.018 C21.109,0.018 0.505,20.621 0.505,46.035" id="path-13"></path><path d="M0.505,46.035 C0.505,71.451 21.109,92.054 46.524,92.054 L46.524,92.054 C71.939,92.054 92.542,71.451 92.542,46.035 L92.542,46.035 C92.542,20.621 71.939,0.018 46.524,0.018 L46.524,0.018 C21.109,0.018 0.505,20.621 0.505,46.035" id="path-15"></path><path d="M0.505,46.035 C0.505,71.451 21.109,92.054 46.524,92.054 L46.524,92.054 C71.939,92.054 92.542,71.451 92.542,46.035 L92.542,46.035 C92.542,20.621 71.939,0.018 46.524,0.018 L46.524,0.018 C21.109,0.018 0.505,20.621 0.505,46.035" id="path-17"></path><path d="M0.505,46.035 C0.505,71.451 21.109,92.054 46.524,92.054 L46.524,92.054 C71.939,92.054 92.542,71.451 92.542,46.035 L92.542,46.035 C92.542,20.621 71.939,0.018 46.524,0.018 L46.524,0.018 C21.109,0.018 0.505,20.621 0.505,46.035" id="path-19"></path></defs><g id="Visual-Styles-&amp;-UI-Elements" stroke="none" stroke-width="1" fill="none" fill-rule="evenodd"><g id="Iconography" transform="translate(-432.000000, -829.000000)"><g id="Icons-/-International" transform="translate(432.000000, 829.000000)"><g id="International"><path d="M93.8637,52.6898 C93.8637,76.6458 74.4427,96.0658 50.4867,96.0658 C26.5317,96.0658 7.1107,76.6458 7.1107,52.6898 C7.1107,28.7338 26.5317,9.3138 50.4867,9.3138 C74.4427,9.3138 93.8637,28.7338 93.8637,52.6898" id="Fill-1" fill="#F4F4F5"></path><g id="Group-33" transform="translate(0.000000, 0.929000)"><g id="Group-5"><mask id="mask-2" fill="white"><use xlink:href="#path-1"></use></mask><g id="Clip-4"></g><path d="M46.5854,-4.9267 C46.4594,29.0493 46.4594,63.0223 46.5854,96.9983" id="Stroke-3" stroke="#4997D2" mask="url(#mask-2)"></path></g><g id="Group-8"><mask id="mask-4" fill="white"><use xlink:href="#path-3"></use></mask><g id="Clip-7"></g><path d="M29.1635,-1.6533 C23.1665,30.6177 23.1615,61.4297 29.1635,93.7247" id="Stroke-6" stroke="#4997D2" mask="url(#mask-4)"></path></g><g id="Group-11"><mask id="mask-6" fill="white"><use xlink:href="#path-5"></use></mask><g id="Clip-10"></g><path d="M9.5786,18.2852 C4.6426,37.8772 4.5756,53.6842 9.4556,73.4032" id="Stroke-9" stroke="#4997D2" mask="url(#mask-6)"></path></g><g id="Group-14"><mask id="mask-8" fill="white"><use xlink:href="#path-7"></use></mask><g id="Clip-13"></g><path d="M64.7651,-1.6533 C70.7631,30.6177 70.7671,61.4287 64.7651,93.7247" id="Stroke-12" stroke="#4997D2" mask="url(#mask-8)"></path></g><g id="Group-17"><mask id="mask-10" fill="white"><use xlink:href="#path-9"></use></mask><g id="Clip-16"></g><path d="M84.3501,18.2852 C89.2861,37.8772 89.3531,53.6842 84.4731,73.4032" id="Stroke-15" stroke="#4997D2" mask="url(#mask-10)"></path></g><g id="Group-20"><mask id="mask-12" fill="white"><use xlink:href="#path-11"></use></mask><g id="Clip-19"></g><path d="M97.9272,45.6573 C63.9512,45.5313 29.9772,45.5313 -3.9988,45.6573" id="Stroke-18" stroke="#4997D2" mask="url(#mask-12)"></path></g><g id="Group-23"><mask id="mask-14" fill="white"><use xlink:href="#path-13"></use></mask><g id="Clip-22"></g><path d="M94.6538,28.2354 C62.3828,22.2374 31.5708,22.2324 -0.7252,28.2354" id="Stroke-21" stroke="#4997D2" mask="url(#mask-14)"></path></g><g id="Group-26"><mask id="mask-16" fill="white"><use xlink:href="#path-15"></use></mask><g id="Clip-25"></g><path d="M74.7153,8.6495 C55.1233,3.7135 39.3153,3.6475 19.5963,8.5275" id="Stroke-24" stroke="#4997D2" mask="url(#mask-16)"></path></g><g id="Group-29"><mask id="mask-18" fill="white"><use xlink:href="#path-17"></use></mask><g id="Clip-28"></g><path d="M94.6538,63.836 C62.3828,69.834 31.5708,69.839 -0.7252,63.836" id="Stroke-27" stroke="#4997D2" mask="url(#mask-18)"></path></g><g id="Group-32"><mask id="mask-20" fill="white"><use xlink:href="#path-19"></use></mask><g id="Clip-31"></g><path d="M74.7153,83.4219 C55.1233,88.3579 39.3153,88.4239 19.5963,83.5439" id="Stroke-30" stroke="#4997D2" mask="url(#mask-20)"></path></g></g><g id="Group-46" transform="translate(0.000000, 0.929000)"><path d="M92.5424,46.0352 C92.5424,71.4512 71.9384,92.0542 46.5234,92.0542 C21.1084,92.0542 0.5054,71.4512 0.5054,46.0352 C0.5054,20.6202 21.1084,0.0172 46.5234,0.0172 C71.9384,0.0172 92.5424,20.6202 92.5424,46.0352 Z" id="Stroke-34" stroke="#4997D2"></path><path d="M17.6801,57.2647 C17.6801,59.2107 16.1031,60.7877 14.1571,60.7877 C12.2111,60.7877 10.6341,59.2107 10.6341,57.2647 C10.6341,55.3197 12.2111,53.7427 14.1571,53.7427 C16.1031,53.7427 17.6801,55.3197 17.6801,57.2647" id="Fill-36" fill="#075BAA"></path><path d="M84.1753,34.8067 C84.1753,36.7517 82.5983,38.3287 80.6523,38.3287 C78.7063,38.3287 77.1293,36.7517 77.1293,34.8067 C77.1293,32.8607 78.7063,31.2837 80.6523,31.2837 C82.5983,31.2837 84.1753,32.8607 84.1753,34.8067" id="Fill-38" fill="#075BAA"></path><path d="M16.3589,55.0635 C16.8419,54.5195 17.4169,53.9125 18.0799,53.2545" id="Stroke-40" stroke="#075BAA"></path><path d="M21.5962,50.0538 C27.1582,45.3758 35.8402,39.6628 47.1842,36.1268 C57.1322,33.0278 66.0042,32.8508 72.2842,33.3568" id="Stroke-42" stroke="#075BAA" stroke-dasharray="4.757,4.757"></path><path d="M74.6548,33.5899 C75.5548,33.6949 76.3828,33.8109 77.1298,33.9259" id="Stroke-44" stroke="#075BAA"></path></g></g></g></g></g></svg> 