<?xml version="1.0" encoding="UTF-8"?> <svg xmlns="http://www.w3.org/2000/svg" xmlns:xlink="http://www.w3.org/1999/xlink" width="102px" height="83px" viewBox="0 0 102 83"><!-- Generator: Sketch 59 (86127) - https://sketch.com --><title>Icons / Long Distance</title><desc>Created with Sketch.</desc><g id="Visual-Styles-&amp;-UI-Elements" stroke="none" stroke-width="1" fill="none" fill-rule="evenodd"><g id="Iconography" transform="translate(-947.000000, -827.000000)"><g id="Icons-/-Long-Distance" transform="translate(947.000000, 826.000000)"><g id="Group-17"><polygon id="Fill-1" fill="#F4F4F5" points="35.8389 72.3858 68.5369 83.9458 101.5639 77.6708 101.5639 10.6248 68.5369 16.8998 35.8389 5.3398"></polygon><g id="Group-6" transform="translate(0.000000, 0.945400)" stroke="#4997D2"><polygon id="Stroke-2" points="0.5003 6.0465 33.5273 0.7615 33.5273 67.8075 0.5003 73.0915"></polygon><polygon id="Stroke-4" points="33.5276 0.7614 66.2246 12.3214 66.2246 79.3664 33.5276 67.8074"></polygon></g><polygon id="Stroke-7" stroke="#4997D2" points="66.2249 13.2664 99.2519 6.9924 99.2519 74.0374 66.2249 80.3124"></polygon><path d="M15.6926,57.5232 L33.8576,25.1572 L65.8946,39.3582 L85.0496,25.8172" id="Stroke-8" stroke="#075BAA" stroke-dasharray="4"></path><polyline id="Stroke-9" stroke="#4997D2" points="49.3811 74.0369 53.0141 62.1469 65.8951 66.7709 90.9951 51.2479 98.9221 35.3949"></polyline><g id="Group-16" transform="translate(0.000000, 3.945400)"><polyline id="Stroke-10" stroke="#4997D2" points="0.8303 33.1012 7.4353 13.9452 15.0323 21.2112 17.3443 8.6612 17.0143 0.4042"></polyline><path d="M17.509,54.8991 C17.509,56.4501 16.252,57.7071 14.701,57.7071 C13.152,57.7071 11.895,56.4501 11.895,54.8991 C11.895,53.3481 13.152,52.0911 14.701,52.0911 C16.252,52.0911 17.509,53.3481 17.509,54.8991" id="Fill-12" fill="#075BAA"></path><path d="M86.2063,22.8629 C86.2063,24.4129 84.9493,25.6699 83.3983,25.6699 C81.8493,25.6699 80.5923,24.4129 80.5923,22.8629 C80.5923,21.3119 81.8493,20.0549 83.3983,20.0549 C84.9493,20.0549 86.2063,21.3119 86.2063,22.8629" id="Fill-14" fill="#075BAA"></path></g></g></g></g></g></svg> 