<?xml version="1.0" encoding="UTF-8"?> <svg xmlns="http://www.w3.org/2000/svg" xmlns:xlink="http://www.w3.org/1999/xlink" width="103px" height="65px" viewBox="0 0 103 65"><!-- Generator: Sketch 59 (86127) - https://sketch.com --><title>Icons / Packing</title><desc>Created with Sketch.</desc><defs><polygon id="path-1" points="0.5774 0.953372745 94.2134 0.953372745 94.2134 51 0.5774 51"></polygon></defs><g id="Visual-Styles-&amp;-UI-Elements" stroke="none" stroke-width="1" fill="none" fill-rule="evenodd"><g id="Iconography" transform="translate(-606.000000, -1095.000000)"><g id="Icons-/-Packing" transform="translate(606.000000, 1095.000000)"><g id="Group-18"><g id="Group-3" transform="translate(8.000000, 13.741400)"><mask id="mask-2" fill="white"><use xlink:href="#path-1"></use></mask><g id="Clip-2"></g><path d="M19.4404,46.9523 C20.2904,46.5843 45.7814,0.4053 45.7814,0.9583 C45.7814,1.5103 59.8864,6.2933 59.3774,6.8453 C58.8664,7.3963 59.3774,11.4443 59.3774,11.4443 L59.3774,36.0983 L77.5594,11.4443 L81.1284,12.9163 L81.4684,20.2753 L82.8284,19.1723 L83.5284,21.2533 L84.5444,20.1633 L85.5594,21.5643 L85.5464,14.2043 L89.6264,16.4123 L89.6264,45.4803 L91.6654,45.4803 L94.2134,45.6643 L81.4684,48.2403 L63.1154,47.6883 L47.9904,51.0003 L0.5774,46.4003 L19.4404,46.9523 Z" id="Fill-1" fill="#F4F4F5" mask="url(#mask-2)"></path></g><path d="M50.5527,3.6605 C57.2497,3.5655 59.7897,8.9975 58.5397,7.7085 L53.7817,12.1235" id="Fill-4" fill="#075BAA"></path><polygon id="Stroke-6" stroke="#4997D2" points="53.8525 62.1654 8.5775 60.1424 8.2375 14.6994 53.8525 12.3254"></polygon><polyline id="Stroke-8" stroke="#4997D2" points="53.8525 12.3256 67.2065 18.3796 67.2065 60.4016 53.8525 62.1656"></polyline><polyline id="Stroke-10" stroke="#4997D2" points="67.0225 23.1625 85.5805 23.1625 85.5805 59.4365 67.0225 59.4365"></polyline><polyline id="Stroke-12" stroke="#4997D2" points="85.8857 23.1595 96.6067 26.8985 96.6067 58.0355 85.5797 59.4365"></polyline><polyline id="Stroke-14" stroke="#4997D2" points="89.4971 24.4076 89.4971 34.6826 90.8031 33.5936 91.5281 34.9946 92.5441 33.9046 93.5591 35.3056 93.5591 26.0756"></polyline><path d="M67.2061,18.3793 L77.0631,13.2283 L62.2781,4.9483 L53.7811,12.1233 C53.2711,11.7553 49.8731,0.5323 49.8731,0.5323 L0.9301,4.7463 L8.2371,14.6993" id="Stroke-16" stroke="#4997D2"></path></g></g></g></g></svg> 