<svg xmlns="http://www.w3.org/2000/svg" xmlns:xlink="http://www.w3.org/1999/xlink" width="42" height="57" viewBox="0 0 42 57">
    <defs>
        <path id="a" d="M0 56.807h41.305V0H0z"/>
    </defs>
    <g fill="none" fill-rule="evenodd">
        <path fill="#F4F4F5" d="M3.445 52.32C4.573 49.543 37.6 0 37.6 0v56.807H4.903L3.445 52.32z"/>
        <path fill="#4997D2" d="M2.5 1.16c-.827 0-1.5.674-1.5 1.5v50.496c0 .827.673 1.5 1.5 1.5h29.687c.828 0 1.5-.673 1.5-1.5V2.66c0-.827-.672-1.5-1.5-1.5H2.5zm29.687 54.496H2.5a2.502 2.502 0 0 1-2.5-2.5V2.66C0 1.28 1.121.16 2.5.16h29.687a2.503 2.503 0 0 1 2.501 2.5v50.495c0 1.379-1.122 2.5-2.501 2.5z"/>
        <mask id="b" fill="#fff">
            <use xlink:href="#a"/>
        </mask>
        <path fill="#4997D2" d="M3.835 49.51h27.018V3.994H3.835V49.51zm-1 1h29.018V2.994H2.835V50.51z" mask="url(#b)"/>
        <path fill="#4997D2" d="M7.472 37.502h20.624c-.746-3.894-3.731-7.146-7.586-8.19l-.981-.266.809-.615a4.678 4.678 0 0 0 1.87-3.752c0-2.6-2.114-4.714-4.714-4.714a4.718 4.718 0 0 0-4.712 4.714c0 1.537.754 2.981 2.019 3.864l.834.582-.97.305a10.569 10.569 0 0 0-7.193 8.072zm21.783 1H6.314l.075-.566c.548-4.112 3.308-7.618 7.13-9.158a5.71 5.71 0 0 1-1.737-4.099 5.719 5.719 0 0 1 5.712-5.714 5.72 5.72 0 0 1 5.714 5.714 5.649 5.649 0 0 1-1.578 3.936 11.49 11.49 0 0 1 7.55 9.321l.075.566z" mask="url(#b)"/>
        <path fill="#075BAA" d="M35.182 5.467a7.764 7.764 0 0 0-9.227 5.946 7.722 7.722 0 0 0 .317 4.34L24.5 19.714l4.434-.423a7.712 7.712 0 0 0 2.969 1.348 7.761 7.761 0 0 0 9.225-5.947 7.76 7.76 0 0 0-5.946-9.226M10.408 53.014h13.871v-1H10.408z" mask="url(#b)"/>
    </g>
</svg>
