<?xml version="1.0" encoding="UTF-8"?> <svg xmlns="http://www.w3.org/2000/svg" xmlns:xlink="http://www.w3.org/1999/xlink" width="89px" height="46px" viewBox="0 0 89 46"><!-- Generator: Sketch 59 (86127) - https://sketch.com --><title>Icons / Full Service</title><desc>Created with Sketch.</desc><g id="Visual-Styles-&amp;-UI-Elements" stroke="none" stroke-width="1" fill="none" fill-rule="evenodd"><g id="Iconography" transform="translate(-790.000000, -998.000000)"><g id="Icons-/-Full-Service" transform="translate(790.000000, 998.000000)"><g id="Group-53"><path d="M66.3241,10.4544 C66.2631,10.4144 66.0791,10.3244 65.7981,10.1944 C63.5111,9.1454 54.8451,5.5354 54.8451,5.5354 L76.1621,0.0694 L88.7331,3.3494 L88.7331,26.1224 L55.2101,33.4104 L66.3241,10.4544 Z" id="Fill-1" fill="#F4F4F5"></path><path d="M12.8603,21.763 L22.9383,26.216 C22.9383,26.216 21.3913,31.797 21.0303,31.542 C20.6683,31.287 11.0363,27.225 11.0363,27.225" id="Stroke-3" stroke="#4997D2"></path><path d="M14.9042,42.9017 L11.7172,43.7257 C11.3362,43.7977 10.9412,43.7487 10.5902,43.5817 L1.9542,39.4797 C1.3712,39.2037 0.9772,38.6407 0.9172,37.9987 L0.5082,33.6897 C0.4342,32.9127 0.8632,32.1727 1.5752,31.8497 L10.2412,27.4897 C10.7352,27.2657 11.1042,26.8347 11.2492,26.3117 L12.3132,22.4777 C12.4532,21.9747 12.8002,21.5557 13.2692,21.3257 L26.9912,14.5747 C27.4802,14.3347 28.0512,14.3247 28.5502,14.5477 L36.3612,18.0537 C36.9962,18.3397 37.4142,18.9587 37.4412,19.6537 L37.8622,30.4577 C37.9052,31.5667 38.9182,32.3817 40.0102,32.1887 L87.5772,20.7277 L87.8182,25.4587 L83.5632,26.3097" id="Stroke-5" stroke="#4997D2"></path><path d="M20.6806,41.7435 C20.7526,43.5865 19.5006,45.1315 17.8866,45.1945 C16.2716,45.2575 14.9046,43.8145 14.8316,41.9725 C14.7606,40.1295 16.0116,38.5845 17.6256,38.5205 C19.2416,38.4585 20.6086,39.9005 20.6806,41.7435" id="Fill-7" fill="#075BAA"></path><path d="M17.7841,43.4544 C17.1591,43.4544 16.6041,42.7454 16.5711,41.9034 C16.5541,41.4414 16.6911,40.9924 16.9491,40.6744 C17.0961,40.4924 17.3451,40.2744 17.6931,40.2604 L17.6951,40.2604 C18.3541,40.2604 18.9081,40.9704 18.9411,41.8114 C18.9591,42.2734 18.8211,42.7234 18.5631,43.0414 C18.4161,43.2234 18.1691,43.4404 17.8191,43.4544 L17.7841,43.4544 Z" id="Fill-9" fill="#FFFFFF"></path><path d="M17.7841,43.4544 C17.1591,43.4544 16.6041,42.7454 16.5711,41.9034 C16.5541,41.4414 16.6911,40.9924 16.9491,40.6744 C17.0961,40.4924 17.3451,40.2744 17.6931,40.2604 L17.6951,40.2604 C18.3541,40.2604 18.9081,40.9704 18.9411,41.8114 C18.9591,42.2734 18.8211,42.7234 18.5631,43.0414 C18.4161,43.2234 18.1691,43.4404 17.8191,43.4544 L17.7841,43.4544 Z" id="Stroke-11" stroke="#4997D2"></path><path d="M48.4462,35.6439 C48.5182,37.4869 47.2672,39.0319 45.6522,39.0939 C44.0372,39.1579 42.6702,37.7139 42.5972,35.8719 C42.5262,34.0289 43.7772,32.4839 45.3922,32.4209 C47.0082,32.3579 48.3752,33.8009 48.4462,35.6439" id="Fill-13" fill="#075BAA"></path><path d="M45.5487,37.3538 C44.9247,37.3538 44.3697,36.6448 44.3367,35.8028 C44.3187,35.3408 44.4567,34.8918 44.7157,34.5738 C44.8617,34.3918 45.1107,34.1738 45.4587,34.1598 L45.4597,34.1598 C46.1197,34.1598 46.6747,34.8698 46.7067,35.7108 C46.7257,36.1728 46.5877,36.6228 46.3297,36.9408 C46.1827,37.1228 45.9337,37.3398 45.5847,37.3538 L45.5487,37.3538 Z" id="Fill-15" fill="#FFFFFF"></path><path d="M45.5487,37.3538 C44.9247,37.3538 44.3697,36.6448 44.3367,35.8028 C44.3187,35.3408 44.4567,34.8918 44.7157,34.5738 C44.8617,34.3918 45.1107,34.1738 45.4587,34.1598 L45.4597,34.1598 C46.1197,34.1598 46.6747,34.8698 46.7067,35.7108 C46.7257,36.1728 46.5877,36.6228 46.3297,36.9408 C46.1827,37.1228 45.9337,37.3398 45.5847,37.3538 L45.5487,37.3538 Z" id="Stroke-17" stroke="#4997D2"></path><path d="M56.0683,33.8333 C56.1393,35.6763 54.8883,37.2213 53.2733,37.2843 C51.6593,37.3473 50.2913,35.9043 50.2193,34.0613 C50.1473,32.2183 51.3983,30.6733 53.0133,30.6103 C54.6293,30.5483 55.9963,31.9903 56.0683,33.8333" id="Fill-19" fill="#075BAA"></path><path d="M53.1708,35.5453 C52.5458,35.5453 51.9908,34.8353 51.9578,33.9933 C51.9408,33.5313 52.0778,33.0823 52.3368,32.7643 C52.4838,32.5823 52.7318,32.3643 53.0798,32.3513 L53.0808,32.3513 C53.7408,32.3513 54.2958,33.0603 54.3288,33.9013 C54.3468,34.3633 54.2088,34.8143 53.9508,35.1313 C53.8038,35.3133 53.5558,35.5303 53.2058,35.5453 L53.1708,35.5453 Z" id="Fill-21" fill="#FFFFFF"></path><path d="M53.1708,35.5453 C52.5458,35.5453 51.9908,34.8353 51.9578,33.9933 C51.9408,33.5313 52.0778,33.0823 52.3368,32.7643 C52.4838,32.5823 52.7318,32.3643 53.0798,32.3513 L53.0808,32.3513 C53.7408,32.3513 54.2958,33.0603 54.3288,33.9013 C54.3468,34.3633 54.2088,34.8143 53.9508,35.1313 C53.8038,35.3133 53.5558,35.5303 53.2058,35.5453 L53.1708,35.5453 Z" id="Stroke-23" stroke="#4997D2"></path><path d="M76.0712,28.8304 C76.1432,30.6734 74.8922,32.2184 73.2772,32.2804 C71.6622,32.3444 70.2952,30.9004 70.2222,29.0584 C70.1512,27.2154 71.4022,25.6704 73.0172,25.6074 C74.6332,25.5444 76.0002,26.9874 76.0712,28.8304" id="Fill-25" fill="#075BAA"></path><path d="M73.1747,30.5413 C72.5497,30.5413 71.9947,29.8313 71.9617,28.9903 C71.9447,28.5283 72.0817,28.0783 72.3397,27.7613 C72.4877,27.5793 72.7367,27.3603 73.0847,27.3473 L73.0857,27.3473 C73.7447,27.3473 74.2987,28.0573 74.3317,28.8983 C74.3497,29.3593 74.2117,29.8103 73.9537,30.1273 C73.8077,30.3103 73.5597,30.5273 73.2107,30.5413 L73.1747,30.5413 Z" id="Fill-27" fill="#FFFFFF"></path><path d="M73.1747,30.5413 C72.5497,30.5413 71.9947,29.8313 71.9617,28.9903 C71.9447,28.5283 72.0817,28.0783 72.3397,27.7613 C72.4877,27.5793 72.7367,27.3603 73.0847,27.3473 L73.0857,27.3473 C73.7447,27.3473 74.2987,28.0573 74.3317,28.8983 C74.3497,29.3593 74.2117,29.8103 73.9537,30.1273 C73.8077,30.3103 73.5597,30.5273 73.2107,30.5413 L73.1747,30.5413 Z" id="Stroke-29" stroke="#4997D2"></path><path d="M83.7704,27.2367 C83.8424,29.0797 82.5914,30.6247 80.9764,30.6867 C79.3614,30.7507 77.9944,29.3067 77.9224,27.4647 C77.8504,25.6217 79.1014,24.0767 80.7164,24.0137 C82.3324,23.9507 83.6994,25.3937 83.7704,27.2367" id="Fill-31" fill="#075BAA"></path><path d="M80.8759,28.9486 C80.2509,28.9486 79.6939,28.2386 79.6609,27.3966 C79.6279,26.5316 80.1429,25.7776 80.7849,25.7526 L80.7859,25.7526 C81.4429,25.7526 81.9989,26.4636 82.0319,27.3046 C82.0649,28.1706 81.5499,28.9226 80.9069,28.9486 L80.8759,28.9486 Z" id="Fill-33" fill="#FFFFFF"></path><path d="M80.8759,28.9486 C80.2509,28.9486 79.6939,28.2386 79.6609,27.3966 C79.6279,26.5316 80.1429,25.7776 80.7849,25.7526 L80.7859,25.7526 C81.4429,25.7526 81.9989,26.4636 82.0319,27.3046 C82.0649,28.1706 81.5499,28.9226 80.9069,28.9486 L80.8759,28.9486 Z" id="Stroke-35" stroke="#4997D2"></path><line x1="70.2226" y1="29.058" x2="56.0356" y2="32.616" id="Stroke-37" stroke="#4997D2"></line><line x1="42.6806" y1="36.2953" x2="20.6806" y2="41.7433" id="Stroke-39" stroke="#4997D2"></line><path d="M11.2655,43.7122 L10.8005,37.7852 C10.7655,37.0212 11.2085,36.3162 11.9135,36.0162 L20.9825,31.5322" id="Stroke-41" stroke="#4997D2"></path><line x1="37.1024" y1="18.6742" x2="22.9384" y2="26.2162" id="Stroke-43" stroke="#4997D2"></line><polygon id="Stroke-45" stroke="#4997D2" points="24.4003 27.4769 23.2593 31.4029 30.9653 29.0589 30.6073 25.4079"></polygon><path d="M86.8925,4.9085 C86.8925,4.9085 41.9125,17.3035 39.1735,17.1355 L39.5595,28.8585 L39.6935,30.8725 L87.2935,19.2295 L86.9675,4.7095 L75.6875,1.1515 C75.6875,1.1515 30.1035,12.9895 30.1035,13.0325 L30.1035,15.1785" id="Stroke-47" stroke="#4997D2"></path><line x1="39.5849" y1="30.9085" x2="37.7539" y2="30.0615" id="Stroke-49" stroke="#4997D2"></line><line x1="39.1737" y1="17.0872" x2="30.1037" y2="13.0322" id="Stroke-51" stroke="#4997D2"></line></g></g></g></g></svg> 