<?xml version="1.0" encoding="UTF-8"?> <svg xmlns="http://www.w3.org/2000/svg" width="69" height="54" viewBox="0 0 69 54"><g fill="none" fill-rule="evenodd"><path fill="#F4F4F5" d="M50.063 53.501l18.344-7.937V11.698L50.063 4.114z"></path><path fill="#4997D2" d="M47.471 27.218h1V.504h-1z"></path><path fill="#4997D2" d="M48.269 0L-.001 2.053v49.31l4.64.035V9.71l36.183-.588.605 43.49 5.032.044 19.627-7.577L66.02 8.51 48.269 0zM.999 50.37V3.013L48.063 1.01l16.96 8.132.063 35.25-18.808 7.263-3.863-.035-.605-43.515-38.17.62V50.39L1 50.37z"></path><path fill="#4997D2" d="M41.91 51.176L6.36 50.43V9.52h1v39.93l34.57.726z"></path><g fill="#4997D2"><path d="M41.934 41.691c-10.351-.133-34.498-.466-35.16-.687l.27-.96c.929.158 21.382.474 34.904.647l-.014 1zM6.718 19.232l-.014-1 34.57-.44.013 1zM41.497 30.235c-13.335-.087-33.515-.162-34.457-.013l-.267-.962c.667-.22 24.51-.09 34.73-.025l-.006 1zM4.253 51.38l-.227-.974 3.177-.74.227.976z"></path></g></g></svg> 