<svg xmlns="http://www.w3.org/2000/svg" width="100" height="100" viewBox="0 0 100 100">
    <g fill="none" fill-rule="evenodd">
        <g>
            <g>
                <g transform="translate(-467 -618) translate(467 618) translate(15 15)">
                    <ellipse cx="35.205" cy="34.618" fill="#56AFEF" rx="35.205" ry="34.618"/>
                    <path fill="#FFF" d="M34.618 9.388l2.295 11.93c5.614.961 10.045 5.391 11.006 11.006l11.93 2.294-11.93 2.295c-.962 5.614-5.392 10.044-11.006 11.006l-2.295 11.93-2.294-11.93c-5.615-.961-10.045-5.392-11.007-11.006l-11.93-2.295 11.93-2.294c.224-1.309.637-2.553 1.209-3.704l2.42 3.552c-.198.783-.303 1.602-.303 2.446 0 5.509 4.466 9.975 9.975 9.975 5.509 0 9.975-4.466 9.975-9.975 0-5.509-4.466-9.975-9.975-9.975-.822 0-1.622.1-2.386.288l-3.533-2.444c1.129-.552 2.346-.951 3.625-1.17l2.294-11.93z"/>
                    <path fill="#F54747" d="M23.467 7.598L28.748 39.282 18.186 39.282z" transform="rotate(-45 23.467 23.44)"/>
                    <path fill="#F8D8D8" d="M45.763 29.894L51.044 61.579 40.483 61.579z" transform="rotate(135 45.763 45.736)"/>
                    <circle cx="34.618" cy="34.618" r="5.281" fill="#FFF"/>
                </g>
            </g>
        </g>
    </g>
</svg>
